<?xml version="1.0" encoding="UTF-8"?>
<svg id="Layer_2" data-name="Layer 2" xmlns="http://www.w3.org/2000/svg" viewBox="0 0 80.66 34.659">
  <g id="Layer_2-2" data-name="Layer 2">
    <path d="M74.656,0H11.663c-1.46,0-2.797.522-3.838,1.389-1.835,1.514-3.67,3.027-5.506,4.541-.088.069-.174.139-.257.212-.036.03-.073.06-.109.09,0,.003,0,.006,0,.009-1.197,1.097-1.952,2.669-1.952,4.421v17.994c0,3.315,2.688,6.003,6.003,6.003h62.994c1.423,0,2.729-.498,3.758-1.325h.005c.016-.014.032-.027.048-.04.005-.004.009-.008.014-.012,1.835-1.514,3.669-3.028,5.504-4.541.098-.076.194-.155.287-.237.034-.028.068-.056.102-.084-.002,0-.004-.002-.006-.003,1.196-1.097,1.951-2.669,1.951-4.42V6.003c0-3.315-2.688-6.003-6.003-6.003Z" fill="#252525"/>
  </g>
  <g id="Layer_4" data-name="Layer 4">
    <rect x="5.66" y="0" width="75" height="30" rx="6.003" ry="6.003" fill="#c31313"/>
  </g>
</svg>