<?xml version="1.0" encoding="UTF-8"?>
<svg id="Layer_2" data-name="Layer 2" xmlns="http://www.w3.org/2000/svg" viewBox="0 0 413.038 161.094">
  <g id="Layer_1-2" data-name="Layer 1">
    <g>
      <g>
        <path d="M154.272,17.724c-1.504-1.612-3.251-3.005-5.197-4.142-4.292-2.504-9.822-3.722-16.907-3.722-7.173,0-13.07,1.395-17.527,4.144-3.565,2.199-6.345,5.129-8.311,8.726-.005-.228-.016-.456-.048-.682-.236-1.658-1.052-4.842-3.852-7.539-1.922-1.849-4.437-3.087-7.083-3.487-.279-.042-.562-.063-.846-.063h-30.231c-3.131,0-5.669,2.539-5.669,5.669v18.164c-.449-3.559-1.247-6.684-2.414-9.431-2.169-5.105-5.935-8.892-11.196-11.256-4.72-2.118-10.876-3.147-18.821-3.147H5.669c-3.131,0-5.669,2.539-5.669,5.669v81c0,3.131,2.538,5.669,5.669,5.669h20.7c7.903,0,14.028-1.054,18.725-3.222,5.215-2.406,8.951-6.246,11.106-11.413,1.16-2.778,1.953-5.931,2.4-9.518v15.731c0,2.212,1.286,4.222,3.295,5.148.759.35,1.568.521,2.373.521,1.324,0,2.635-.464,3.682-1.356l17.899-15.278c1.262-1.077,1.988-2.653,1.988-4.313v-12.6h8.431c3.131,0,5.669-2.538,5.669-5.669v-12.4c0-3.131-2.538-5.669-5.669-5.669h-8.431v-8.761h12.831c.756,0,1.476-.151,2.135-.419-.4,2.669-.606,5.522-.606,8.55v15.034c0,2.212,1.286,4.222,3.295,5.148.759.35,1.568.521,2.373.521,1.324,0,2.635-.464,3.682-1.356l18.101-15.45,11.591-9.893,12.569-10.729c1.177-1.004,1.892-2.446,1.979-3.991s-.46-3.058-1.516-4.189Z" fill="#ff4634"/>
        <path d="M149.85,23.244c-1.867,0-3.25.5-4.15,1.5s-1.467,2.25-1.7,3.75c-.234,1.5-.35,3.084-.35,4.75v4.085l11.591-9.893c-.238-1.065-.664-1.983-1.291-2.741-.8-.966-2.167-1.45-4.1-1.45Z" fill="none"/>
        <path d="M398.28,22.277h-20.7c-7.903,0-14.028,1.054-18.725,3.222-5.066,2.337-8.724,6.04-10.905,10.985v-2.317c0-.268-.019-.535-.057-.801-.236-1.658-1.051-4.842-3.852-7.538-1.921-1.85-4.437-3.089-7.083-3.488-.279-.042-.562-.063-.846-.063h-30.232c-3.131,0-5.669,2.539-5.669,5.669v18.158c-.449-3.557-1.246-6.679-2.413-9.424-2.169-5.105-5.935-8.892-11.196-11.255-4.72-2.118-10.876-3.147-18.821-3.147h-20.5c-3.131,0-5.669,2.539-5.669,5.669v22.895l-.135-1.282c-.656-6.245-2.131-11.624-4.385-15.99-2.524-4.89-6.306-8.51-11.24-10.76-3.473-1.581-7.654-2.383-12.43-2.383-1.678,0-3.465.099-5.312.293-7.133.75-12.625,2.625-16.79,5.731-4.076,3.042-6.894,7.077-8.417,11.978-.257-.844-.534-1.672-.851-2.471-1.022-2.581-2.491-4.908-4.365-6.917-1.113-1.194-2.626-1.802-4.146-1.802-1.304,0-2.613.448-3.679,1.357l-12.569,10.729c-1.598,1.363-2.311,3.498-1.853,5.548.023.102.047.205.059.306.143,1.266.215,2.601.215,3.967v8.1c0,1.234.399,2.373,1.068,3.304h-1.73v-7.019c0-2.212-1.286-4.222-3.295-5.148-.759-.35-1.568-.521-2.373-.521-1.324,0-2.635.464-3.682,1.357l-18.101,15.449c-1.262,1.077-1.988,2.653-1.988,4.313v14.166c0,2.953.205,5.748.602,8.376-.604-.219-1.252-.345-1.931-.345h-13.031v-.263c0-2.212-1.286-4.222-3.295-5.148-.759-.35-1.568-.521-2.373-.521-1.324,0-2.635.464-3.682,1.356l-17.899,15.278c-1.262,1.077-1.988,2.653-1.988,4.313v2.753c0,3.131,2.538,5.669,5.669,5.669h30.368c3.01-.031,5.982-1.229,8.155-3.288,3.009-2.851,3.625-6.31,3.726-8.134,1.948,3.436,4.654,6.256,8.089,8.407,4.466,2.797,10.374,4.215,17.56,4.215s12.825-1.312,17.149-4.009c4.433-2.765,7.598-6.605,9.407-11.416,1.601-4.259,2.412-9.085,2.412-14.345v-2.756l.262,2.49c.648,6.173,2.118,11.543,4.368,15.961,2.521,4.953,6.277,8.626,11.166,10.916,3.491,1.637,7.696,2.467,12.497,2.467,1.632,0,3.367-.096,5.157-.283,7.103-.746,12.804-2.7,16.947-5.808,2.833-2.125,5.053-4.734,6.663-7.775v7.689c0,3.131,2.538,5.669,5.669,5.669h20.7c7.903,0,14.028-1.054,18.725-3.222,5.215-2.406,8.951-6.246,11.106-11.413,1.16-2.776,1.952-5.927,2.399-9.511v18.477c0,3.131,2.538,5.669,5.669,5.669h30.369c3.01-.031,5.981-1.229,8.153-3.287,3.36-3.183,3.74-7.13,3.747-8.706v-1.6c2.215,4.69,5.834,8.212,10.809,10.447,4.72,2.117,10.876,3.146,18.821,3.146h20.5c3.131,0,5.669-2.538,5.669-5.669V27.946c0-3.131-2.538-5.669-5.669-5.669Z" fill="#ff4634"/>
        <path d="M406.514,13.272h-20.7c-7.903,0-14.028,1.054-18.725,3.222-5.066,2.337-8.724,6.04-10.905,10.985v-2.317c0-.268-.019-.535-.057-.801-.236-1.658-1.051-4.842-3.852-7.538-1.921-1.85-4.437-3.089-7.083-3.488-.279-.042-.562-.063-.846-.063h-30.232c-3.131,0-5.669,2.539-5.669,5.669v18.158c-.449-3.557-1.246-6.679-2.413-9.424-2.169-5.105-5.935-8.892-11.196-11.255-4.72-2.118-10.876-3.147-18.821-3.147h-20.5c-3.131,0-5.669,2.539-5.669,5.669v22.895l-.135-1.282c-.656-6.245-2.131-11.624-4.385-15.99-2.524-4.89-6.306-8.51-11.24-10.76-3.473-1.581-7.654-2.383-12.43-2.383-1.678,0-3.465.099-5.312.293-7.133.75-12.625,2.625-16.79,5.731-4.076,3.042-6.894,7.077-8.417,11.978-.257-.844-.534-1.672-.851-2.471-1.022-2.581-2.491-4.908-4.365-6.917-1.113-1.194-2.626-1.802-4.146-1.802-1.304,0-2.613.448-3.679,1.357l-12.569,10.729c-1.598,1.363-2.311,3.498-1.853,5.548.023.102.047.205.059.306.143,1.266.215,2.601.215,3.967v8.1c0,1.234.399,2.373,1.068,3.304h-1.73v-7.019c0-2.212-1.286-4.222-3.295-5.148-.759-.35-1.568-.521-2.373-.521-1.324,0-2.635.464-3.682,1.357l-18.101,15.449c-1.262,1.077-1.988,2.653-1.988,4.313v14.166c0,2.953.205,5.748.602,8.376-.604-.219-1.252-.345-1.931-.345h-13.031v-.263c0-2.212-1.286-4.222-3.295-5.148-.759-.35-1.568-.521-2.373-.521-1.324,0-2.635.464-3.682,1.356l-17.899,15.278c-1.262,1.077-1.988,2.653-1.988,4.313v2.753c0,3.131,2.538,5.669,5.669,5.669h30.368c3.01-.031,5.982-1.229,8.155-3.288,3.009-2.851,3.625-6.31,3.726-8.134,1.948,3.436,4.654,6.256,8.089,8.407,4.466,2.797,10.374,4.215,17.56,4.215s12.825-1.312,17.149-4.009c4.433-2.765,7.598-6.605,9.407-11.416,1.601-4.259,2.412-9.085,2.412-14.345v-2.756l.262,2.49c.648,6.173,2.118,11.543,4.368,15.961,2.521,4.953,6.277,8.626,11.166,10.916,3.491,1.637,7.696,2.467,12.497,2.467,1.632,0,3.367-.096,5.157-.283,7.103-.746,12.804-2.7,16.947-5.808,2.833-2.125,5.053-4.734,6.663-7.775v7.689c0,3.131,2.538,5.669,5.669,5.669h20.7c7.903,0,14.028-1.054,18.725-3.222,5.215-2.406,8.951-6.246,11.106-11.413,1.16-2.776,1.952-5.927,2.399-9.511v18.477c0,3.131,2.538,5.669,5.669,5.669h30.369c3.01-.031,5.981-1.229,8.153-3.287,3.36-3.183,3.74-7.13,3.747-8.706v-1.6c2.215,4.69,5.834,8.212,10.809,10.447,4.72,2.117,10.876,3.146,18.821,3.146h20.5c3.131,0,5.669-2.538,5.669-5.669V18.941c0-3.131-2.538-5.669-5.669-5.669Z" stroke="#ff4634" stroke-miterlimit="10" stroke-width="1.711"/>
        <path d="M314.407,99.605V18.605h30.232c.64.097,2.424.452,3.996,1.966,1.722,1.658,2.084,3.639,2.172,4.255v5.979h-18.5v20.1h14.1v12.4h-14.1v24.2h18.7v5.775c-.002.41-.053,2.767-1.976,4.59-1.749,1.658-3.841,1.73-4.314,1.734-10.103,0-20.207,0-30.31,0Z" fill="#f5f5f5"/>
        <path d="M225.936,99.861c-6.034.634-10.919.074-14.656-1.677-3.738-1.752-6.578-4.538-8.52-8.355-1.945-3.818-3.204-8.477-3.783-13.981l-3.146-29.935c-.585-5.57-.322-10.389.793-14.463,1.113-4.071,3.317-7.336,6.612-9.795,3.294-2.457,7.958-4.003,13.992-4.637,6.099-.641,11.032-.104,14.799,1.611,3.765,1.716,6.617,4.45,8.553,8.201,1.936,3.753,3.198,8.412,3.783,13.982l3.146,29.935c.578,5.504.313,10.324-.793,14.462-1.108,4.138-3.323,7.456-6.646,9.949-3.325,2.494-8.036,4.062-14.136,4.704ZM224.609,87.23c1.855-.195,3.166-.801,3.931-1.821.763-1.018,1.202-2.271,1.315-3.758.111-1.486.087-2.991-.073-4.517l-4.077-38.786c-.167-1.591-.459-3.084-.873-4.483-.416-1.397-1.104-2.515-2.062-3.353-.96-.838-2.369-1.159-4.224-.964-1.725.181-2.97.782-3.733,1.8-.765,1.019-1.205,2.256-1.32,3.708-.115,1.455-.089,2.976.078,4.567l4.077,38.786c.16,1.526.432,3.006.818,4.439.384,1.434,1.04,2.572,1.967,3.413.926.842,2.318,1.164,4.175.969Z" fill="#f5f5f5"/>
        <path d="M255.807,99.605V18.605h20.5c7.065,0,12.565.885,16.5,2.65,3.933,1.767,6.7,4.534,8.3,8.3,1.601,3.767,2.4,8.649,2.4,14.649v29.4c0,6.067-.8,11.018-2.4,14.85-1.6,3.835-4.35,6.65-8.25,8.45-3.899,1.8-9.35,2.7-16.35,2.7h-20.7ZM273.707,87.205h2.8c2.732,0,4.7-.399,5.9-1.199,1.199-.801,1.949-2,2.25-3.601.3-1.6.449-3.6.449-6v-35.3c0-2.4-.184-4.333-.55-5.8-.367-1.466-1.149-2.533-2.35-3.2-1.2-.666-3.135-1-5.8-1h-2.7v56.1Z" fill="#f5f5f5"/>
        <path d="M406.806,18.605v81h-20.5c-7.065,0-12.565-.885-16.5-2.65-3.933-1.767-6.7-4.534-8.3-8.3-1.601-3.767-2.4-8.649-2.4-14.649v-29.4c0-6.067.8-11.018,2.4-14.85,1.6-3.835,4.35-6.65,8.25-8.45,3.899-1.8,9.35-2.7,16.35-2.7h20.7ZM388.905,31.005h-2.8c-2.732,0-4.7.399-5.9,1.199-1.199.801-1.949,2-2.25,3.601-.3,1.6-.449,3.6-.449,6v35.3c0,2.4.185,4.333.55,5.8.367,1.466,1.149,2.533,2.35,3.2,1.2.666,3.135,1,5.8,1h2.7V31.005Z" fill="#f5f5f5"/>
        <path d="M96.21,99.605h30.31c.473-.005,2.565-.077,4.314-1.734,1.923-1.823,1.974-4.18,1.976-4.59v-5.775h-18.7v-5.932l-17.9,15.278v2.753Z" fill="#f5f5f5"/>
        <path d="M139.808,73.805c0,5.467.733,10.217,2.2,14.25,1.466,4.034,3.983,7.167,7.55,9.399,3.566,2.233,8.416,3.351,14.551,3.351,6.065,0,10.782-1.05,14.149-3.15,3.366-2.1,5.733-4.966,7.101-8.6,1.365-3.633,2.05-7.75,2.05-12.351v-7h-17.5v8.5c0,1.601-.101,3.168-.3,4.7-.2,1.534-.7,2.784-1.5,3.75-.801.968-2.135,1.45-4,1.45-1.734,0-3.051-.45-3.95-1.35s-1.5-2.101-1.8-3.601c-.301-1.5-.45-3.149-.45-4.95v-34.015l-18.101,15.45v14.166Z" fill="#f5f5f5"/>
        <path d="M182.069,23.568l-12.57,10.729c.066.293.123.592.159.908.165,1.468.25,3,.25,4.601v8.1h17.5v-7c0-4.6-.7-8.665-2.101-12.2-.774-1.955-1.862-3.661-3.239-5.137Z" fill="#f5f5f5"/>
        <path d="M162.507,8.72c-1.504-1.612-3.251-3.005-5.197-4.142-4.292-2.504-9.822-3.722-16.907-3.722-7.173,0-13.07,1.395-17.527,4.144-3.565,2.199-6.345,5.129-8.311,8.726-.005-.228-.016-.456-.048-.682-.236-1.658-1.052-4.842-3.852-7.539-1.922-1.849-4.437-3.087-7.083-3.487-.279-.042-.562-.063-.846-.063h-30.231c-3.131,0-5.669,2.539-5.669,5.669v18.164c-.449-3.559-1.247-6.684-2.414-9.431-2.169-5.105-5.935-8.892-11.196-11.256-4.72-2.118-10.876-3.147-18.821-3.147H13.903c-3.131,0-5.669,2.539-5.669,5.669v81c0,3.131,2.538,5.669,5.669,5.669h20.7c7.903,0,14.028-1.054,18.725-3.222,5.215-2.406,8.951-6.246,11.106-11.413,1.16-2.778,1.953-5.931,2.4-9.518v15.731c0,2.212,1.286,4.222,3.295,5.148.759.35,1.568.521,2.373.521,1.324,0,2.635-.464,3.682-1.356l17.899-15.278c1.262-1.077,1.988-2.653,1.988-4.313v-12.6h8.431c3.131,0,5.669-2.538,5.669-5.669v-12.4c0-3.131-2.538-5.669-5.669-5.669h-8.431v-8.761h12.831c.756,0,1.476-.151,2.135-.419-.4,2.669-.606,5.522-.606,8.55v15.034c0,2.212,1.286,4.222,3.295,5.148.759.35,1.568.521,2.373.521,1.324,0,2.635-.464,3.682-1.356l18.101-15.45,11.591-9.893,12.569-10.729c1.177-1.004,1.892-2.446,1.979-3.991s-.46-3.058-1.516-4.189Z" stroke="#ff4634" stroke-miterlimit="10" stroke-width="1.711"/>
        <path d="M14.195,88.288V7.288h20.5c7.065,0,12.565.885,16.5,2.65,3.933,1.767,6.7,4.534,8.3,8.3,1.6,3.767,2.4,8.649,2.4,14.649v29.4c0,6.067-.8,11.018-2.4,14.85-1.6,3.835-4.35,6.65-8.25,8.45-3.9,1.8-9.35,2.7-16.35,2.7H14.195ZM32.095,75.888h2.8c2.732,0,4.7-.399,5.9-1.199,1.2-.801,1.95-2,2.25-3.601.3-1.6.45-3.6.45-6V29.788c0-2.4-.184-4.333-.55-5.8-.367-1.466-1.15-2.533-2.35-3.2-1.2-.666-3.134-1-5.8-1h-2.7v56.1Z" fill="#f5f5f5"/>
        <path d="M104.795,51.988v-12.4h-14.1v-20.1h18.5v-5.979c-.088-.616-.45-2.597-2.172-4.255-1.573-1.514-3.356-1.869-3.996-1.966h-30.232v78.247l17.9-15.278v-18.269h14.1Z" fill="#f5f5f5"/>
        <path d="M154.744,9.138c-3.367-1.965-8.05-2.949-14.05-2.949-6.135,0-10.984,1.1-14.551,3.3-3.566,2.2-6.084,5.317-7.55,9.35-1.467,4.034-2.2,8.851-2.2,14.45v15.034l18.101-15.45v-4.085c0-1.666.115-3.25.35-4.75.233-1.5.8-2.75,1.7-3.75.9-1,2.283-1.5,4.15-1.5,1.933,0,3.3.484,4.1,1.45.627.758,1.053,1.676,1.291,2.741l12.57-10.729c-1.111-1.191-2.407-2.235-3.91-3.113Z" fill="#f5f5f5"/>
      </g>
      <g>
        <path d="M102.782,146.726c-.198-.119-.338-.271-.417-.453-.079-.182-.115-.364-.106-.547.008-.183.043-.298.106-.346.048-.016.155-.079.321-.19.167-.11.266-.183.298-.214.016,0,.036-.012.06-.036.024-.023.044-.043.06-.06v-.429c0-.889-.052-1.766-.154-2.631-.104-.864-.155-1.733-.155-2.606,0-.572.012-1.167.036-1.786.023-.619.127-1.19.31-1.714.182-.524.472-.953.869-1.286.396-.333.968-.5,1.714-.5h.452c.175,0,.337.021.488.06.15.04.281.111.393.214.111.104.167.25.167.44,0,.286-.067.473-.202.56-.136.088-.306.144-.512.167-.207.023-.421.056-.644.096-.223.039-.413.162-.571.369-.032.031-.071.115-.119.25s-.071.226-.071.273c-.032.111-.063.262-.095.452-.032.19-.06.381-.084.571-.023.19-.048.361-.071.512-.023.151-.035.234-.035.25v.179c0,.104-.005.227-.013.369s-.012.29-.012.44v1.298c0,.286.008.567.024.846.016.277.039.559.071.845.031.286.071.604.119.952h.19l3.214-1.904c.222-.048.421-.127.596-.238.174-.111.372-.167.595-.167s.452.056.69.167.357.286.357.523c0,.175-.04.302-.119.381-.08.08-.143.19-.19.334-.063.016-.183.063-.357.143-.175.08-.294.135-.357.167-.127.079-.329.202-.606.369-.278.166-.568.341-.869.523-.302.183-.58.354-.833.512-.255.159-.421.262-.5.31-.111.08-.247.175-.405.286-.159.111-.313.226-.464.345-.151.119-.338.267-.56.44v.238l.619,2.023c-.017.048-.021.1-.013.155s.044.1.107.131l1.119,3.404c.079.286.02.524-.179.715s-.425.285-.679.285c-.285,0-.563-.075-.833-.226-.271-.15-.444-.377-.523-.679l-1.31-4.31-.096-.19c-.35.063-.623.036-.821-.083Z" fill="#f5f5f5"/>
        <path d="M109.628,148.309l.881-6.119c.031-.206.123-.357.273-.452.151-.096.322-.143.513-.143.349,0,.626.099.833.297.206.199.381.44.523.727h.024c.19,0,.36-.036.512-.107.15-.071.337-.106.56-.106.508,0,.94.158,1.298.476.356.318.646.702.868,1.155.223.452.385.94.488,1.464s.155.984.155,1.381c0,.477-.123,1.009-.369,1.596s-.571,1.143-.977,1.666c-.404.524-.861.961-1.369,1.31-.508.35-1.023.524-1.547.524-.477,0-.886-.111-1.227-.334-.342-.222-.619-.504-.833-.845-.215-.342-.369-.727-.465-1.155-.095-.429-.143-.849-.143-1.262v-.071ZM111.628,148.451c.031.159.063.342.095.548.032.206.08.393.144.56.062.167.154.294.273.381.119.088.289.092.512.012.206-.19.429-.404.667-.643s.464-.492.679-.762c.214-.27.393-.556.535-.857.144-.301.215-.619.215-.952.063-.54.023-1.036-.119-1.488s-.346-.777-.607-.977c-.262-.198-.56-.222-.893-.071-.333.151-.667.56-1,1.227-.19.413-.321.893-.393,1.44-.072.548-.107,1.052-.107,1.512v.071Z" fill="#f5f5f5"/>
        <path d="M118.675,150.928c-.032-.571-.083-1.337-.155-2.298-.071-.96-.15-1.956-.237-2.988-.088-1.031-.179-2.008-.274-2.928-.095-.921-.175-1.635-.238-2.144,0-.206.096-.341.286-.404s.373-.096.548-.096c.222,0,.456.063.702.19.246.128.4.302.464.524,0,.063.008.179.024.345.016.167.027.338.035.512.008.175.021.346.036.513.016.166.023.281.023.345v.346c0,.039.008.083.024.131.016.047.039.127.071.238.031-.032.067-.072.107-.119.039-.048.066-.08.083-.096.254-.365.5-.687.738-.964.237-.278.483-.54.737-.786s.536-.508.846-.785c.31-.278.67-.6,1.083-.965.096-.079.167-.139.215-.179.048-.039.091-.071.131-.095.039-.024.083-.04.131-.048s.11-.012.19-.012c.27,0,.544.092.821.273.277.183.417.433.417.75,0,.111-.04.227-.119.346-.08.119-.175.23-.286.333-.111.104-.226.194-.345.273-.119.08-.227.136-.321.167-.413.365-.85.782-1.31,1.25-.461.469-.89.973-1.286,1.512-.396.54-.723,1.104-.976,1.69-.255.588-.382,1.175-.382,1.762,0,.54.04,1.072.119,1.596s.119,1.056.119,1.595v.834c-.127.127-.238.23-.333.31-.096.079-.23.119-.405.119-.27,0-.531-.115-.785-.346-.254-.229-.421-.464-.5-.702Z" fill="#f5f5f5"/>
        <path d="M136.056,150.285c0-.667.016-1.317.048-1.953.031-.635.047-1.285.047-1.952-.047-1.81-.063-3.583-.047-5.321.016-1.738-.064-3.52-.238-5.345,0-.302.071-.504.214-.607s.357-.155.643-.155c.365,0,.679.107.941.322.262.214.4.512.416.893-.032,2.254-.004,4.488.083,6.702.088,2.214.132,4.456.132,6.727v1.833c-.096.127-.23.254-.405.381s-.35.175-.523.143c-.461-.079-.794-.266-1-.56-.207-.293-.31-.662-.31-1.106Z" fill="#f5f5f5"/>
        <path d="M139.293,133.689c0-.11.092-.21.274-.298.182-.087.321-.131.416-.131.238,0,.504.068.798.203s.44.337.44.606-.035.453-.107.548c-.071.096-.242.143-.512.143-.285,0-.575-.095-.869-.285s-.44-.452-.44-.786ZM140.627,151.047c-.159-1.587-.294-2.944-.405-4.071s-.206-2.071-.285-2.834c-.08-.762-.147-1.369-.203-1.821s-.099-.793-.131-1.023c-.031-.23-.056-.385-.071-.465-.016-.079-.023-.126-.023-.143v-.095c0-.175.075-.321.226-.44.151-.119.306-.179.465-.179.238,0,.496.04.773.119s.465.246.56.5c.143.777.242,1.563.298,2.356.056.794.103,1.584.143,2.369.04.786.096,1.576.167,2.369.071.794.202,1.58.393,2.357,0,.032.012.095.036.19.023.095.047.198.071.31.023.111.043.214.06.31.016.095.023.158.023.19v.048c0,.016.008.031.024.047,0,.19-.088.381-.263.571s-.356.271-.547.238c-.048-.016-.163-.043-.346-.083-.183-.039-.306-.075-.369-.107-.048-.016-.111-.051-.19-.107-.079-.055-.154-.114-.226-.178-.072-.063-.132-.135-.179-.215-.048-.079-.048-.15,0-.214Z" fill="#f5f5f5"/>
        <path d="M147.222,151.047c0-.079.004-.151.012-.215.008-.062.044-.127.107-.19.19-.237.405-.487.643-.75.238-.262.469-.523.69-.785.223-.262.429-.536.619-.821.19-.286.35-.572.477-.857v-.143l-3.119.643h-.357c-.222,0-.496-.016-.821-.048-.325-.031-.643-.099-.952-.202s-.571-.25-.786-.44c-.214-.19-.321-.444-.321-.762.016-.365.206-.77.571-1.215.365-.444.794-.881,1.286-1.31s.988-.825,1.488-1.19c.5-.364.9-.65,1.202-.856.333-.19.729-.346,1.19-.465.46-.119.881-.179,1.262-.179.317,0,.596.06.834.179.237.119.356.354.356.702,0,.144-.012.278-.035.405-.024.127-.123.214-.298.262-.508-.048-.984-.012-1.429.107s-.865.298-1.262.535c-.397.238-.771.521-1.119.846-.35.325-.69.663-1.023,1.012-.096.111-.215.266-.357.464-.143.199-.214.314-.214.346v.023c.412,0,.821-.039,1.226-.119.405-.079.81-.162,1.215-.25.404-.087.81-.17,1.214-.25.404-.079.821-.118,1.25-.118.158,0,.333.012.523.035.19.024.369.075.536.155.167.079.301.187.404.321s.155.306.155.512c0,.302-.075.592-.227.869-.15.277-.373.611-.666,1-.294.389-.667.861-1.119,1.416-.453.557-.988,1.271-1.607,2.144-.032.047-.107.079-.227.095s-.218.024-.297.024c-.223,0-.449-.096-.679-.286-.23-.19-.346-.404-.346-.643Z" fill="#f5f5f5"/>
        <path d="M155.722,144.999c-.223,0-.421.056-.595.167-.175.111-.381.166-.619.166-.032,0-.115-.003-.25-.012-.135-.008-.219-.012-.25-.012-.063-.079-.135-.143-.215-.19-.079-.048-.158-.099-.237-.154-.08-.056-.147-.123-.203-.203-.056-.079-.083-.19-.083-.333,0-.238.096-.433.286-.583.19-.151.412-.282.666-.394.254-.11.513-.214.774-.31.262-.095.472-.206.631-.333v-1.048c0-1.174-.056-2.353-.167-3.535s-.167-2.354-.167-3.512c0-.317.08-.524.238-.619.159-.096.373-.144.644-.144.316,0,.551.092.702.274.15.183.258.404.321.666.063.263.095.54.095.834s.008.544.024.75c0,.206.016.571.048,1.095.031.524.062,1.08.095,1.667.031.587.063,1.143.096,1.667.031.523.055.889.071,1.095.063-.016.187-.06.369-.131.182-.071.377-.143.583-.214.206-.072.4-.14.583-.203.183-.062.313-.11.394-.143.412-.175.841-.369,1.285-.583.444-.215.896-.321,1.357-.321.317,0,.56.106.726.321.167.214.25.464.25.75,0,.206-.079.356-.237.452-.159.095-.326.183-.5.262l-4.334,1.619c-.047.032-.095.06-.143.083-.048.024-.095.06-.143.107v.762c0,.556.012,1.131.035,1.727.024.595.075,1.171.155,1.726.079.477.167.945.262,1.405.096.461.143.929.143,1.404,0,.144-.047.334-.143.572-.095.237-.246.356-.452.356-.429,0-.778-.127-1.048-.381-.271-.254-.421-.595-.452-1.023-.08-.825-.163-1.73-.25-2.715-.088-.983-.171-1.928-.25-2.833h-.096Z" fill="#f5f5f5"/>
        <path d="M173.889,145.189c-.032.286-.067.509-.107.667s-.107.302-.202.429c-.096.127-.23.258-.405.393s-.412.325-.714.571-.675.567-1.119.964c-.444.397-.984.913-1.619,1.548-.254.238-.516.484-.785.738-.271.254-.552.48-.846.679s-.6.361-.916.488c-.318.127-.651.19-1,.19-.683,0-1.183-.23-1.5-.69-.318-.461-.477-.992-.477-1.596,0-.396.012-.729.036-1,.023-.27.083-.619.178-1.048-.175-.158-.325-.297-.452-.416s-.19-.282-.19-.488c0-.19.044-.317.131-.381s.19-.107.31-.131c.119-.024.234-.052.346-.084.11-.031.19-.095.237-.19.032-.095.092-.27.179-.523s.179-.52.274-.798c.095-.277.187-.539.273-.785s.146-.417.179-.512c.11-.271.234-.544.369-.822.135-.277.293-.527.476-.75.183-.222.397-.404.644-.547.246-.144.535-.215.869-.215.19,0,.424.088.702.262.277.175.543.386.798.631.253.247.468.505.643.774s.262.5.262.69c0,.238-.056.456-.167.654-.11.199-.25.381-.416.548-.167.167-.346.321-.536.465-.19.143-.365.277-.523.404-.017,0-.048.016-.096.048-.047.032-.087.056-.119.071-.016.016-.052.052-.106.107l-.179.179c-.063.063-.123.127-.179.19s-.092.103-.107.118c-.048.048-.139.124-.273.227-.135.104-.282.214-.44.333-.159.119-.306.23-.44.334-.136.104-.227.171-.274.202l-.095.19c-.032.063-.06.202-.083.417-.024.214-.052.456-.084.726-.032.271-.06.544-.083.821-.024.278-.036.505-.036.679,0,.017.008.032.024.048.031.032.055.048.071.048.127,0,.246-.056.357-.167.11-.11.229-.19.356-.238l3.81-3.523.977-1.5c.079-.111.233-.234.464-.369s.465-.206.702-.214c.238-.008.448.067.632.226.182.159.273.469.273.929ZM168.651,143.332c.079-.062.111-.158.096-.285-.017-.127-.06-.238-.131-.333-.072-.096-.163-.155-.274-.179-.111-.024-.214.035-.31.179-.048.063-.131.19-.25.381s-.238.385-.356.583c-.119.198-.219.369-.298.512-.08.143-.096.199-.048.167l1.571-1.024Z" fill="#f5f5f5"/>
        <path d="M181.317,151.142c-.223-.317-.408-.758-.56-1.321-.15-.563-.294-1.158-.429-1.785s-.258-1.238-.368-1.834c-.111-.595-.227-1.071-.346-1.429-.119-.356-.25-.559-.393-.606-.144-.048-.31.166-.5.643l-2.071,6.381c-.08.223-.175.377-.286.464-.111.088-.294.132-.548.132-.127,0-.262-.021-.404-.06-.143-.04-.278-.1-.405-.179s-.234-.175-.321-.286c-.087-.11-.139-.238-.154-.381.048-.19.091-.539.131-1.048.039-.508.067-1.095.083-1.762.016-.666.027-1.369.036-2.106.008-.738.008-1.429,0-2.072-.009-.643-.021-1.198-.036-1.666-.016-.469-.032-.774-.048-.917,0-.158.004-.321.013-.488.008-.166.031-.321.071-.464.039-.143.11-.258.214-.346.104-.087.266-.131.488-.131.302,0,.583.128.846.381.262.255.393.524.393.81,0,.413-.021.821-.06,1.227-.04.404-.06.813-.06,1.226v.644c0,.175.031.389.095.643.048-.127.127-.349.238-.667.111-.317.234-.65.369-1,.135-.349.258-.678.369-.987s.19-.528.238-.655c.11-.317.277-.623.5-.917.222-.293.516-.456.881-.487.238-.016.456.047.654.19.198.143.369.329.513.56.143.229.262.468.356.714.096.246.167.456.215.631l1.285,5.929,1,2.714c.016.017.024.06.024.131v.155c0,.19-.044.377-.131.56-.088.183-.242.273-.465.273-.27,0-.548-.075-.833-.226-.286-.151-.484-.346-.596-.584Z" fill="#f5f5f5"/>
        <path d="M194.341,145.189c-.032.286-.067.509-.107.667s-.107.302-.202.429c-.096.127-.23.258-.405.393s-.412.325-.714.571-.675.567-1.119.964c-.444.397-.984.913-1.619,1.548-.254.238-.516.484-.785.738-.271.254-.552.48-.846.679s-.6.361-.916.488c-.318.127-.651.19-1,.19-.683,0-1.183-.23-1.5-.69-.318-.461-.477-.992-.477-1.596,0-.396.012-.729.036-1,.023-.27.083-.619.178-1.048-.175-.158-.325-.297-.452-.416s-.19-.282-.19-.488c0-.19.044-.317.131-.381s.19-.107.31-.131c.119-.024.234-.052.346-.084.11-.031.19-.095.237-.19.032-.095.092-.27.179-.523s.179-.52.274-.798c.095-.277.187-.539.273-.785s.146-.417.179-.512c.11-.271.234-.544.369-.822.135-.277.293-.527.476-.75.183-.222.397-.404.644-.547.246-.144.535-.215.869-.215.19,0,.424.088.702.262.277.175.543.386.798.631.253.247.468.505.643.774s.262.5.262.69c0,.238-.056.456-.167.654-.11.199-.25.381-.416.548-.167.167-.346.321-.536.465-.19.143-.365.277-.523.404-.017,0-.048.016-.096.048-.047.032-.087.056-.119.071-.016.016-.052.052-.106.107l-.179.179c-.063.063-.123.127-.179.19s-.092.103-.107.118c-.048.048-.139.124-.273.227-.135.104-.282.214-.44.333-.159.119-.306.23-.44.334-.136.104-.227.171-.274.202l-.095.19c-.032.063-.06.202-.083.417-.024.214-.052.456-.084.726-.032.271-.06.544-.083.821-.024.278-.036.505-.036.679,0,.017.008.032.024.048.031.032.055.048.071.048.127,0,.246-.056.357-.167.11-.11.229-.19.356-.238l3.81-3.523.977-1.5c.079-.111.233-.234.464-.369s.465-.206.702-.214c.238-.008.448.067.632.226.182.159.273.469.273.929ZM189.103,143.332c.079-.062.111-.158.096-.285-.017-.127-.06-.238-.131-.333-.072-.096-.163-.155-.274-.179-.111-.024-.214.035-.31.179-.048.063-.131.19-.25.381s-.238.385-.356.583c-.119.198-.219.369-.298.512-.08.143-.096.199-.048.167l1.571-1.024Z" fill="#f5f5f5"/>
        <path d="M196.055,150.928c-.032-.571-.083-1.337-.155-2.298-.071-.96-.15-1.956-.237-2.988-.088-1.031-.179-2.008-.274-2.928-.095-.921-.175-1.635-.238-2.144,0-.206.096-.341.286-.404s.373-.096.548-.096c.222,0,.456.063.702.19.246.128.4.302.464.524,0,.063.008.179.024.345.016.167.027.338.035.512.008.175.021.346.036.513.016.166.023.281.023.345v.346c0,.039.008.083.024.131.016.047.039.127.071.238.031-.032.067-.072.107-.119.039-.048.066-.08.083-.096.254-.365.5-.687.738-.964.237-.278.483-.54.737-.786s.536-.508.846-.785c.31-.278.67-.6,1.083-.965.096-.079.167-.139.215-.179.048-.039.091-.071.131-.095.039-.024.083-.04.131-.048s.11-.012.19-.012c.27,0,.544.092.821.273.277.183.417.433.417.75,0,.111-.04.227-.119.346-.08.119-.175.23-.286.333-.111.104-.226.194-.345.273-.119.08-.227.136-.321.167-.413.365-.85.782-1.31,1.25-.461.469-.89.973-1.286,1.512-.396.54-.723,1.104-.976,1.69-.255.588-.382,1.175-.382,1.762,0,.54.04,1.072.119,1.596s.119,1.056.119,1.595v.834c-.127.127-.238.23-.333.31-.096.079-.23.119-.405.119-.27,0-.531-.115-.785-.346-.254-.229-.421-.464-.5-.702Z" fill="#f5f5f5"/>
        <path d="M207.078,151.047c0-.079.004-.151.012-.215.008-.062.044-.127.107-.19.19-.237.405-.487.643-.75.238-.262.469-.523.69-.785.223-.262.429-.536.619-.821.19-.286.35-.572.477-.857v-.143l-3.119.643h-.357c-.222,0-.496-.016-.821-.048-.325-.031-.643-.099-.952-.202s-.571-.25-.786-.44c-.214-.19-.321-.444-.321-.762.016-.365.206-.77.571-1.215.365-.444.794-.881,1.286-1.31s.988-.825,1.488-1.19c.5-.364.9-.65,1.202-.856.333-.19.729-.346,1.19-.465.46-.119.881-.179,1.262-.179.317,0,.596.06.834.179.237.119.356.354.356.702,0,.144-.012.278-.035.405-.024.127-.123.214-.298.262-.508-.048-.984-.012-1.429.107s-.865.298-1.262.535c-.397.238-.771.521-1.119.846-.35.325-.69.663-1.023,1.012-.096.111-.215.266-.357.464-.143.199-.214.314-.214.346v.023c.412,0,.821-.039,1.226-.119.405-.079.81-.162,1.215-.25.404-.087.81-.17,1.214-.25.404-.079.821-.118,1.25-.118.158,0,.333.012.523.035.19.024.369.075.536.155.167.079.301.187.404.321s.155.306.155.512c0,.302-.075.592-.227.869-.15.277-.373.611-.666,1-.294.389-.667.861-1.119,1.416-.453.557-.988,1.271-1.607,2.144-.032.047-.107.079-.227.095s-.218.024-.297.024c-.223,0-.449-.096-.679-.286-.23-.19-.346-.404-.346-.643Z" fill="#f5f5f5"/>
        <path d="M225.865,150.809c-.096-.365-.373-1.298-.834-2.798-.46-1.5-1.104-3.67-1.928-6.512,0-.031-.013-.099-.036-.202s-.036-.171-.036-.202c.032-.19.175-.306.429-.346.254-.039.444-.051.571-.035.35.047.607.158.774.333.166.175.305.429.416.762l1.381,4.548.096.119c.19-.317.302-.683.333-1.096.032-.412.075-.813.131-1.202s.163-.742.322-1.06c.158-.317.46-.539.904-.667.096,0,.198.021.31.06.111.04.218.096.321.167s.194.151.274.238c.079.087.134.179.166.273l1.286,4.119.262.357c.063-.286.146-.746.25-1.381.103-.635.206-1.298.31-1.988.103-.69.194-1.333.273-1.929s.135-1.004.167-1.227c0-.031.004-.087.012-.166s.012-.135.012-.167c.127-.143.302-.25.524-.321.222-.071.42-.091.595-.06.063.016.146.052.25.107s.202.127.298.214c.095.088.17.179.227.274.055.095.083.183.083.262l-1.357,9.762c-.016.095-.071.171-.166.226-.096.057-.203.104-.322.144-.119.039-.237.063-.356.071s-.211.012-.274.012c-.381-.143-.71-.377-.988-.702-.277-.325-.523-.687-.737-1.084-.215-.396-.405-.805-.571-1.226-.167-.421-.346-.798-.536-1.131l-.096-.024c-.11.111-.202.357-.273.738s-.131.786-.179,1.215c-.048.428-.087.813-.119,1.154-.031.342-.047.528-.047.56-.032.223-.179.396-.44.523-.263.128-.497.175-.703.144-.223-.032-.416-.139-.583-.321s-.298-.361-.393-.536Z" fill="#f5f5f5"/>
        <path d="M235.483,140.309c.032-.952-.008-1.904-.118-2.857-.111-.952-.167-1.896-.167-2.833,0-.301.087-.488.262-.56s.373-.107.596-.107c.317,0,.579.088.785.263s.325.42.357.737c.143,1.73.226,3.44.25,5.131.023,1.69.139,3.401.345,5.132.477-.905.969-1.651,1.477-2.238s.996-.977,1.464-1.167c.469-.19.896-.154,1.286.107.389.262.702.777.94,1.548.238.77.381,1.817.429,3.143s-.032,2.973-.238,4.94c-.111,0-.246.004-.404.012-.159.008-.314.004-.465-.012-.151-.016-.282-.048-.393-.096-.111-.048-.175-.135-.19-.262.127-1.19.198-2.19.214-3s-.008-1.477-.071-2-.151-.925-.262-1.202c-.111-.277-.23-.48-.357-.607s-.25-.194-.369-.202-.21-.004-.273.012c-.35.127-.679.437-.988.929s-.575,1.063-.798,1.714c-.222.651-.385,1.338-.487,2.06-.104.723-.132,1.369-.084,1.94-.016.128-.032.255-.048.381-.016.128-.043.247-.083.357-.04.111-.104.202-.19.274-.087.071-.219.106-.393.106-.334,0-.6-.06-.798-.179s-.35-.273-.452-.464c-.104-.19-.167-.413-.19-.667-.024-.253-.021-.516.012-.785l-.596-9.548Z" fill="#f5f5f5"/>
        <path d="M244.436,148.309l.881-6.119c.031-.206.123-.357.273-.452.151-.096.322-.143.513-.143.349,0,.626.099.833.297.206.199.381.44.523.727h.024c.19,0,.36-.036.512-.107.15-.071.337-.106.56-.106.508,0,.94.158,1.298.476.356.318.646.702.868,1.155.223.452.385.94.488,1.464s.155.984.155,1.381c0,.477-.123,1.009-.369,1.596s-.571,1.143-.977,1.666c-.404.524-.861.961-1.369,1.31-.508.35-1.023.524-1.547.524-.477,0-.886-.111-1.227-.334-.342-.222-.619-.504-.833-.845-.215-.342-.369-.727-.465-1.155-.095-.429-.143-.849-.143-1.262v-.071ZM246.436,148.451c.031.159.063.342.095.548.032.206.08.393.144.56.062.167.154.294.273.381.119.088.289.092.512.012.206-.19.429-.404.667-.643s.464-.492.679-.762c.214-.27.393-.556.535-.857.144-.301.215-.619.215-.952.063-.54.023-1.036-.119-1.488s-.346-.777-.607-.977c-.262-.198-.56-.222-.893-.071-.333.151-.667.56-1,1.227-.19.413-.321.893-.393,1.44-.072.548-.107,1.052-.107,1.512v.071Z" fill="#f5f5f5"/>
        <path d="M262.365,150.285c0-.667.016-1.317.048-1.953.031-.635.047-1.285.047-1.952-.047-1.81-.063-3.583-.047-5.321.016-1.738-.064-3.52-.238-5.345,0-.302.071-.504.214-.607s.357-.155.643-.155c.365,0,.679.107.941.322.262.214.4.512.416.893-.032,2.254-.004,4.488.083,6.702.088,2.214.132,4.456.132,6.727v1.833c-.096.127-.23.254-.405.381s-.35.175-.523.143c-.461-.079-.794-.266-1-.56-.207-.293-.31-.662-.31-1.106Z" fill="#f5f5f5"/>
        <path d="M265.602,133.689c0-.11.092-.21.274-.298.182-.087.321-.131.416-.131.238,0,.504.068.798.203s.44.337.44.606-.035.453-.107.548c-.071.096-.242.143-.512.143-.285,0-.575-.095-.869-.285s-.44-.452-.44-.786ZM266.936,151.047c-.159-1.587-.294-2.944-.405-4.071s-.206-2.071-.285-2.834c-.08-.762-.147-1.369-.203-1.821s-.099-.793-.131-1.023c-.031-.23-.056-.385-.071-.465-.016-.079-.023-.126-.023-.143v-.095c0-.175.075-.321.226-.44.151-.119.306-.179.465-.179.238,0,.496.04.773.119s.465.246.56.5c.143.777.242,1.563.298,2.356.056.794.103,1.584.143,2.369.04.786.096,1.576.167,2.369.071.794.202,1.58.393,2.357,0,.032.012.095.036.19.023.095.047.198.071.31.023.111.043.214.06.31.016.095.023.158.023.19v.048c0,.016.008.031.024.047,0,.19-.088.381-.263.571s-.356.271-.547.238c-.048-.016-.163-.043-.346-.083-.183-.039-.306-.075-.369-.107-.048-.016-.111-.051-.19-.107-.079-.055-.154-.114-.226-.178-.072-.063-.132-.135-.179-.215-.048-.079-.048-.15,0-.214Z" fill="#f5f5f5"/>
        <path d="M273.531,151.047c0-.079.004-.151.012-.215.008-.062.044-.127.107-.19.19-.237.405-.487.643-.75.238-.262.469-.523.69-.785.223-.262.429-.536.619-.821.19-.286.35-.572.477-.857v-.143l-3.119.643h-.357c-.222,0-.496-.016-.821-.048-.325-.031-.643-.099-.952-.202s-.571-.25-.786-.44c-.214-.19-.321-.444-.321-.762.016-.365.206-.77.571-1.215.365-.444.794-.881,1.286-1.31s.988-.825,1.488-1.19c.5-.364.9-.65,1.202-.856.333-.19.729-.346,1.19-.465.46-.119.881-.179,1.262-.179.317,0,.596.06.834.179.237.119.356.354.356.702,0,.144-.012.278-.035.405-.024.127-.123.214-.298.262-.508-.048-.984-.012-1.429.107s-.865.298-1.262.535c-.397.238-.771.521-1.119.846-.35.325-.69.663-1.023,1.012-.096.111-.215.266-.357.464-.143.199-.214.314-.214.346v.023c.412,0,.821-.039,1.226-.119.405-.079.81-.162,1.215-.25.404-.087.81-.17,1.214-.25.404-.079.821-.118,1.25-.118.158,0,.333.012.523.035.19.024.369.075.536.155.167.079.301.187.404.321s.155.306.155.512c0,.302-.075.592-.227.869-.15.277-.373.611-.666,1-.294.389-.667.861-1.119,1.416-.453.557-.988,1.271-1.607,2.144-.032.047-.107.079-.227.095s-.218.024-.297.024c-.223,0-.449-.096-.679-.286-.23-.19-.346-.404-.346-.643Z" fill="#f5f5f5"/>
        <path d="M282.031,144.999c-.223,0-.421.056-.595.167-.175.111-.381.166-.619.166-.032,0-.115-.003-.25-.012-.135-.008-.219-.012-.25-.012-.063-.079-.135-.143-.215-.19-.079-.048-.158-.099-.237-.154-.08-.056-.147-.123-.203-.203-.056-.079-.083-.19-.083-.333,0-.238.096-.433.286-.583.19-.151.412-.282.666-.394.254-.11.513-.214.774-.31.262-.095.472-.206.631-.333v-1.048c0-1.174-.056-2.353-.167-3.535s-.167-2.354-.167-3.512c0-.317.08-.524.238-.619.159-.096.373-.144.644-.144.316,0,.551.092.702.274.15.183.258.404.321.666.063.263.095.54.095.834s.008.544.024.75c0,.206.016.571.048,1.095.031.524.062,1.08.095,1.667.031.587.063,1.143.096,1.667.031.523.055.889.071,1.095.063-.016.187-.06.369-.131.182-.071.377-.143.583-.214.206-.072.4-.14.583-.203.183-.062.313-.11.394-.143.412-.175.841-.369,1.285-.583.444-.215.896-.321,1.357-.321.317,0,.56.106.726.321.167.214.25.464.25.75,0,.206-.079.356-.237.452-.159.095-.326.183-.5.262l-4.334,1.619c-.047.032-.095.06-.143.083-.048.024-.095.06-.143.107v.762c0,.556.012,1.131.035,1.727.024.595.075,1.171.155,1.726.079.477.167.945.262,1.405.096.461.143.929.143,1.404,0,.144-.047.334-.143.572-.095.237-.246.356-.452.356-.429,0-.778-.127-1.048-.381-.271-.254-.421-.595-.452-1.023-.08-.825-.163-1.73-.25-2.715-.088-.983-.171-1.928-.25-2.833h-.096Z" fill="#f5f5f5"/>
        <path d="M300.198,145.189c-.032.286-.067.509-.107.667s-.107.302-.202.429c-.096.127-.23.258-.405.393s-.412.325-.714.571-.675.567-1.119.964c-.444.397-.984.913-1.619,1.548-.254.238-.516.484-.785.738-.271.254-.552.48-.846.679s-.6.361-.916.488c-.318.127-.651.19-1,.19-.683,0-1.183-.23-1.5-.69-.318-.461-.477-.992-.477-1.596,0-.396.012-.729.036-1,.023-.27.083-.619.178-1.048-.175-.158-.325-.297-.452-.416s-.19-.282-.19-.488c0-.19.044-.317.131-.381s.19-.107.31-.131c.119-.024.234-.052.346-.084.11-.031.19-.095.237-.19.032-.095.092-.27.179-.523s.179-.52.274-.798c.095-.277.187-.539.273-.785s.146-.417.179-.512c.11-.271.234-.544.369-.822.135-.277.293-.527.476-.75.183-.222.397-.404.644-.547.246-.144.535-.215.869-.215.19,0,.424.088.702.262.277.175.543.386.798.631.253.247.468.505.643.774s.262.5.262.69c0,.238-.056.456-.167.654-.11.199-.25.381-.416.548-.167.167-.346.321-.536.465-.19.143-.365.277-.523.404-.017,0-.048.016-.096.048-.047.032-.087.056-.119.071-.016.016-.052.052-.106.107l-.179.179c-.063.063-.123.127-.179.19s-.092.103-.107.118c-.048.048-.139.124-.273.227-.135.104-.282.214-.44.333-.159.119-.306.23-.44.334-.136.104-.227.171-.274.202l-.095.19c-.032.063-.06.202-.083.417-.024.214-.052.456-.084.726-.032.271-.06.544-.083.821-.024.278-.036.505-.036.679,0,.017.008.032.024.048.031.032.055.048.071.048.127,0,.246-.056.357-.167.11-.11.229-.19.356-.238l3.81-3.523.977-1.5c.079-.111.233-.234.464-.369s.465-.206.702-.214c.238-.008.448.067.632.226.182.159.273.469.273.929ZM294.959,143.332c.079-.062.111-.158.096-.285-.017-.127-.06-.238-.131-.333-.072-.096-.163-.155-.274-.179-.111-.024-.214.035-.31.179-.048.063-.131.19-.25.381s-.238.385-.356.583c-.119.198-.219.369-.298.512-.08.143-.096.199-.048.167l1.571-1.024Z" fill="#f5f5f5"/>
        <path d="M307.625,151.142c-.223-.317-.408-.758-.56-1.321-.15-.563-.294-1.158-.429-1.785s-.258-1.238-.368-1.834c-.111-.595-.227-1.071-.346-1.429-.119-.356-.25-.559-.393-.606-.144-.048-.31.166-.5.643l-2.071,6.381c-.08.223-.175.377-.286.464-.111.088-.294.132-.548.132-.127,0-.262-.021-.404-.06-.143-.04-.278-.1-.405-.179s-.234-.175-.321-.286c-.087-.11-.139-.238-.154-.381.048-.19.091-.539.131-1.048.039-.508.067-1.095.083-1.762.016-.666.027-1.369.036-2.106.008-.738.008-1.429,0-2.072-.009-.643-.021-1.198-.036-1.666-.016-.469-.032-.774-.048-.917,0-.158.004-.321.013-.488.008-.166.031-.321.071-.464.039-.143.11-.258.214-.346.104-.087.266-.131.488-.131.302,0,.583.128.846.381.262.255.393.524.393.81,0,.413-.021.821-.06,1.227-.04.404-.06.813-.06,1.226v.644c0,.175.031.389.095.643.048-.127.127-.349.238-.667.111-.317.234-.65.369-1,.135-.349.258-.678.369-.987s.19-.528.238-.655c.11-.317.277-.623.5-.917.222-.293.516-.456.881-.487.238-.016.456.047.654.19.198.143.369.329.513.56.143.229.262.468.356.714.096.246.167.456.215.631l1.285,5.929,1,2.714c.016.017.024.06.024.131v.155c0,.19-.044.377-.131.56-.088.183-.242.273-.465.273-.27,0-.548-.075-.833-.226-.286-.151-.484-.346-.596-.584Z" fill="#f5f5f5"/>
      </g>
    </g>
  </g>
</svg>