<?xml version="1.0" encoding="UTF-8"?>
<svg id="Layer_2" data-name="Layer 2" xmlns="http://www.w3.org/2000/svg" viewBox="0 0 412.184 160.338">
  <g id="Layer_1-2" data-name="Layer 1">
    <g>
      <path d="M154.272,16.869c-1.504-1.612-3.251-3.005-5.197-4.142-4.292-2.504-9.822-3.722-16.907-3.722-7.173,0-13.07,1.395-17.527,4.144-3.565,2.199-6.345,5.129-8.311,8.726-.005-.228-.016-.456-.048-.682-.236-1.658-1.052-4.842-3.852-7.539-1.922-1.849-4.437-3.087-7.083-3.487-.279-.042-.562-.063-.846-.063h-30.231c-3.131,0-5.669,2.539-5.669,5.669v18.164c-.449-3.559-1.247-6.684-2.414-9.43-2.169-5.105-5.935-8.892-11.196-11.256-4.72-2.118-10.876-3.147-18.821-3.147H5.669c-3.131,0-5.669,2.539-5.669,5.669v81c0,3.131,2.538,5.669,5.669,5.669h20.7c7.903,0,14.028-1.054,18.725-3.222,5.215-2.406,8.951-6.246,11.106-11.413,1.16-2.778,1.953-5.931,2.4-9.518v15.731c0,2.212,1.286,4.222,3.295,5.148.759.35,1.568.521,2.373.521,1.324,0,2.635-.464,3.682-1.356l17.899-15.278c1.262-1.077,1.988-2.653,1.988-4.312v-12.6h8.431c3.131,0,5.669-2.538,5.669-5.669v-12.4c0-3.131-2.538-5.669-5.669-5.669h-8.431v-8.761h12.831c.756,0,1.476-.151,2.135-.419-.4,2.669-.606,5.522-.606,8.55v15.034c0,2.212,1.286,4.222,3.295,5.148.759.35,1.568.521,2.373.521,1.324,0,2.635-.464,3.682-1.356l18.101-15.45,11.591-9.893,12.569-10.729c1.177-1.004,1.892-2.446,1.979-3.991s-.46-3.058-1.516-4.189Z"/>
      <path d="M149.85,22.389c-1.867,0-3.25.5-4.15,1.5s-1.467,2.25-1.7,3.75c-.234,1.5-.35,3.084-.35,4.75v4.085l11.591-9.893c-.238-1.065-.664-1.983-1.291-2.741-.8-.966-2.167-1.45-4.1-1.45Z" fill="none"/>
      <g>
        <path d="M398.281,21.421h-20.7c-7.903,0-14.028,1.054-18.725,3.222-5.066,2.337-8.724,6.04-10.905,10.985v-2.317c0-.268-.019-.535-.057-.801-.236-1.658-1.051-4.842-3.852-7.538-1.921-1.85-4.437-3.089-7.083-3.488-.279-.042-.562-.063-.846-.063h-30.232c-3.131,0-5.669,2.539-5.669,5.669v18.158c-.449-3.557-1.246-6.679-2.413-9.424-2.169-5.105-5.935-8.892-11.196-11.255-4.72-2.118-10.876-3.147-18.821-3.147h-20.5c-3.131,0-5.669,2.539-5.669,5.669v22.895l-.135-1.282c-.656-6.245-2.131-11.624-4.385-15.99-2.524-4.89-6.306-8.51-11.24-10.76-3.473-1.581-7.654-2.383-12.43-2.383-1.678,0-3.465.099-5.312.293-7.133.75-12.625,2.625-16.79,5.731-4.076,3.042-6.894,7.077-8.417,11.978-.257-.844-.534-1.672-.851-2.471-1.022-2.581-2.491-4.908-4.365-6.917-1.113-1.194-2.626-1.802-4.146-1.802-1.304,0-2.613.448-3.679,1.357l-12.569,10.729c-1.598,1.363-2.311,3.498-1.853,5.548.023.102.047.205.059.306.143,1.266.215,2.601.215,3.967v8.1c0,1.234.399,2.373,1.068,3.304h-1.73v-7.019c0-2.212-1.286-4.222-3.295-5.148-.759-.35-1.568-.521-2.373-.521-1.324,0-2.635.464-3.682,1.357l-18.101,15.449c-1.262,1.077-1.988,2.653-1.988,4.312v14.166c0,2.953.205,5.748.602,8.376-.604-.219-1.252-.345-1.931-.345h-13.031v-.263c0-2.212-1.286-4.222-3.295-5.148-.759-.35-1.568-.521-2.373-.521-1.324,0-2.635.464-3.682,1.356l-17.899,15.278c-1.262,1.077-1.988,2.653-1.988,4.312v2.753c0,3.131,2.538,5.669,5.669,5.669h30.368c3.01-.031,5.982-1.229,8.155-3.288,3.009-2.851,3.625-6.31,3.726-8.134,1.948,3.436,4.654,6.256,8.089,8.407,4.466,2.797,10.374,4.215,17.56,4.215s12.825-1.312,17.149-4.009c4.433-2.765,7.598-6.604,9.407-11.416,1.601-4.259,2.412-9.085,2.412-14.345v-2.756l.262,2.49c.648,6.173,2.118,11.543,4.368,15.961,2.521,4.953,6.277,8.626,11.166,10.916,3.491,1.637,7.696,2.467,12.497,2.467,1.632,0,3.367-.096,5.157-.283,7.103-.746,12.804-2.7,16.947-5.808,2.833-2.125,5.053-4.734,6.663-7.775v7.689c0,3.131,2.538,5.669,5.669,5.669h20.7c7.903,0,14.028-1.054,18.725-3.222,5.215-2.406,8.951-6.246,11.106-11.413,1.16-2.776,1.952-5.927,2.399-9.511v18.477c0,3.131,2.538,5.669,5.669,5.669h30.369c3.01-.031,5.981-1.229,8.153-3.287,3.36-3.183,3.74-7.13,3.747-8.706v-1.6c2.215,4.69,5.834,8.212,10.809,10.447,4.72,2.117,10.876,3.146,18.821,3.146h20.5c3.131,0,5.669-2.538,5.669-5.669V27.091c0-3.131-2.538-5.669-5.669-5.669Z"/>
        <path d="M406.515,12.417h-20.7c-7.903,0-14.028,1.054-18.725,3.222-5.066,2.337-8.724,6.04-10.905,10.985v-2.317c0-.268-.019-.535-.057-.801-.236-1.658-1.051-4.842-3.852-7.538-1.921-1.85-4.437-3.089-7.083-3.488-.279-.042-.562-.063-.846-.063h-30.232c-3.131,0-5.669,2.539-5.669,5.669v18.158c-.449-3.557-1.246-6.679-2.413-9.424-2.169-5.105-5.935-8.892-11.196-11.255-4.72-2.118-10.876-3.147-18.821-3.147h-20.5c-3.131,0-5.669,2.539-5.669,5.669v22.895l-.135-1.282c-.656-6.245-2.131-11.624-4.385-15.99-2.524-4.89-6.306-8.51-11.24-10.76-3.473-1.581-7.654-2.383-12.43-2.383-1.678,0-3.465.099-5.312.293-7.133.75-12.625,2.625-16.79,5.731-4.076,3.042-6.894,7.077-8.417,11.978-.257-.844-.534-1.672-.851-2.471-1.022-2.581-2.491-4.908-4.365-6.917-1.113-1.194-2.626-1.802-4.146-1.802-1.304,0-2.613.448-3.679,1.357l-12.569,10.729c-1.598,1.363-2.311,3.498-1.853,5.548.023.102.047.205.059.306.143,1.266.215,2.601.215,3.967v8.1c0,1.234.399,2.373,1.068,3.304h-1.73v-7.019c0-2.212-1.286-4.222-3.295-5.148-.759-.35-1.568-.521-2.373-.521-1.324,0-2.635.464-3.682,1.357l-18.101,15.449c-1.262,1.077-1.988,2.653-1.988,4.312v14.166c0,2.953.205,5.748.602,8.376-.604-.219-1.252-.345-1.931-.345h-13.031v-.263c0-2.212-1.286-4.222-3.295-5.148-.759-.35-1.568-.521-2.373-.521-1.324,0-2.635.464-3.682,1.356l-17.899,15.278c-1.262,1.077-1.988,2.653-1.988,4.312v2.753c0,3.131,2.538,5.669,5.669,5.669h30.368c3.01-.031,5.982-1.229,8.155-3.288,3.009-2.851,3.625-6.31,3.726-8.134,1.948,3.436,4.654,6.256,8.089,8.407,4.466,2.797,10.374,4.215,17.56,4.215s12.825-1.312,17.149-4.009c4.433-2.765,7.598-6.604,9.407-11.416,1.601-4.259,2.412-9.085,2.412-14.345v-2.756l.262,2.49c.648,6.173,2.118,11.543,4.368,15.961,2.521,4.953,6.277,8.626,11.166,10.916,3.491,1.637,7.696,2.467,12.497,2.467,1.632,0,3.367-.096,5.157-.283,7.103-.746,12.804-2.7,16.947-5.808,2.833-2.125,5.053-4.734,6.663-7.775v7.689c0,3.131,2.538,5.669,5.669,5.669h20.7c7.903,0,14.028-1.054,18.725-3.222,5.215-2.406,8.951-6.246,11.106-11.413,1.16-2.776,1.952-5.927,2.399-9.511v18.477c0,3.131,2.538,5.669,5.669,5.669h30.369c3.01-.031,5.981-1.229,8.153-3.287,3.36-3.183,3.74-7.13,3.747-8.706v-1.6c2.215,4.69,5.834,8.212,10.809,10.447,4.72,2.117,10.876,3.146,18.821,3.146h20.5c3.131,0,5.669-2.538,5.669-5.669V18.086c0-3.131-2.538-5.669-5.669-5.669Z"/>
        <path d="M314.407,98.75V17.75h30.232c.64.097,2.424.452,3.996,1.966,1.722,1.658,2.084,3.639,2.172,4.255v5.979h-18.5v20.1h14.1v12.4h-14.1v24.2h18.7v5.775c-.002.41-.053,2.767-1.976,4.59-1.749,1.658-3.841,1.73-4.314,1.734-10.103,0-20.207,0-30.31,0Z" fill="#f5f5f5"/>
        <path d="M225.937,99.005c-6.034.634-10.919.074-14.656-1.677-3.738-1.752-6.578-4.537-8.52-8.355-1.945-3.818-3.204-8.477-3.783-13.981l-3.146-29.935c-.585-5.57-.322-10.389.793-14.463,1.113-4.071,3.317-7.336,6.612-9.795,3.294-2.457,7.958-4.003,13.992-4.637,6.099-.641,11.032-.104,14.799,1.611,3.765,1.716,6.617,4.45,8.553,8.201,1.936,3.753,3.198,8.412,3.783,13.982l3.146,29.935c.578,5.504.313,10.324-.793,14.462-1.108,4.138-3.323,7.456-6.646,9.949-3.325,2.494-8.036,4.062-14.136,4.704ZM224.609,86.374c1.855-.195,3.166-.801,3.931-1.821.763-1.018,1.202-2.271,1.315-3.758.111-1.486.087-2.991-.073-4.517l-4.077-38.786c-.167-1.591-.459-3.084-.873-4.483-.416-1.397-1.104-2.515-2.062-3.353-.96-.838-2.369-1.159-4.224-.964-1.725.181-2.97.781-3.733,1.8-.765,1.019-1.205,2.256-1.32,3.708-.115,1.455-.089,2.976.078,4.567l4.077,38.786c.16,1.526.432,3.006.818,4.439.384,1.434,1.04,2.572,1.967,3.413.926.842,2.318,1.164,4.175.969Z" fill="#f5f5f5"/>
        <path d="M255.808,98.75V17.75h20.5c7.065,0,12.565.885,16.5,2.65,3.933,1.767,6.7,4.534,8.3,8.3,1.601,3.767,2.4,8.649,2.4,14.649v29.4c0,6.067-.8,11.018-2.4,14.85-1.6,3.835-4.35,6.65-8.25,8.45-3.899,1.8-9.35,2.7-16.35,2.7h-20.7ZM273.708,86.349h2.8c2.732,0,4.7-.399,5.9-1.199,1.199-.801,1.949-2,2.25-3.601.3-1.6.449-3.6.449-6v-35.3c0-2.4-.184-4.333-.55-5.8-.367-1.466-1.149-2.533-2.35-3.2-1.2-.666-3.135-1-5.8-1h-2.7v56.1Z" fill="#f5f5f5"/>
        <path d="M406.807,17.75v81h-20.5c-7.065,0-12.565-.885-16.5-2.65-3.933-1.767-6.7-4.534-8.3-8.3-1.601-3.767-2.4-8.649-2.4-14.649v-29.4c0-6.067.8-11.018,2.4-14.85,1.6-3.835,4.35-6.65,8.25-8.45,3.899-1.8,9.35-2.7,16.35-2.7h20.7ZM388.906,30.15h-2.8c-2.732,0-4.7.399-5.9,1.199-1.199.801-1.949,2-2.25,3.601-.3,1.6-.449,3.6-.449,6v35.3c0,2.4.185,4.333.55,5.8.367,1.466,1.149,2.533,2.35,3.2,1.2.666,3.135,1,5.8,1h2.7V30.15Z" fill="#f5f5f5"/>
        <path d="M96.21,98.75h30.31c.473-.005,2.565-.077,4.314-1.734,1.923-1.823,1.974-4.18,1.976-4.59v-5.775h-18.7v-5.932l-17.9,15.278v2.753Z" fill="#f5f5f5"/>
        <path d="M139.809,72.95c0,5.467.733,10.217,2.2,14.25,1.466,4.034,3.983,7.167,7.55,9.399,3.566,2.233,8.416,3.351,14.551,3.351,6.065,0,10.782-1.05,14.149-3.15,3.366-2.1,5.733-4.966,7.101-8.6,1.365-3.633,2.05-7.75,2.05-12.351v-7h-17.5v8.5c0,1.601-.101,3.168-.3,4.7-.2,1.534-.7,2.784-1.5,3.75-.801.968-2.135,1.45-4,1.45-1.734,0-3.051-.45-3.95-1.35s-1.5-2.101-1.8-3.601c-.301-1.5-.45-3.149-.45-4.95v-34.015l-18.101,15.45v14.166Z" fill="#f5f5f5"/>
        <path d="M182.069,22.713l-12.57,10.729c.066.293.123.592.159.908.165,1.468.25,3,.25,4.601v8.1h17.5v-7c0-4.6-.7-8.665-2.101-12.2-.774-1.955-1.862-3.661-3.239-5.137Z" fill="#f5f5f5"/>
      </g>
      <path d="M162.507,7.864c-1.504-1.612-3.251-3.005-5.197-4.142-4.292-2.504-9.822-3.722-16.907-3.722-7.173,0-13.07,1.395-17.527,4.144-3.565,2.199-6.345,5.129-8.311,8.726-.005-.228-.016-.456-.048-.682-.236-1.658-1.052-4.842-3.852-7.539-1.922-1.849-4.437-3.087-7.083-3.487-.279-.042-.562-.063-.846-.063h-30.231c-3.131,0-5.669,2.539-5.669,5.669v18.164c-.449-3.559-1.247-6.684-2.414-9.43-2.169-5.105-5.935-8.892-11.196-11.256-4.72-2.118-10.876-3.147-18.821-3.147H13.903c-3.131,0-5.669,2.539-5.669,5.669v81c0,3.131,2.538,5.669,5.669,5.669h20.7c7.903,0,14.028-1.054,18.725-3.222,5.215-2.406,8.951-6.246,11.106-11.413,1.16-2.778,1.953-5.931,2.4-9.518v15.731c0,2.212,1.286,4.222,3.295,5.148.759.35,1.568.521,2.373.521,1.324,0,2.635-.464,3.682-1.356l17.899-15.278c1.262-1.077,1.988-2.653,1.988-4.312v-12.6h8.431c3.131,0,5.669-2.538,5.669-5.669v-12.4c0-3.131-2.538-5.669-5.669-5.669h-8.431v-8.761h12.831c.756,0,1.476-.151,2.135-.419-.4,2.669-.606,5.522-.606,8.55v15.034c0,2.212,1.286,4.222,3.295,5.148.759.35,1.568.521,2.373.521,1.324,0,2.635-.464,3.682-1.356l18.101-15.45,11.591-9.893,12.569-10.729c1.177-1.004,1.892-2.446,1.979-3.991s-.46-3.058-1.516-4.189Z"/>
      <path d="M14.195,87.433V6.433h20.5c7.065,0,12.565.885,16.5,2.65,3.933,1.767,6.7,4.534,8.3,8.3,1.6,3.767,2.4,8.649,2.4,14.649v29.4c0,6.067-.8,11.018-2.4,14.85-1.6,3.835-4.35,6.65-8.25,8.45-3.9,1.8-9.35,2.7-16.35,2.7H14.195ZM32.095,75.032h2.8c2.732,0,4.7-.399,5.9-1.199,1.2-.801,1.95-2,2.25-3.601.3-1.6.45-3.6.45-6V28.933c0-2.4-.184-4.333-.55-5.8-.367-1.466-1.15-2.533-2.35-3.2-1.2-.666-3.134-1-5.8-1h-2.7v56.1Z" fill="#f5f5f5"/>
      <path d="M104.795,51.133v-12.4h-14.1v-20.1h18.5v-5.979c-.088-.616-.45-2.597-2.172-4.255-1.573-1.514-3.356-1.869-3.996-1.966h-30.232v78.247l17.9-15.278v-18.269h14.1Z" fill="#f5f5f5"/>
      <path d="M154.744,8.282c-3.367-1.965-8.05-2.949-14.05-2.949-6.135,0-10.984,1.1-14.551,3.3s-6.084,5.317-7.55,9.35c-1.467,4.034-2.2,8.851-2.2,14.45v15.034l18.101-15.45v-4.085c0-1.666.115-3.25.35-4.75.233-1.5.8-2.75,1.7-3.75s2.283-1.5,4.15-1.5c1.933,0,3.3.484,4.1,1.45.627.758,1.053,1.676,1.291,2.741l12.57-10.729c-1.111-1.191-2.407-2.234-3.91-3.113Z" fill="#f5f5f5"/>
    </g>
    <g>
      <path d="M78.866,141.809c-.256-.154-.435-.348-.537-.583-.103-.235-.148-.471-.138-.706.01-.235.056-.384.138-.445.062-.02.2-.102.415-.246.215-.143.342-.235.384-.276.02,0,.046-.015.076-.046.031-.031.057-.056.077-.077v-.553c0-1.146-.066-2.277-.2-3.393-.133-1.115-.199-2.236-.199-3.362,0-.737.016-1.504.046-2.303.031-.798.164-1.535.399-2.21.235-.676.608-1.229,1.121-1.658.511-.43,1.248-.645,2.21-.645h.584c.225,0,.435.026.629.077.194.051.363.143.507.276.143.133.215.322.215.568,0,.368-.087.609-.261.722-.175.112-.395.184-.66.215-.267.031-.543.072-.829.123-.287.051-.532.21-.737.476-.041.041-.092.149-.153.322-.062.174-.092.292-.092.353-.041.144-.082.338-.123.583s-.077.491-.107.737-.062.466-.092.66c-.031.195-.046.302-.046.322v.23c0,.133-.006.292-.016.476-.011.184-.016.374-.016.568v1.673c0,.368.01.732.031,1.09.02.358.051.722.092,1.09.041.369.092.778.153,1.229h.246l4.145-2.457c.286-.062.542-.164.768-.307.225-.143.48-.215.768-.215s.583.072.891.215c.307.144.46.369.46.676,0,.226-.051.389-.153.491-.103.103-.184.246-.245.43-.082.021-.236.082-.461.184-.226.103-.379.174-.461.215-.164.103-.425.261-.782.476-.358.215-.732.44-1.121.676s-.747.456-1.074.66c-.328.205-.543.337-.646.399-.143.103-.317.226-.521.369-.205.143-.404.292-.599.445-.195.154-.436.343-.722.568v.307l.799,2.61c-.021.062-.026.128-.016.2.01.072.056.128.138.169l1.443,4.391c.103.368.025.675-.23.921s-.548.369-.875.369c-.368,0-.727-.098-1.074-.292-.349-.194-.573-.486-.676-.875l-1.688-5.557-.123-.246c-.45.082-.804.046-1.06-.107Z" fill="#c31313"/>
      <path d="M87.693,143.85l1.137-7.891c.04-.266.158-.46.353-.583.194-.123.415-.184.66-.184.45,0,.809.128,1.075.384.266.256.491.568.675.937h.031c.245,0,.465-.046.66-.138.194-.092.435-.138.722-.138.654,0,1.212.205,1.673.614s.834.906,1.121,1.489c.286.583.496,1.213.629,1.888.133.676.2,1.27.2,1.781,0,.614-.159,1.3-.477,2.057-.317.758-.736,1.474-1.259,2.149-.521.675-1.11,1.239-1.766,1.689s-1.32.675-1.995.675c-.614,0-1.142-.143-1.581-.43-.44-.287-.799-.65-1.075-1.09-.276-.44-.476-.937-.599-1.489-.123-.553-.185-1.095-.185-1.627v-.092ZM90.272,144.035c.041.205.082.44.123.706.041.266.103.506.185.722.081.215.199.379.353.491.154.112.374.118.66.015.267-.246.553-.522.86-.829.307-.307.599-.634.875-.982.276-.348.506-.716.69-1.105.185-.388.276-.798.276-1.228.082-.695.031-1.335-.153-1.919s-.445-1.002-.783-1.259c-.338-.256-.722-.287-1.151-.092-.43.195-.859.722-1.289,1.582-.246.532-.415,1.151-.507,1.857s-.139,1.356-.139,1.95v.092Z" fill="#c31313"/>
      <path d="M99.361,147.228c-.041-.737-.107-1.724-.199-2.963-.093-1.238-.195-2.522-.308-3.853s-.23-2.589-.353-3.777c-.123-1.187-.226-2.108-.308-2.763,0-.266.123-.44.368-.522.246-.082.481-.123.707-.123.286,0,.588.082.905.246.317.164.517.389.599.675,0,.082.011.23.031.445.02.215.035.435.046.66.01.226.025.445.046.66s.03.363.03.445v.445c0,.051.011.107.031.169.02.062.051.164.092.307.041-.041.087-.092.139-.154.051-.061.087-.102.107-.123.327-.471.645-.885.951-1.244.308-.358.624-.695.952-1.013.327-.317.69-.655,1.09-1.013.399-.358.864-.772,1.397-1.243.122-.103.215-.179.276-.23.061-.051.117-.092.169-.123.051-.03.107-.051.168-.061.062-.01.144-.016.246-.016.348,0,.701.118,1.06.353.357.236.537.558.537.967,0,.144-.052.292-.153.445-.103.153-.226.297-.369.43-.144.133-.291.251-.445.353-.153.103-.291.174-.414.215-.532.471-1.096,1.009-1.688,1.612-.594.604-1.146,1.254-1.658,1.95s-.932,1.423-1.259,2.18c-.328.757-.491,1.515-.491,2.272,0,.696.051,1.382.153,2.057.103.676.153,1.362.153,2.057v1.075c-.164.164-.307.297-.43.399-.123.103-.297.154-.521.154-.349,0-.687-.148-1.014-.445-.327-.296-.542-.599-.645-.906Z" fill="#c31313"/>
      <path d="M121.774,146.398c0-.859.02-1.699.062-2.518.04-.818.061-1.658.061-2.518-.061-2.333-.082-4.621-.061-6.862.02-2.241-.082-4.539-.308-6.893,0-.389.092-.65.276-.783.185-.133.461-.2.829-.2.471,0,.875.138,1.213.415s.517.66.537,1.151c-.041,2.907-.005,5.788.107,8.643s.169,5.747.169,8.674v2.364c-.123.164-.297.328-.521.491-.226.164-.451.225-.676.184-.594-.102-1.023-.343-1.29-.722-.266-.378-.398-.854-.398-1.428Z" fill="#c31313"/>
      <path d="M125.95,124.999c0-.143.118-.271.354-.384.234-.112.414-.169.537-.169.307,0,.649.087,1.028.261.379.174.568.435.568.783s-.046.583-.139.706c-.092.123-.312.184-.66.184-.368,0-.742-.123-1.12-.368-.379-.246-.568-.583-.568-1.013ZM127.67,147.381c-.205-2.047-.379-3.797-.522-5.25-.144-1.453-.266-2.671-.368-3.654s-.189-1.765-.261-2.349c-.072-.583-.128-1.023-.169-1.32-.041-.296-.072-.496-.092-.599-.021-.102-.031-.164-.031-.184v-.123c0-.225.097-.415.292-.568.194-.154.394-.23.599-.23.307,0,.64.051.998.154.357.103.599.317.722.645.184,1.003.312,2.017.384,3.04.071,1.024.133,2.042.184,3.055s.123,2.032.215,3.055c.093,1.024.262,2.037.507,3.04,0,.041.016.123.046.246.031.123.062.256.093.399.03.144.056.276.076.399.021.123.031.205.031.246v.061c0,.021.01.042.03.062,0,.246-.112.491-.338.737s-.46.348-.706.307c-.062-.02-.21-.056-.445-.107-.235-.051-.395-.097-.476-.138-.062-.02-.144-.066-.246-.138-.103-.071-.199-.148-.291-.23-.093-.082-.169-.173-.23-.276-.062-.102-.062-.194,0-.276Z" fill="#c31313"/>
      <path d="M136.175,147.381c0-.103.005-.194.015-.276.011-.082.057-.164.139-.246.245-.307.521-.629.829-.967.307-.338.604-.676.89-1.013.287-.338.553-.691.799-1.06.245-.368.45-.737.614-1.105v-.185l-4.022.829h-.461c-.286,0-.64-.02-1.059-.062-.42-.041-.829-.127-1.229-.261-.399-.133-.736-.322-1.013-.568s-.415-.573-.415-.983c.021-.47.266-.992.737-1.565.471-.573,1.023-1.136,1.658-1.689.634-.553,1.273-1.064,1.919-1.535.645-.471,1.161-.839,1.55-1.105.43-.246.941-.445,1.535-.599.594-.153,1.137-.23,1.628-.23.409,0,.768.077,1.074.23.307.154.461.456.461.906,0,.185-.016.358-.047.522-.03.164-.158.276-.384.338-.655-.062-1.269-.016-1.842.138-.573.153-1.116.384-1.627.691-.512.307-.993.67-1.443,1.09-.45.42-.891.855-1.32,1.305-.123.144-.276.343-.461.599-.184.256-.275.404-.275.445v.031c.531,0,1.059-.051,1.581-.153.521-.103,1.044-.21,1.565-.322.522-.112,1.044-.22,1.566-.323.521-.102,1.059-.153,1.611-.153.204,0,.43.015.676.046.245.031.476.098.69.2.215.103.389.241.522.415.133.174.199.394.199.66,0,.389-.098.763-.292,1.121-.194.358-.48.788-.859,1.29-.379.502-.859,1.11-1.443,1.827-.583.717-1.273,1.638-2.072,2.763-.041.062-.138.103-.291.123-.154.02-.282.031-.384.031-.287,0-.579-.123-.876-.369s-.444-.522-.444-.829Z" fill="#c31313"/>
      <path d="M147.135,139.583c-.286,0-.542.072-.768.215-.226.144-.491.215-.798.215-.041,0-.148-.005-.322-.015-.175-.01-.282-.016-.322-.016-.082-.102-.175-.184-.276-.246-.103-.061-.205-.127-.308-.199s-.189-.159-.261-.261c-.072-.102-.107-.246-.107-.43,0-.307.123-.558.368-.752.246-.194.532-.363.86-.506.327-.143.66-.276.997-.399.338-.123.609-.266.814-.43v-1.351c0-1.515-.072-3.034-.215-4.56-.144-1.524-.216-3.034-.216-4.528,0-.41.103-.676.308-.798.204-.123.48-.185.829-.185.409,0,.711.118.905.354s.333.521.415.859c.081.338.122.696.122,1.075s.011.701.031.967c0,.266.021.737.062,1.412.041.676.081,1.392.123,2.149.04.757.081,1.474.122,2.149.041.676.071,1.147.093,1.413.081-.02.24-.077.476-.169s.486-.184.752-.276c.266-.092.517-.179.752-.261.235-.082.404-.143.507-.185.532-.225,1.085-.476,1.658-.752s1.156-.415,1.75-.415c.409,0,.722.138.937.415s.322.599.322.967c0,.266-.103.46-.307.583-.205.123-.42.236-.645.338l-5.589,2.088c-.061.041-.122.077-.184.107s-.123.077-.185.138v.982c0,.717.016,1.458.046,2.226.031.768.098,1.51.2,2.226.102.614.215,1.218.337,1.812.123.594.185,1.197.185,1.812,0,.184-.062.43-.185.737-.122.307-.317.46-.583.46-.553,0-1.003-.164-1.351-.491-.349-.327-.543-.768-.584-1.32-.103-1.064-.21-2.231-.322-3.5s-.22-2.487-.322-3.654h-.123Z" fill="#c31313"/>
      <path d="M170.561,139.828c-.041.369-.087.655-.138.86-.052.205-.139.389-.262.552-.122.164-.297.333-.521.507-.226.174-.532.42-.921.737-.39.318-.87.732-1.443,1.244s-1.27,1.177-2.088,1.996c-.327.307-.665.625-1.013.952-.349.328-.712.62-1.091.875-.379.256-.772.466-1.182.629-.41.164-.84.246-1.289.246-.881,0-1.525-.296-1.935-.89-.41-.593-.614-1.279-.614-2.057,0-.511.016-.941.046-1.29.031-.348.107-.798.23-1.351-.226-.204-.42-.384-.583-.537-.164-.154-.246-.363-.246-.629,0-.246.057-.409.169-.491.112-.082.245-.138.399-.169.153-.031.302-.066.445-.107.143-.041.245-.123.307-.246.041-.123.117-.348.23-.676.112-.327.23-.67.353-1.028.123-.358.24-.696.354-1.013.112-.317.188-.538.23-.66.143-.348.302-.701.476-1.06.174-.357.379-.68.614-.967s.512-.522.829-.706c.316-.185.69-.276,1.12-.276.246,0,.548.112.906.337.357.226.7.497,1.028.814.327.317.604.65.829.998.225.349.338.645.338.891,0,.307-.072.588-.215.844-.144.256-.322.491-.538.706-.215.215-.444.415-.69.599-.245.185-.471.358-.676.522-.021,0-.062.021-.122.062-.062.042-.113.072-.154.092-.021.021-.066.066-.138.138-.072.072-.148.148-.23.23-.082.082-.158.164-.23.246-.071.082-.118.134-.138.154-.062.062-.18.159-.354.292-.174.133-.363.276-.567.43-.205.154-.395.297-.568.43-.174.133-.292.22-.354.261l-.122.246c-.042.082-.077.261-.107.538-.031.276-.067.588-.107.937-.042.348-.077.701-.107,1.059-.031.358-.047.65-.047.875,0,.021.011.042.031.062.041.041.071.062.092.062.164,0,.317-.072.461-.215.143-.143.296-.246.46-.307l4.913-4.544,1.259-1.934c.102-.143.302-.302.599-.476.297-.173.599-.266.905-.276.308-.01.578.087.814.292.234.205.353.604.353,1.197ZM163.806,137.433c.103-.082.144-.204.123-.368-.021-.164-.077-.307-.169-.43-.092-.123-.21-.199-.353-.23-.144-.031-.276.046-.399.23-.062.082-.169.246-.322.491-.153.246-.308.497-.461.752-.153.256-.281.476-.384.66s-.123.256-.062.215l2.026-1.32Z" fill="#c31313"/>
      <path d="M180.141,147.504c-.287-.409-.527-.977-.722-1.704-.195-.726-.379-1.494-.553-2.303-.175-.808-.333-1.597-.477-2.364-.143-.768-.291-1.381-.444-1.842-.154-.461-.323-.722-.507-.783-.185-.062-.399.215-.645.829l-2.672,8.229c-.103.287-.226.486-.368.599-.144.113-.379.169-.706.169-.164,0-.338-.025-.522-.077-.184-.051-.358-.128-.521-.23-.164-.102-.303-.225-.415-.369-.112-.143-.179-.307-.199-.491.062-.246.117-.695.169-1.351.051-.655.087-1.413.107-2.272.021-.859.035-1.765.046-2.717.011-.952.011-1.842,0-2.671s-.025-1.545-.046-2.149c-.021-.604-.041-.998-.062-1.182,0-.204.005-.414.016-.629.01-.215.041-.414.092-.599.051-.184.144-.333.276-.445.133-.112.343-.168.63-.168.389,0,.752.164,1.09.491.338.328.507.675.507,1.044,0,.532-.026,1.059-.077,1.581-.052.522-.077,1.049-.077,1.581v.829c0,.226.041.502.123.829.062-.164.164-.45.308-.86.143-.409.302-.839.476-1.29.174-.45.332-.875.476-1.274.144-.399.246-.68.308-.845.143-.409.357-.803.645-1.182.286-.379.665-.588,1.136-.629.308-.021.588.061.845.246.256.184.476.425.66.721.184.297.338.604.46.921.123.317.215.588.276.813l1.658,7.645,1.29,3.5c.02.021.03.077.03.168v.2c0,.246-.057.486-.169.722s-.312.353-.599.353c-.349,0-.706-.097-1.074-.292-.369-.194-.625-.445-.768-.752Z" fill="#c31313"/>
      <path d="M196.936,139.828c-.041.369-.087.655-.138.86-.052.205-.139.389-.262.552-.122.164-.297.333-.521.507-.226.174-.532.42-.921.737-.39.318-.87.732-1.443,1.244s-1.27,1.177-2.088,1.996c-.327.307-.665.625-1.013.952-.349.328-.712.62-1.091.875-.379.256-.772.466-1.182.629-.41.164-.84.246-1.289.246-.881,0-1.525-.296-1.935-.89-.41-.593-.614-1.279-.614-2.057,0-.511.016-.941.046-1.29.031-.348.107-.798.23-1.351-.226-.204-.42-.384-.583-.537-.164-.154-.246-.363-.246-.629,0-.246.057-.409.169-.491.112-.082.245-.138.399-.169.153-.031.302-.066.445-.107.143-.041.245-.123.307-.246.041-.123.117-.348.23-.676.112-.327.23-.67.353-1.028.123-.358.24-.696.354-1.013.112-.317.188-.538.23-.66.143-.348.302-.701.476-1.06.174-.357.379-.68.614-.967s.512-.522.829-.706c.316-.185.69-.276,1.12-.276.246,0,.548.112.906.337.357.226.7.497,1.028.814.327.317.604.65.829.998.225.349.338.645.338.891,0,.307-.072.588-.215.844-.144.256-.322.491-.538.706-.215.215-.444.415-.69.599-.245.185-.471.358-.676.522-.021,0-.062.021-.122.062-.062.042-.113.072-.154.092-.021.021-.066.066-.138.138-.072.072-.148.148-.23.23-.082.082-.158.164-.23.246-.071.082-.118.134-.138.154-.062.062-.18.159-.354.292-.174.133-.363.276-.567.43-.205.154-.395.297-.568.43-.174.133-.292.22-.354.261l-.122.246c-.042.082-.077.261-.107.538-.031.276-.067.588-.107.937-.042.348-.077.701-.107,1.059-.031.358-.047.65-.047.875,0,.021.011.042.031.062.041.041.071.062.092.062.164,0,.317-.072.461-.215.143-.143.296-.246.46-.307l4.913-4.544,1.259-1.934c.102-.143.302-.302.599-.476.297-.173.599-.266.905-.276.308-.01.578.087.814.292.234.205.353.604.353,1.197ZM190.181,137.433c.103-.082.144-.204.123-.368-.021-.164-.077-.307-.169-.43-.092-.123-.21-.199-.353-.23-.144-.031-.276.046-.399.23-.062.082-.169.246-.322.491-.153.246-.308.497-.461.752-.153.256-.281.476-.384.66s-.123.256-.062.215l2.026-1.32Z" fill="#c31313"/>
      <path d="M199.146,147.228c-.041-.737-.107-1.724-.199-2.963-.093-1.238-.195-2.522-.308-3.853s-.23-2.589-.353-3.777c-.123-1.187-.226-2.108-.308-2.763,0-.266.123-.44.368-.522.246-.082.481-.123.707-.123.286,0,.588.082.905.246.317.164.517.389.599.675,0,.082.011.23.031.445.02.215.035.435.046.66.01.226.025.445.046.66s.03.363.03.445v.445c0,.051.011.107.031.169.02.062.051.164.092.307.041-.041.087-.092.139-.154.051-.061.087-.102.107-.123.327-.471.645-.885.951-1.244.308-.358.624-.695.952-1.013.327-.317.69-.655,1.09-1.013.399-.358.864-.772,1.397-1.243.122-.103.215-.179.276-.23.061-.051.117-.092.169-.123.051-.03.107-.051.168-.061.062-.01.144-.016.246-.016.348,0,.701.118,1.06.353.357.236.537.558.537.967,0,.144-.052.292-.153.445-.103.153-.226.297-.369.43-.144.133-.291.251-.445.353-.153.103-.291.174-.414.215-.532.471-1.096,1.009-1.688,1.612-.594.604-1.146,1.254-1.658,1.95s-.932,1.423-1.259,2.18c-.328.757-.491,1.515-.491,2.272,0,.696.051,1.382.153,2.057.103.676.153,1.362.153,2.057v1.075c-.164.164-.307.297-.43.399-.123.103-.297.154-.521.154-.349,0-.687-.148-1.014-.445-.327-.296-.542-.599-.645-.906Z" fill="#c31313"/>
      <path d="M213.363,147.381c0-.103.005-.194.015-.276.011-.082.057-.164.139-.246.245-.307.521-.629.829-.967.307-.338.604-.676.89-1.013.287-.338.553-.691.799-1.06.245-.368.45-.737.614-1.105v-.185l-4.022.829h-.461c-.286,0-.64-.02-1.059-.062-.42-.041-.829-.127-1.229-.261-.399-.133-.736-.322-1.013-.568s-.415-.573-.415-.983c.021-.47.266-.992.737-1.565.471-.573,1.023-1.136,1.658-1.689.634-.553,1.273-1.064,1.919-1.535.645-.471,1.161-.839,1.55-1.105.43-.246.941-.445,1.535-.599.594-.153,1.137-.23,1.628-.23.409,0,.768.077,1.074.23.307.154.461.456.461.906,0,.185-.016.358-.047.522-.03.164-.158.276-.384.338-.655-.062-1.269-.016-1.842.138-.573.153-1.116.384-1.627.691-.512.307-.993.67-1.443,1.09-.45.42-.891.855-1.32,1.305-.123.144-.276.343-.461.599-.184.256-.275.404-.275.445v.031c.531,0,1.059-.051,1.581-.153.521-.103,1.044-.21,1.565-.322.522-.112,1.044-.22,1.566-.323.521-.102,1.059-.153,1.611-.153.204,0,.43.015.676.046.245.031.476.098.69.2.215.103.389.241.522.415.133.174.199.394.199.66,0,.389-.098.763-.292,1.121-.194.358-.48.788-.859,1.29-.379.502-.859,1.11-1.443,1.827-.583.717-1.273,1.638-2.072,2.763-.041.062-.138.103-.291.123-.154.02-.282.031-.384.031-.287,0-.579-.123-.876-.369s-.444-.522-.444-.829Z" fill="#c31313"/>
      <path d="M237.587,147.074c-.123-.471-.481-1.673-1.074-3.608-.595-1.934-1.423-4.733-2.487-8.397,0-.041-.016-.127-.046-.261-.031-.133-.046-.22-.046-.261.04-.246.225-.394.553-.445.327-.051.572-.066.736-.046.45.062.783.205.998.43.215.226.394.553.537.982l1.781,5.864.122.153c.246-.409.389-.879.431-1.412.04-.532.097-1.049.169-1.55.071-.501.209-.957.414-1.367.204-.409.594-.695,1.167-.859.122,0,.256.026.398.077.144.051.281.123.415.215.133.092.25.195.353.307.103.113.174.23.216.353l1.657,5.312.338.461c.082-.369.189-.962.322-1.781.133-.818.266-1.673.399-2.563.133-.891.25-1.719.354-2.487.102-.768.173-1.294.215-1.582,0-.041.005-.112.015-.215.011-.102.016-.174.016-.215.164-.184.389-.322.676-.415.286-.092.542-.118.768-.077.081.021.188.066.322.138.133.072.261.164.384.276.123.113.22.23.292.353.071.123.107.235.107.338l-1.75,12.588c-.021.123-.093.22-.216.292-.122.072-.261.133-.414.184-.153.051-.307.082-.461.092-.153.01-.271.015-.353.015-.491-.184-.916-.486-1.274-.906-.358-.419-.676-.885-.952-1.397-.276-.511-.521-1.039-.736-1.581-.215-.542-.445-1.029-.691-1.458l-.122-.031c-.144.144-.262.46-.354.952-.092.492-.169,1.014-.23,1.566-.062.553-.112,1.049-.153,1.489-.041.44-.062.681-.062.722-.041.287-.23.512-.567.675-.338.164-.641.226-.906.184-.287-.041-.537-.179-.752-.414s-.384-.465-.507-.691Z" fill="#c31313"/>
      <path d="M249.992,133.534c.04-1.228-.011-2.456-.153-3.684-.144-1.228-.216-2.446-.216-3.654,0-.389.112-.629.338-.722.226-.092.481-.138.768-.138.409,0,.747.113,1.014.338.266.226.419.542.46.952.185,2.231.292,4.437.323,6.617.03,2.18.179,4.386.444,6.617.614-1.167,1.249-2.129,1.904-2.886.654-.757,1.284-1.259,1.888-1.504s1.156-.2,1.658.138c.501.338.906,1.003,1.213,1.996.307.993.491,2.344.553,4.053.062,1.709-.041,3.833-.308,6.371-.143,0-.317.005-.521.015-.205.011-.404.005-.599-.015-.195-.02-.363-.062-.507-.123-.144-.062-.226-.174-.245-.338.163-1.535.255-2.825.276-3.869.02-1.044-.011-1.904-.093-2.579s-.194-1.192-.338-1.551c-.143-.357-.297-.619-.46-.783-.164-.164-.322-.25-.477-.261-.153-.01-.271-.005-.353.015-.45.164-.875.563-1.274,1.197-.399.635-.742,1.372-1.028,2.211-.287.839-.497,1.725-.63,2.656-.133.932-.169,1.765-.107,2.502-.021.164-.041.328-.062.491-.021.164-.056.317-.107.46-.051.144-.133.261-.245.353-.113.092-.281.138-.507.138-.43,0-.772-.077-1.028-.23-.256-.153-.45-.353-.583-.599-.134-.246-.216-.532-.246-.859-.03-.327-.026-.665.016-1.013l-.768-12.312Z" fill="#c31313"/>
      <path d="M261.535,143.85l1.137-7.891c.04-.266.158-.46.353-.583.194-.123.415-.184.66-.184.45,0,.809.128,1.075.384.266.256.491.568.675.937h.031c.245,0,.465-.046.66-.138.194-.092.435-.138.722-.138.654,0,1.212.205,1.673.614s.834.906,1.121,1.489c.286.583.496,1.213.629,1.888.133.676.2,1.27.2,1.781,0,.614-.159,1.3-.477,2.057-.317.758-.736,1.474-1.259,2.149-.521.675-1.11,1.239-1.766,1.689s-1.32.675-1.995.675c-.614,0-1.142-.143-1.581-.43-.44-.287-.799-.65-1.075-1.09-.276-.44-.476-.937-.599-1.489-.123-.553-.185-1.095-.185-1.627v-.092ZM264.114,144.035c.041.205.082.44.123.706.041.266.103.506.185.722.081.215.199.379.353.491.154.112.374.118.66.015.267-.246.553-.522.86-.829.307-.307.599-.634.875-.982.276-.348.506-.716.69-1.105.185-.388.276-.798.276-1.228.082-.695.031-1.335-.153-1.919s-.445-1.002-.783-1.259c-.338-.256-.722-.287-1.151-.092-.43.195-.859.722-1.289,1.582-.246.532-.415,1.151-.507,1.857s-.139,1.356-.139,1.95v.092Z" fill="#c31313"/>
      <path d="M284.656,146.398c0-.859.02-1.699.062-2.518.04-.818.061-1.658.061-2.518-.061-2.333-.082-4.621-.061-6.862.02-2.241-.082-4.539-.308-6.893,0-.389.092-.65.276-.783.185-.133.461-.2.829-.2.471,0,.875.138,1.213.415s.517.66.537,1.151c-.041,2.907-.005,5.788.107,8.643s.169,5.747.169,8.674v2.364c-.123.164-.297.328-.521.491-.226.164-.451.225-.676.184-.594-.102-1.023-.343-1.29-.722-.266-.378-.398-.854-.398-1.428Z" fill="#c31313"/>
      <path d="M288.831,124.999c0-.143.118-.271.354-.384.234-.112.414-.169.537-.169.307,0,.649.087,1.028.261.379.174.568.435.568.783s-.046.583-.139.706c-.092.123-.312.184-.66.184-.368,0-.742-.123-1.12-.368-.379-.246-.568-.583-.568-1.013ZM290.551,147.381c-.205-2.047-.379-3.797-.522-5.25-.144-1.453-.266-2.671-.368-3.654s-.189-1.765-.261-2.349c-.072-.583-.128-1.023-.169-1.32-.041-.296-.072-.496-.092-.599-.021-.102-.031-.164-.031-.184v-.123c0-.225.097-.415.292-.568.194-.154.394-.23.599-.23.307,0,.64.051.998.154.357.103.599.317.722.645.184,1.003.312,2.017.384,3.04.071,1.024.133,2.042.184,3.055s.123,2.032.215,3.055c.093,1.024.262,2.037.507,3.04,0,.041.016.123.046.246.031.123.062.256.093.399.03.144.056.276.076.399.021.123.031.205.031.246v.061c0,.021.01.042.03.062,0,.246-.112.491-.338.737s-.46.348-.706.307c-.062-.02-.21-.056-.445-.107-.235-.051-.395-.097-.476-.138-.062-.02-.144-.066-.246-.138-.103-.071-.199-.148-.291-.23-.093-.082-.169-.173-.23-.276-.062-.102-.062-.194,0-.276Z" fill="#c31313"/>
      <path d="M299.055,147.381c0-.103.005-.194.015-.276.011-.082.057-.164.139-.246.245-.307.521-.629.829-.967.307-.338.604-.676.89-1.013.287-.338.553-.691.799-1.06.245-.368.45-.737.614-1.105v-.185l-4.022.829h-.461c-.286,0-.64-.02-1.059-.062-.42-.041-.829-.127-1.229-.261-.399-.133-.736-.322-1.013-.568s-.415-.573-.415-.983c.021-.47.266-.992.737-1.565.471-.573,1.023-1.136,1.658-1.689.634-.553,1.273-1.064,1.919-1.535.645-.471,1.161-.839,1.55-1.105.43-.246.941-.445,1.535-.599.594-.153,1.137-.23,1.628-.23.409,0,.768.077,1.074.23.307.154.461.456.461.906,0,.185-.016.358-.047.522-.03.164-.158.276-.384.338-.655-.062-1.269-.016-1.842.138-.573.153-1.116.384-1.627.691-.512.307-.993.67-1.443,1.09-.45.42-.891.855-1.32,1.305-.123.144-.276.343-.461.599-.184.256-.275.404-.275.445v.031c.531,0,1.059-.051,1.581-.153.521-.103,1.044-.21,1.565-.322.522-.112,1.044-.22,1.566-.323.521-.102,1.059-.153,1.611-.153.204,0,.43.015.676.046.245.031.476.098.69.2.215.103.389.241.522.415.133.174.199.394.199.66,0,.389-.098.763-.292,1.121-.194.358-.48.788-.859,1.29-.379.502-.859,1.11-1.443,1.827-.583.717-1.273,1.638-2.072,2.763-.041.062-.138.103-.291.123-.154.02-.282.031-.384.031-.287,0-.579-.123-.876-.369s-.444-.522-.444-.829Z" fill="#c31313"/>
      <path d="M310.016,139.583c-.286,0-.542.072-.768.215-.226.144-.491.215-.798.215-.041,0-.148-.005-.322-.015-.175-.01-.282-.016-.322-.016-.082-.102-.175-.184-.276-.246-.103-.061-.205-.127-.308-.199s-.189-.159-.261-.261c-.072-.102-.107-.246-.107-.43,0-.307.123-.558.368-.752.246-.194.532-.363.86-.506.327-.143.66-.276.997-.399.338-.123.609-.266.814-.43v-1.351c0-1.515-.072-3.034-.215-4.56-.144-1.524-.216-3.034-.216-4.528,0-.41.103-.676.308-.798.204-.123.48-.185.829-.185.409,0,.711.118.905.354s.333.521.415.859c.081.338.122.696.122,1.075s.011.701.031.967c0,.266.021.737.062,1.412.041.676.081,1.392.123,2.149.04.757.081,1.474.122,2.149.041.676.071,1.147.093,1.413.081-.02.24-.077.476-.169s.486-.184.752-.276c.266-.092.517-.179.752-.261.235-.082.404-.143.507-.185.532-.225,1.085-.476,1.658-.752s1.156-.415,1.75-.415c.409,0,.722.138.937.415s.322.599.322.967c0,.266-.103.46-.307.583-.205.123-.42.236-.645.338l-5.589,2.088c-.061.041-.122.077-.184.107s-.123.077-.185.138v.982c0,.717.016,1.458.046,2.226.031.768.098,1.51.2,2.226.102.614.215,1.218.337,1.812.123.594.185,1.197.185,1.812,0,.184-.062.43-.185.737-.122.307-.317.46-.583.46-.553,0-1.003-.164-1.351-.491-.349-.327-.543-.768-.584-1.32-.103-1.064-.21-2.231-.322-3.5s-.22-2.487-.322-3.654h-.123Z" fill="#c31313"/>
      <path d="M333.443,139.828c-.041.369-.087.655-.138.86-.052.205-.139.389-.262.552-.122.164-.297.333-.521.507-.226.174-.532.42-.921.737-.39.318-.87.732-1.443,1.244s-1.27,1.177-2.088,1.996c-.327.307-.665.625-1.013.952-.349.328-.712.62-1.091.875-.379.256-.772.466-1.182.629-.41.164-.84.246-1.289.246-.881,0-1.525-.296-1.935-.89-.41-.593-.614-1.279-.614-2.057,0-.511.016-.941.046-1.29.031-.348.107-.798.23-1.351-.226-.204-.42-.384-.583-.537-.164-.154-.246-.363-.246-.629,0-.246.057-.409.169-.491.112-.082.245-.138.399-.169.153-.031.302-.066.445-.107.143-.041.245-.123.307-.246.041-.123.117-.348.23-.676.112-.327.23-.67.353-1.028.123-.358.24-.696.354-1.013.112-.317.188-.538.23-.66.143-.348.302-.701.476-1.06.174-.357.379-.68.614-.967s.512-.522.829-.706c.316-.185.69-.276,1.12-.276.246,0,.548.112.906.337.357.226.7.497,1.028.814.327.317.604.65.829.998.225.349.338.645.338.891,0,.307-.072.588-.215.844-.144.256-.322.491-.538.706-.215.215-.444.415-.69.599-.245.185-.471.358-.676.522-.021,0-.062.021-.122.062-.062.042-.113.072-.154.092-.021.021-.066.066-.138.138-.072.072-.148.148-.23.23-.082.082-.158.164-.23.246-.071.082-.118.134-.138.154-.062.062-.18.159-.354.292-.174.133-.363.276-.567.43-.205.154-.395.297-.568.43-.174.133-.292.22-.354.261l-.122.246c-.042.082-.077.261-.107.538-.031.276-.067.588-.107.937-.042.348-.077.701-.107,1.059-.031.358-.047.65-.047.875,0,.021.011.042.031.062.041.041.071.062.092.062.164,0,.317-.072.461-.215.143-.143.296-.246.46-.307l4.913-4.544,1.259-1.934c.102-.143.302-.302.599-.476.297-.173.599-.266.905-.276.308-.01.578.087.814.292.234.205.353.604.353,1.197ZM326.688,137.433c.103-.082.144-.204.123-.368-.021-.164-.077-.307-.169-.43-.092-.123-.21-.199-.353-.23-.144-.031-.276.046-.399.23-.062.082-.169.246-.322.491-.153.246-.308.497-.461.752-.153.256-.281.476-.384.66s-.123.256-.062.215l2.026-1.32Z" fill="#c31313"/>
      <path d="M343.023,147.504c-.287-.409-.527-.977-.722-1.704-.195-.726-.379-1.494-.553-2.303-.175-.808-.333-1.597-.477-2.364-.143-.768-.291-1.381-.444-1.842-.154-.461-.323-.722-.507-.783-.185-.062-.399.215-.645.829l-2.672,8.229c-.103.287-.226.486-.368.599-.144.113-.379.169-.706.169-.164,0-.338-.025-.522-.077-.184-.051-.358-.128-.521-.23-.164-.102-.303-.225-.415-.369-.112-.143-.179-.307-.199-.491.062-.246.117-.695.169-1.351.051-.655.087-1.413.107-2.272.021-.859.035-1.765.046-2.717.011-.952.011-1.842,0-2.671s-.025-1.545-.046-2.149c-.021-.604-.041-.998-.062-1.182,0-.204.005-.414.016-.629.01-.215.041-.414.092-.599.051-.184.144-.333.276-.445.133-.112.343-.168.63-.168.389,0,.752.164,1.09.491.338.328.507.675.507,1.044,0,.532-.026,1.059-.077,1.581-.052.522-.077,1.049-.077,1.581v.829c0,.226.041.502.123.829.062-.164.164-.45.308-.86.143-.409.302-.839.476-1.29.174-.45.332-.875.476-1.274.144-.399.246-.68.308-.845.143-.409.357-.803.645-1.182.286-.379.665-.588,1.136-.629.308-.021.588.061.845.246.256.184.476.425.66.721.184.297.338.604.46.921.123.317.215.588.276.813l1.658,7.645,1.29,3.5c.02.021.03.077.03.168v.2c0,.246-.057.486-.169.722s-.312.353-.599.353c-.349,0-.706-.097-1.074-.292-.369-.194-.625-.445-.768-.752Z" fill="#c31313"/>
    </g>
  </g>
</svg>