<?xml version="1.0" encoding="UTF-8"?>
<svg id="Layer_2" data-name="Layer 2" xmlns="http://www.w3.org/2000/svg" viewBox="0 0 413.038 161.094">
  <g id="Layer_1-2" data-name="Layer 1">
    <g>
      <path d="M154.272,17.724c-1.504-1.612-3.251-3.005-5.197-4.142-4.292-2.504-9.822-3.722-16.907-3.722-7.173,0-13.07,1.395-17.527,4.144-3.565,2.199-6.345,5.129-8.311,8.726-.005-.228-.016-.456-.048-.682-.236-1.658-1.052-4.842-3.852-7.539-1.922-1.849-4.437-3.087-7.083-3.487-.279-.042-.562-.063-.846-.063h-30.231c-3.131,0-5.669,2.539-5.669,5.669v18.164c-.449-3.559-1.247-6.684-2.414-9.431-2.169-5.105-5.935-8.892-11.196-11.256-4.72-2.118-10.876-3.147-18.821-3.147H5.669c-3.131,0-5.669,2.539-5.669,5.669v81c0,3.131,2.538,5.669,5.669,5.669h20.7c7.903,0,14.028-1.054,18.725-3.222,5.215-2.406,8.951-6.246,11.106-11.413,1.16-2.778,1.953-5.931,2.4-9.518v15.731c0,2.212,1.286,4.222,3.295,5.148.759.35,1.568.521,2.373.521,1.324,0,2.635-.464,3.682-1.356l17.899-15.278c1.262-1.077,1.988-2.653,1.988-4.313v-12.6h8.431c3.131,0,5.669-2.538,5.669-5.669v-12.4c0-3.131-2.538-5.669-5.669-5.669h-8.431v-8.761h12.831c.756,0,1.476-.151,2.135-.419-.4,2.669-.606,5.522-.606,8.55v15.034c0,2.212,1.286,4.222,3.295,5.148.759.35,1.568.521,2.373.521,1.324,0,2.635-.464,3.682-1.356l18.101-15.45,11.591-9.893,12.569-10.729c1.177-1.004,1.892-2.446,1.979-3.991s-.46-3.058-1.516-4.189Z" fill="#ff4634"/>
      <path d="M149.85,23.244c-1.867,0-3.25.5-4.15,1.5s-1.467,2.25-1.7,3.75c-.234,1.5-.35,3.084-.35,4.75v4.085l11.591-9.893c-.238-1.065-.664-1.983-1.291-2.741-.8-.966-2.167-1.45-4.1-1.45Z" fill="none"/>
      <path d="M398.28,22.277h-20.7c-7.903,0-14.028,1.054-18.725,3.222-5.066,2.337-8.724,6.04-10.905,10.985v-2.317c0-.268-.019-.535-.057-.801-.236-1.658-1.051-4.842-3.852-7.538-1.921-1.85-4.437-3.089-7.083-3.488-.279-.042-.562-.063-.846-.063h-30.232c-3.131,0-5.669,2.539-5.669,5.669v18.158c-.449-3.557-1.246-6.679-2.413-9.424-2.169-5.105-5.935-8.892-11.196-11.255-4.72-2.118-10.876-3.147-18.821-3.147h-20.5c-3.131,0-5.669,2.539-5.669,5.669v22.895l-.135-1.282c-.656-6.245-2.131-11.624-4.385-15.99-2.524-4.89-6.306-8.51-11.24-10.76-3.473-1.581-7.654-2.383-12.43-2.383-1.678,0-3.465.099-5.312.293-7.133.75-12.625,2.625-16.79,5.731-4.076,3.042-6.894,7.077-8.417,11.978-.257-.844-.534-1.672-.851-2.471-1.022-2.581-2.491-4.908-4.365-6.917-1.113-1.194-2.626-1.802-4.146-1.802-1.304,0-2.613.448-3.679,1.357l-12.569,10.729c-1.598,1.363-2.311,3.498-1.853,5.548.023.102.047.205.059.306.143,1.266.215,2.601.215,3.967v8.1c0,1.234.399,2.373,1.068,3.304h-1.73v-7.019c0-2.212-1.286-4.222-3.295-5.148-.759-.35-1.568-.521-2.373-.521-1.324,0-2.635.464-3.682,1.357l-18.101,15.449c-1.262,1.077-1.988,2.653-1.988,4.313v14.166c0,2.953.205,5.748.602,8.376-.604-.219-1.252-.345-1.931-.345h-13.031v-.263c0-2.212-1.286-4.222-3.295-5.148-.759-.35-1.568-.521-2.373-.521-1.324,0-2.635.464-3.682,1.356l-17.899,15.278c-1.262,1.077-1.988,2.653-1.988,4.313v2.753c0,3.131,2.538,5.669,5.669,5.669h30.368c3.01-.031,5.982-1.229,8.155-3.288,3.009-2.851,3.625-6.31,3.726-8.134,1.948,3.436,4.654,6.256,8.089,8.407,4.466,2.797,10.374,4.215,17.56,4.215s12.825-1.312,17.149-4.009c4.433-2.765,7.598-6.605,9.407-11.416,1.601-4.259,2.412-9.085,2.412-14.345v-2.756l.262,2.49c.648,6.173,2.118,11.543,4.368,15.961,2.521,4.953,6.277,8.626,11.166,10.916,3.491,1.637,7.696,2.467,12.497,2.467,1.632,0,3.367-.096,5.157-.283,7.103-.746,12.804-2.7,16.947-5.808,2.833-2.125,5.053-4.734,6.663-7.775v7.689c0,3.131,2.538,5.669,5.669,5.669h20.7c7.903,0,14.028-1.054,18.725-3.222,5.215-2.406,8.951-6.246,11.106-11.413,1.16-2.776,1.952-5.927,2.399-9.511v18.477c0,3.131,2.538,5.669,5.669,5.669h30.369c3.01-.031,5.981-1.229,8.153-3.287,3.36-3.183,3.74-7.13,3.747-8.706v-1.6c2.215,4.69,5.834,8.212,10.809,10.447,4.72,2.117,10.876,3.146,18.821,3.146h20.5c3.131,0,5.669-2.538,5.669-5.669V27.946c0-3.131-2.538-5.669-5.669-5.669Z" fill="#ff4634"/>
      <path d="M406.514,13.272h-20.7c-7.903,0-14.028,1.054-18.725,3.222-5.066,2.337-8.724,6.04-10.905,10.985v-2.317c0-.268-.019-.535-.057-.801-.236-1.658-1.051-4.842-3.852-7.538-1.921-1.85-4.437-3.089-7.083-3.488-.279-.042-.562-.063-.846-.063h-30.232c-3.131,0-5.669,2.539-5.669,5.669v18.158c-.449-3.557-1.246-6.679-2.413-9.424-2.169-5.105-5.935-8.892-11.196-11.255-4.72-2.118-10.876-3.147-18.821-3.147h-20.5c-3.131,0-5.669,2.539-5.669,5.669v22.895l-.135-1.282c-.656-6.245-2.131-11.624-4.385-15.99-2.524-4.89-6.306-8.51-11.24-10.76-3.473-1.581-7.654-2.383-12.43-2.383-1.678,0-3.465.099-5.312.293-7.133.75-12.625,2.625-16.79,5.731-4.076,3.042-6.894,7.077-8.417,11.978-.257-.844-.534-1.672-.851-2.471-1.022-2.581-2.491-4.908-4.365-6.917-1.113-1.194-2.626-1.802-4.146-1.802-1.304,0-2.613.448-3.679,1.357l-12.569,10.729c-1.598,1.363-2.311,3.498-1.853,5.548.023.102.047.205.059.306.143,1.266.215,2.601.215,3.967v8.1c0,1.234.399,2.373,1.068,3.304h-1.73v-7.019c0-2.212-1.286-4.222-3.295-5.148-.759-.35-1.568-.521-2.373-.521-1.324,0-2.635.464-3.682,1.357l-18.101,15.449c-1.262,1.077-1.988,2.653-1.988,4.313v14.166c0,2.953.205,5.748.602,8.376-.604-.219-1.252-.345-1.931-.345h-13.031v-.263c0-2.212-1.286-4.222-3.295-5.148-.759-.35-1.568-.521-2.373-.521-1.324,0-2.635.464-3.682,1.356l-17.899,15.278c-1.262,1.077-1.988,2.653-1.988,4.313v2.753c0,3.131,2.538,5.669,5.669,5.669h30.368c3.01-.031,5.982-1.229,8.155-3.288,3.009-2.851,3.625-6.31,3.726-8.134,1.948,3.436,4.654,6.256,8.089,8.407,4.466,2.797,10.374,4.215,17.56,4.215s12.825-1.312,17.149-4.009c4.433-2.765,7.598-6.605,9.407-11.416,1.601-4.259,2.412-9.085,2.412-14.345v-2.756l.262,2.49c.648,6.173,2.118,11.543,4.368,15.961,2.521,4.953,6.277,8.626,11.166,10.916,3.491,1.637,7.696,2.467,12.497,2.467,1.632,0,3.367-.096,5.157-.283,7.103-.746,12.804-2.7,16.947-5.808,2.833-2.125,5.053-4.734,6.663-7.775v7.689c0,3.131,2.538,5.669,5.669,5.669h20.7c7.903,0,14.028-1.054,18.725-3.222,5.215-2.406,8.951-6.246,11.106-11.413,1.16-2.776,1.952-5.927,2.399-9.511v18.477c0,3.131,2.538,5.669,5.669,5.669h30.369c3.01-.031,5.981-1.229,8.153-3.287,3.36-3.183,3.74-7.13,3.747-8.706v-1.6c2.215,4.69,5.834,8.212,10.809,10.447,4.72,2.117,10.876,3.146,18.821,3.146h20.5c3.131,0,5.669-2.538,5.669-5.669V18.941c0-3.131-2.538-5.669-5.669-5.669Z" stroke="#ff4634" stroke-miterlimit="10" stroke-width="1.711"/>
      <path d="M314.407,99.605V18.605h30.232c.64.097,2.424.452,3.996,1.966,1.722,1.658,2.084,3.639,2.172,4.255v5.979h-18.5v20.1h14.1v12.4h-14.1v24.2h18.7v5.775c-.002.41-.053,2.767-1.976,4.59-1.749,1.658-3.841,1.73-4.314,1.734-10.103,0-20.207,0-30.31,0Z" fill="#f5f5f5"/>
      <path d="M225.936,99.861c-6.034.634-10.919.074-14.656-1.677-3.738-1.752-6.578-4.538-8.52-8.355-1.945-3.818-3.204-8.477-3.783-13.981l-3.146-29.935c-.585-5.57-.322-10.389.793-14.463,1.113-4.071,3.317-7.336,6.612-9.795,3.294-2.457,7.958-4.003,13.992-4.637,6.099-.641,11.032-.104,14.799,1.611,3.765,1.716,6.617,4.45,8.553,8.201,1.936,3.753,3.198,8.412,3.783,13.982l3.146,29.935c.578,5.504.313,10.324-.793,14.462-1.108,4.138-3.323,7.456-6.646,9.949-3.325,2.494-8.036,4.062-14.136,4.704ZM224.609,87.23c1.855-.195,3.166-.801,3.931-1.821.763-1.018,1.202-2.271,1.315-3.758.111-1.486.087-2.991-.073-4.517l-4.077-38.786c-.167-1.591-.459-3.084-.873-4.483-.416-1.397-1.104-2.515-2.062-3.353-.96-.838-2.369-1.159-4.224-.964-1.725.181-2.97.782-3.733,1.8-.765,1.019-1.205,2.256-1.32,3.708-.115,1.455-.089,2.976.078,4.567l4.077,38.786c.16,1.526.432,3.006.818,4.439.384,1.434,1.04,2.572,1.967,3.413.926.842,2.318,1.164,4.175.969Z" fill="#f5f5f5"/>
      <path d="M255.807,99.605V18.605h20.5c7.065,0,12.565.885,16.5,2.65,3.933,1.767,6.7,4.534,8.3,8.3,1.601,3.767,2.4,8.649,2.4,14.649v29.4c0,6.067-.8,11.018-2.4,14.85-1.6,3.835-4.35,6.65-8.25,8.45-3.899,1.8-9.35,2.7-16.35,2.7h-20.7ZM273.707,87.205h2.8c2.732,0,4.7-.399,5.9-1.199,1.199-.801,1.949-2,2.25-3.601.3-1.6.449-3.6.449-6v-35.3c0-2.4-.184-4.333-.55-5.8-.367-1.466-1.149-2.533-2.35-3.2-1.2-.666-3.135-1-5.8-1h-2.7v56.1Z" fill="#f5f5f5"/>
      <path d="M406.806,18.605v81h-20.5c-7.065,0-12.565-.885-16.5-2.65-3.933-1.767-6.7-4.534-8.3-8.3-1.601-3.767-2.4-8.649-2.4-14.649v-29.4c0-6.067.8-11.018,2.4-14.85,1.6-3.835,4.35-6.65,8.25-8.45,3.899-1.8,9.35-2.7,16.35-2.7h20.7ZM388.905,31.005h-2.8c-2.732,0-4.7.399-5.9,1.199-1.199.801-1.949,2-2.25,3.601-.3,1.6-.449,3.6-.449,6v35.3c0,2.4.185,4.333.55,5.8.367,1.466,1.149,2.533,2.35,3.2,1.2.666,3.135,1,5.8,1h2.7V31.005Z" fill="#f5f5f5"/>
      <path d="M96.21,99.605h30.31c.473-.005,2.565-.077,4.314-1.734,1.923-1.823,1.974-4.18,1.976-4.59v-5.775h-18.7v-5.932l-17.9,15.278v2.753Z" fill="#f5f5f5"/>
      <path d="M139.808,73.805c0,5.467.733,10.217,2.2,14.25,1.466,4.034,3.983,7.167,7.55,9.399,3.566,2.233,8.416,3.351,14.551,3.351,6.065,0,10.782-1.05,14.149-3.15,3.366-2.1,5.733-4.966,7.101-8.6,1.365-3.633,2.05-7.75,2.05-12.351v-7h-17.5v8.5c0,1.601-.101,3.168-.3,4.7-.2,1.534-.7,2.784-1.5,3.75-.801.968-2.135,1.45-4,1.45-1.734,0-3.051-.45-3.95-1.35s-1.5-2.101-1.8-3.601c-.301-1.5-.45-3.149-.45-4.95v-34.015l-18.101,15.45v14.166Z" fill="#f5f5f5"/>
      <path d="M182.069,23.568l-12.57,10.729c.066.293.123.592.159.908.165,1.468.25,3,.25,4.601v8.1h17.5v-7c0-4.6-.7-8.665-2.101-12.2-.774-1.955-1.862-3.661-3.239-5.137Z" fill="#f5f5f5"/>
      <path d="M162.507,8.72c-1.504-1.612-3.251-3.005-5.197-4.142-4.292-2.504-9.822-3.722-16.907-3.722-7.173,0-13.07,1.395-17.527,4.144-3.565,2.199-6.345,5.129-8.311,8.726-.005-.228-.016-.456-.048-.682-.236-1.658-1.052-4.842-3.852-7.539-1.922-1.849-4.437-3.087-7.083-3.487-.279-.042-.562-.063-.846-.063h-30.231c-3.131,0-5.669,2.539-5.669,5.669v18.164c-.449-3.559-1.247-6.684-2.414-9.431-2.169-5.105-5.935-8.892-11.196-11.256-4.72-2.118-10.876-3.147-18.821-3.147H13.903c-3.131,0-5.669,2.539-5.669,5.669v81c0,3.131,2.538,5.669,5.669,5.669h20.7c7.903,0,14.028-1.054,18.725-3.222,5.215-2.406,8.951-6.246,11.106-11.413,1.16-2.778,1.953-5.931,2.4-9.518v15.731c0,2.212,1.286,4.222,3.295,5.148.759.35,1.568.521,2.373.521,1.324,0,2.635-.464,3.682-1.356l17.899-15.278c1.262-1.077,1.988-2.653,1.988-4.313v-12.6h8.431c3.131,0,5.669-2.538,5.669-5.669v-12.4c0-3.131-2.538-5.669-5.669-5.669h-8.431v-8.761h12.831c.756,0,1.476-.151,2.135-.419-.4,2.669-.606,5.522-.606,8.55v15.034c0,2.212,1.286,4.222,3.295,5.148.759.35,1.568.521,2.373.521,1.324,0,2.635-.464,3.682-1.356l18.101-15.45,11.591-9.893,12.569-10.729c1.177-1.004,1.892-2.446,1.979-3.991s-.46-3.058-1.516-4.189Z" stroke="#ff4634" stroke-miterlimit="10" stroke-width="1.711"/>
      <path d="M14.195,88.288V7.288h20.5c7.065,0,12.565.885,16.5,2.65,3.933,1.767,6.7,4.534,8.3,8.3,1.6,3.767,2.4,8.649,2.4,14.649v29.4c0,6.067-.8,11.018-2.4,14.85-1.6,3.835-4.35,6.65-8.25,8.45-3.9,1.8-9.35,2.7-16.35,2.7H14.195ZM32.095,75.888h2.8c2.732,0,4.7-.399,5.9-1.199,1.2-.801,1.95-2,2.25-3.601.3-1.6.45-3.6.45-6V29.788c0-2.4-.184-4.333-.55-5.8-.367-1.466-1.15-2.533-2.35-3.2-1.2-.666-3.134-1-5.8-1h-2.7v56.1Z" fill="#f5f5f5"/>
      <path d="M104.795,51.988v-12.4h-14.1v-20.1h18.5v-5.979c-.088-.616-.45-2.597-2.172-4.255-1.573-1.514-3.356-1.869-3.996-1.966h-30.232v78.247l17.9-15.278v-18.269h14.1Z" fill="#f5f5f5"/>
      <path d="M154.744,9.138c-3.367-1.965-8.05-2.949-14.05-2.949-6.135,0-10.984,1.1-14.551,3.3-3.566,2.2-6.084,5.317-7.55,9.35-1.467,4.034-2.2,8.851-2.2,14.45v15.034l18.101-15.45v-4.085c0-1.666.115-3.25.35-4.75.233-1.5.8-2.75,1.7-3.75.9-1,2.283-1.5,4.15-1.5,1.933,0,3.3.484,4.1,1.45.627.758,1.053,1.676,1.291,2.741l12.57-10.729c-1.111-1.191-2.407-2.235-3.91-3.113Z" fill="#f5f5f5"/>
    </g>
    <g>
      <path d="M72.869,146.725c-.256-.119-.435-.27-.537-.453-.103-.182-.148-.365-.138-.547.01-.182.056-.298.138-.345.062-.016.2-.079.415-.19.215-.111.342-.183.384-.214.02,0,.046-.012.076-.036.031-.024.057-.043.077-.06v-.429c0-.889-.066-1.766-.2-2.631-.133-.865-.199-1.734-.199-2.607,0-.572.016-1.167.046-1.786.031-.619.164-1.191.399-1.714.235-.524.608-.953,1.121-1.286.511-.333,1.248-.5,2.21-.5h.584c.225,0,.435.02.629.06s.363.111.507.214c.143.104.215.25.215.44,0,.286-.087.473-.261.56-.175.087-.395.143-.66.167-.267.023-.543.056-.829.095-.287.04-.532.163-.737.369-.041.032-.092.115-.153.25s-.092.226-.092.273c-.041.111-.082.262-.123.453s-.077.381-.107.571-.062.361-.092.512c-.031.151-.046.234-.046.25v.179c0,.104-.006.226-.016.369-.011.143-.016.29-.016.44v1.297c0,.286.01.568.031.846.02.278.051.559.092.845.041.286.092.603.153.952h.246l4.145-1.905c.286-.047.542-.127.768-.238.225-.111.48-.167.768-.167s.583.056.891.167c.307.111.46.286.46.524,0,.175-.051.302-.153.381-.103.08-.184.19-.245.333-.082.016-.236.063-.461.143-.226.08-.379.135-.461.167-.164.08-.425.202-.782.369-.358.167-.732.341-1.121.524s-.747.353-1.074.512c-.328.159-.543.262-.646.31-.143.08-.317.175-.521.286-.205.111-.404.226-.599.345-.195.119-.436.266-.722.44v.238l.799,2.023c-.021.048-.026.1-.016.155.01.056.056.1.138.131l1.443,3.404c.103.286.025.524-.23.714s-.548.286-.875.286c-.368,0-.727-.075-1.074-.226-.349-.15-.573-.377-.676-.679l-1.688-4.309-.123-.19c-.45.063-.804.036-1.06-.083Z" fill="#f5f5f5"/>
      <path d="M81.696,148.309l1.137-6.119c.04-.206.158-.357.353-.453s.415-.143.66-.143c.45,0,.809.099,1.075.297.266.199.491.44.675.727h.031c.245,0,.465-.036.66-.107.194-.071.435-.107.722-.107.654,0,1.213.159,1.673.476.461.318.834.702,1.121,1.155.286.452.496.94.629,1.464.133.523.2.984.2,1.381,0,.476-.159,1.008-.477,1.595-.317.587-.736,1.143-1.259,1.667-.521.524-1.11.96-1.766,1.31s-1.32.524-1.995.524c-.614,0-1.142-.111-1.581-.333-.44-.222-.799-.504-1.075-.845s-.476-.726-.599-1.155-.185-.849-.185-1.262v-.071ZM84.275,148.451c.041.159.082.341.123.548.041.206.103.393.185.559.081.167.199.294.353.381.154.087.374.091.66.012.267-.19.553-.405.86-.643.307-.238.599-.492.875-.762.276-.27.507-.555.69-.857.185-.301.276-.619.276-.953.082-.54.031-1.036-.153-1.488-.185-.453-.445-.778-.783-.977-.338-.198-.722-.222-1.151-.071-.43.151-.859.56-1.289,1.226-.246.413-.415.893-.507,1.44-.092.548-.139,1.052-.139,1.512v.071Z" fill="#f5f5f5"/>
      <path d="M93.364,150.927c-.041-.571-.107-1.337-.199-2.297-.093-.96-.195-1.956-.308-2.988-.112-1.032-.23-2.008-.353-2.928-.123-.92-.226-1.635-.308-2.143,0-.206.123-.341.368-.405.246-.063.481-.095.707-.095.286,0,.588.063.905.19.317.127.517.302.599.524,0,.063.011.179.031.345.02.167.035.337.046.512.01.175.025.345.046.512.021.167.03.282.03.345v.345c0,.04.011.083.031.131.02.047.051.127.092.238.041-.032.087-.072.139-.119.051-.048.087-.08.107-.095.327-.365.645-.687.951-.964.308-.278.624-.54.952-.786.327-.246.69-.508,1.09-.786s.864-.599,1.397-.964c.122-.08.215-.139.276-.179.061-.04.117-.071.169-.095.051-.024.107-.04.168-.048.062-.008.144-.012.246-.012.348,0,.701.092,1.06.274.357.183.537.433.537.75,0,.111-.052.226-.153.345-.103.119-.226.23-.369.333s-.291.194-.445.273c-.153.08-.291.135-.414.167-.532.365-1.095.782-1.688,1.25s-1.146.972-1.658,1.512-.932,1.104-1.259,1.69c-.328.587-.491,1.175-.491,1.762,0,.54.051,1.072.153,1.595.103.524.153,1.056.153,1.595v.833c-.164.127-.307.23-.43.31-.123.08-.297.119-.521.119-.349,0-.687-.115-1.014-.345s-.542-.464-.645-.703Z" fill="#f5f5f5"/>
      <path d="M115.777,150.285c0-.667.02-1.317.062-1.953.04-.635.061-1.286.061-1.952-.061-1.81-.082-3.583-.061-5.321.02-1.738-.082-3.52-.308-5.345,0-.301.092-.504.276-.607.185-.103.461-.155.829-.155.471,0,.875.107,1.213.322.338.214.517.512.537.893-.041,2.254-.005,4.488.107,6.703.112,2.214.169,4.456.169,6.726v1.833c-.123.127-.297.254-.521.381-.226.127-.451.175-.676.143-.594-.079-1.023-.266-1.29-.56-.266-.293-.398-.663-.398-1.107Z" fill="#f5f5f5"/>
      <path d="M119.953,133.689c0-.111.118-.21.354-.298.234-.087.414-.131.537-.131.307,0,.649.068,1.028.203s.568.337.568.607-.046.453-.139.548c-.092.095-.312.143-.66.143-.368,0-.742-.095-1.12-.286-.379-.19-.568-.452-.568-.786ZM121.673,151.046c-.205-1.587-.379-2.944-.522-4.071s-.266-2.071-.368-2.833c-.103-.762-.189-1.369-.261-1.821-.072-.452-.128-.793-.169-1.024-.041-.23-.072-.385-.092-.464-.021-.079-.031-.126-.031-.143v-.095c0-.175.097-.321.292-.44.194-.119.394-.179.599-.179.307,0,.64.04.998.119.357.08.599.246.722.5.184.778.312,1.563.384,2.357.071.794.133,1.583.184,2.369s.123,1.576.215,2.369c.093.794.262,1.58.507,2.357,0,.032.016.095.046.19.031.095.062.199.093.31.03.111.056.214.076.31s.031.159.031.19v.048c0,.016.01.032.03.047,0,.19-.112.381-.338.571s-.46.27-.706.238c-.062-.016-.21-.043-.445-.083-.235-.039-.395-.075-.476-.107-.062-.016-.144-.051-.246-.107-.103-.055-.199-.115-.291-.178-.093-.063-.169-.135-.23-.214-.062-.079-.062-.151,0-.214Z" fill="#f5f5f5"/>
      <path d="M130.177,151.046c0-.079.005-.151.015-.214.011-.063.057-.127.139-.19.245-.238.521-.488.829-.75.307-.262.604-.524.89-.786.287-.262.553-.536.799-.821.245-.286.45-.572.614-.857v-.143l-4.022.643h-.461c-.286,0-.64-.016-1.059-.047-.42-.032-.829-.099-1.229-.203-.399-.103-.736-.25-1.013-.44s-.415-.444-.415-.762c.021-.365.266-.77.737-1.214.471-.444,1.023-.881,1.658-1.31.634-.429,1.273-.825,1.919-1.19.645-.365,1.161-.65,1.55-.857.43-.19.941-.345,1.535-.464s1.137-.179,1.628-.179c.409,0,.768.06,1.074.179s.461.354.461.702c0,.143-.016.278-.047.405-.03.127-.158.214-.384.262-.655-.048-1.269-.012-1.842.107s-1.116.298-1.627.536c-.512.238-.993.52-1.443.845-.45.326-.891.663-1.32,1.012-.123.111-.276.266-.461.464-.184.199-.275.314-.275.345v.024c.531,0,1.059-.04,1.581-.119.521-.079,1.044-.163,1.565-.25.522-.087,1.044-.17,1.566-.25.521-.079,1.059-.119,1.611-.119.204,0,.43.012.676.036.245.024.476.075.69.155s.389.187.522.321c.133.135.199.306.199.512,0,.302-.098.592-.292.869-.194.278-.48.611-.859,1-.379.389-.859.861-1.443,1.417-.583.556-1.273,1.271-2.072,2.143-.041.047-.138.08-.291.095-.154.016-.282.024-.384.024-.287,0-.579-.095-.876-.286s-.444-.405-.444-.643Z" fill="#f5f5f5"/>
      <path d="M141.137,144.999c-.286,0-.542.056-.768.167-.226.111-.491.167-.798.167-.041,0-.148-.003-.322-.012-.175-.008-.282-.012-.322-.012-.082-.08-.175-.143-.276-.191-.103-.047-.205-.099-.308-.154s-.189-.123-.261-.203c-.072-.079-.107-.19-.107-.333,0-.238.123-.432.368-.583.246-.151.532-.282.86-.393.327-.111.66-.214.997-.31.338-.095.609-.206.814-.333v-1.048c0-1.174-.072-2.353-.215-3.536-.144-1.182-.216-2.353-.216-3.512,0-.317.103-.524.308-.619.204-.095.48-.143.829-.143.409,0,.711.092.905.274.194.183.333.405.415.667.081.262.122.54.122.833s.011.544.031.75c0,.207.021.571.062,1.095s.081,1.08.123,1.667c.04.587.081,1.143.122,1.667.041.523.071.889.093,1.095.081-.016.24-.06.476-.131.235-.072.486-.143.752-.214.266-.072.517-.139.753-.203.234-.063.403-.111.506-.143.532-.175,1.085-.369,1.658-.583s1.156-.321,1.75-.321c.409,0,.722.107.937.321s.322.464.322.75c0,.207-.103.357-.307.452-.205.095-.42.183-.645.262l-5.589,1.619c-.061.032-.122.059-.184.083s-.123.06-.185.107v.762c0,.556.016,1.131.046,1.726.031.595.098,1.171.2,1.726.102.477.215.945.338,1.405.122.461.184.929.184,1.405,0,.143-.062.333-.184.572-.123.238-.318.357-.584.357-.553,0-1.003-.127-1.351-.381-.349-.254-.543-.595-.584-1.024-.103-.825-.21-1.73-.322-2.714-.112-.984-.22-1.928-.322-2.833h-.123Z" fill="#f5f5f5"/>
      <path d="M164.565,145.189c-.041.286-.087.508-.138.667-.052.159-.139.302-.262.429-.122.127-.297.258-.521.393-.226.135-.532.326-.921.572-.39.246-.87.567-1.443.964-.573.397-1.27.913-2.088,1.548-.327.238-.665.484-1.013.738-.349.254-.712.48-1.091.678-.379.199-.772.361-1.182.488-.41.127-.84.19-1.289.19-.881,0-1.525-.23-1.935-.69-.41-.46-.614-.992-.614-1.595,0-.396.016-.73.046-1,.031-.27.107-.619.23-1.048-.226-.158-.42-.297-.583-.417-.164-.119-.246-.282-.246-.488,0-.19.057-.317.169-.381.112-.063.245-.107.399-.131.153-.024.302-.051.445-.083.143-.031.245-.095.307-.19.041-.095.117-.27.23-.523.112-.254.23-.52.353-.798.123-.277.24-.54.354-.786.112-.246.188-.417.23-.512.143-.27.302-.544.476-.822.174-.277.379-.527.614-.75.235-.222.512-.405.829-.547.316-.143.69-.214,1.12-.214.246,0,.548.087.906.262.357.175.701.385,1.028.631.327.247.604.504.829.774.225.27.338.5.338.69,0,.238-.072.457-.215.655-.144.199-.322.381-.538.548-.215.167-.444.321-.69.464-.245.143-.471.278-.676.405-.021,0-.061.016-.122.047-.062.032-.113.056-.154.071-.021.016-.066.052-.138.107-.072.056-.148.115-.23.179s-.158.127-.23.19c-.071.063-.118.103-.138.119-.062.048-.18.124-.354.227s-.363.214-.567.333c-.205.119-.395.23-.568.333-.174.104-.292.171-.354.202l-.122.191c-.042.063-.077.202-.107.417-.031.214-.067.457-.107.726-.042.27-.077.544-.107.821-.031.278-.047.504-.047.679,0,.016.011.032.031.048.041.032.071.047.092.047.164,0,.317-.055.461-.167.143-.111.296-.19.46-.238l4.913-3.524,1.259-1.5c.102-.111.302-.234.599-.369s.599-.206.905-.214c.308-.008.578.067.814.226.234.159.353.468.353.929ZM157.81,143.332c.103-.063.144-.158.123-.286-.021-.127-.077-.238-.169-.333s-.21-.155-.353-.179c-.144-.024-.276.036-.399.179-.062.063-.169.19-.322.381s-.308.385-.461.583c-.153.199-.281.369-.384.512-.103.143-.123.199-.062.167l2.026-1.024Z" fill="#f5f5f5"/>
      <path d="M174.144,151.142c-.287-.317-.527-.758-.722-1.321-.195-.563-.379-1.159-.553-1.786s-.333-1.238-.476-1.833c-.144-.595-.292-1.071-.445-1.429-.154-.357-.322-.559-.507-.607s-.399.167-.645.643l-2.672,6.381c-.103.222-.226.377-.368.464-.144.088-.379.131-.706.131-.164,0-.338-.02-.522-.06-.184-.04-.358-.099-.521-.179-.164-.079-.303-.174-.415-.286-.112-.111-.179-.238-.199-.381.062-.19.117-.54.169-1.048.051-.508.087-1.095.107-1.762s.035-1.369.046-2.107c.011-.738.011-1.429,0-2.072-.011-.643-.025-1.198-.046-1.667s-.041-.774-.062-.917c0-.159.005-.322.016-.488.01-.167.041-.321.092-.464.051-.143.144-.258.276-.345.133-.087.343-.131.63-.131.389,0,.752.127,1.09.381.338.254.507.524.507.81,0,.413-.026.821-.077,1.226-.052.405-.077.814-.077,1.226v.643c0,.175.041.389.123.643.062-.127.164-.349.308-.667.143-.317.302-.65.476-1,.174-.349.332-.678.476-.988s.246-.528.308-.655c.143-.317.357-.623.645-.917.286-.293.665-.456,1.136-.488.308-.016.588.047.845.19.256.143.476.33.66.56.184.23.338.468.46.714.123.246.215.456.276.631l1.658,5.928,1.29,2.714c.02.016.03.06.03.131v.155c0,.19-.057.377-.169.56-.112.183-.312.274-.599.274-.349,0-.706-.075-1.074-.226-.369-.151-.625-.345-.768-.583Z" fill="#f5f5f5"/>
      <path d="M190.939,145.189c-.041.286-.087.508-.138.667-.052.159-.139.302-.262.429-.122.127-.297.258-.521.393-.226.135-.532.326-.921.572-.39.246-.87.567-1.443.964-.573.397-1.27.913-2.088,1.548-.327.238-.665.484-1.013.738-.349.254-.712.48-1.091.678-.379.199-.772.361-1.182.488-.41.127-.84.19-1.289.19-.881,0-1.525-.23-1.935-.69-.41-.46-.614-.992-.614-1.595,0-.396.016-.73.046-1,.031-.27.107-.619.23-1.048-.226-.158-.42-.297-.583-.417-.164-.119-.246-.282-.246-.488,0-.19.057-.317.169-.381.112-.063.245-.107.399-.131.153-.024.302-.051.445-.083.143-.031.245-.095.307-.19.041-.095.117-.27.23-.523.112-.254.23-.52.353-.798.123-.277.24-.54.354-.786.112-.246.188-.417.23-.512.143-.27.302-.544.476-.822.174-.277.379-.527.614-.75.235-.222.512-.405.829-.547.316-.143.69-.214,1.12-.214.246,0,.548.087.906.262.357.175.701.385,1.028.631.327.247.604.504.829.774.225.27.338.5.338.69,0,.238-.072.457-.215.655-.144.199-.322.381-.538.548-.215.167-.444.321-.69.464-.245.143-.471.278-.676.405-.021,0-.061.016-.122.047-.062.032-.113.056-.154.071-.021.016-.066.052-.138.107-.072.056-.148.115-.23.179s-.158.127-.23.19c-.071.063-.118.103-.138.119-.062.048-.18.124-.354.227s-.363.214-.567.333c-.205.119-.395.23-.568.333-.174.104-.292.171-.354.202l-.122.191c-.042.063-.077.202-.107.417-.031.214-.067.457-.107.726-.042.27-.077.544-.107.821-.031.278-.047.504-.047.679,0,.016.011.032.031.048.041.032.071.047.092.047.164,0,.317-.055.461-.167.143-.111.296-.19.46-.238l4.913-3.524,1.259-1.5c.102-.111.302-.234.599-.369s.599-.206.905-.214c.308-.008.578.067.814.226.234.159.353.468.353.929ZM184.184,143.332c.103-.063.144-.158.123-.286-.021-.127-.077-.238-.169-.333s-.21-.155-.353-.179c-.144-.024-.276.036-.399.179-.062.063-.169.19-.322.381s-.308.385-.461.583c-.153.199-.281.369-.384.512-.103.143-.123.199-.062.167l2.026-1.024Z" fill="#f5f5f5"/>
      <path d="M193.15,150.927c-.041-.571-.107-1.337-.199-2.297-.093-.96-.195-1.956-.308-2.988-.112-1.032-.23-2.008-.353-2.928-.123-.92-.226-1.635-.308-2.143,0-.206.123-.341.368-.405.246-.063.481-.095.707-.095.286,0,.588.063.905.19.317.127.517.302.599.524,0,.063.011.179.031.345.02.167.035.337.046.512.01.175.025.345.046.512.021.167.03.282.03.345v.345c0,.04.011.083.031.131.02.047.051.127.092.238.041-.032.087-.072.139-.119.051-.048.087-.08.107-.095.327-.365.645-.687.951-.964.308-.278.624-.54.952-.786.327-.246.69-.508,1.09-.786s.864-.599,1.397-.964c.122-.08.215-.139.276-.179.061-.04.117-.071.169-.095.051-.024.107-.04.168-.048.062-.008.144-.012.246-.012.348,0,.701.092,1.06.274.357.183.537.433.537.75,0,.111-.052.226-.153.345-.103.119-.226.23-.369.333s-.291.194-.445.273c-.153.08-.291.135-.414.167-.532.365-1.095.782-1.688,1.25s-1.146.972-1.658,1.512-.932,1.104-1.259,1.69c-.328.587-.491,1.175-.491,1.762,0,.54.051,1.072.153,1.595.103.524.153,1.056.153,1.595v.833c-.164.127-.307.23-.43.31-.123.08-.297.119-.521.119-.349,0-.687-.115-1.014-.345s-.542-.464-.645-.703Z" fill="#f5f5f5"/>
      <path d="M207.366,151.046c0-.079.005-.151.015-.214.011-.063.057-.127.139-.19.245-.238.521-.488.829-.75.307-.262.604-.524.89-.786.287-.262.553-.536.799-.821.245-.286.45-.572.614-.857v-.143l-4.022.643h-.461c-.286,0-.64-.016-1.059-.047-.42-.032-.829-.099-1.229-.203-.399-.103-.736-.25-1.013-.44s-.415-.444-.415-.762c.021-.365.266-.77.737-1.214.471-.444,1.023-.881,1.658-1.31.634-.429,1.273-.825,1.919-1.19.645-.365,1.161-.65,1.55-.857.43-.19.941-.345,1.535-.464s1.137-.179,1.628-.179c.409,0,.768.06,1.074.179s.461.354.461.702c0,.143-.016.278-.047.405-.03.127-.158.214-.384.262-.655-.048-1.269-.012-1.842.107s-1.116.298-1.627.536c-.512.238-.993.52-1.443.845-.45.326-.891.663-1.32,1.012-.123.111-.276.266-.461.464-.184.199-.275.314-.275.345v.024c.531,0,1.059-.04,1.581-.119.521-.079,1.044-.163,1.565-.25.522-.087,1.044-.17,1.566-.25.521-.079,1.059-.119,1.611-.119.204,0,.43.012.676.036.245.024.476.075.69.155s.389.187.522.321c.133.135.199.306.199.512,0,.302-.098.592-.292.869-.194.278-.48.611-.859,1-.379.389-.859.861-1.443,1.417-.583.556-1.273,1.271-2.072,2.143-.041.047-.138.08-.291.095-.154.016-.282.024-.384.024-.287,0-.579-.095-.876-.286s-.444-.405-.444-.643Z" fill="#f5f5f5"/>
      <path d="M231.591,150.808c-.123-.365-.481-1.297-1.074-2.797-.595-1.5-1.423-3.67-2.487-6.512,0-.032-.016-.099-.046-.203-.031-.103-.046-.17-.046-.202.04-.19.225-.306.553-.345.327-.04.572-.051.736-.036.45.047.783.159.998.333.215.175.394.429.537.762l1.781,4.547.122.119c.246-.317.389-.682.431-1.095.04-.413.097-.813.169-1.203.071-.389.209-.742.414-1.059.204-.317.594-.54,1.167-.667.123,0,.256.02.398.06.144.04.281.095.415.167.133.072.25.151.353.238.103.087.174.179.216.274l1.657,4.119.338.357c.082-.286.189-.746.322-1.381s.266-1.298.399-1.988c.133-.69.25-1.333.354-1.928.102-.596.173-1.004.215-1.227,0-.031.005-.087.015-.167.011-.079.016-.135.016-.167.164-.143.389-.25.676-.322.286-.071.542-.091.768-.06.081.016.188.052.322.107.133.056.261.127.384.214s.22.178.292.274c.071.095.107.183.107.262l-1.75,9.762c-.021.095-.093.171-.216.226-.122.056-.261.104-.414.143s-.307.063-.461.071c-.153.008-.271.012-.353.012-.491-.143-.916-.377-1.274-.703-.358-.325-.676-.687-.952-1.083-.276-.396-.521-.805-.736-1.226-.215-.42-.445-.797-.691-1.131l-.122-.024c-.144.111-.262.357-.354.738s-.169.786-.23,1.214c-.062.428-.112.813-.153,1.155s-.062.528-.062.56c-.041.222-.23.396-.567.523-.338.127-.641.175-.906.143-.287-.032-.537-.139-.752-.321s-.384-.361-.507-.536Z" fill="#f5f5f5"/>
      <path d="M243.995,140.309c.04-.953-.011-1.905-.153-2.857-.144-.952-.216-1.896-.216-2.833,0-.301.112-.488.338-.56s.481-.107.768-.107c.409,0,.747.087,1.014.262.266.175.419.42.46.738.185,1.73.292,3.44.323,5.131.03,1.69.179,3.401.444,5.131.614-.905,1.249-1.651,1.904-2.238.654-.587,1.284-.976,1.888-1.167s1.156-.155,1.658.107c.501.262.906.778,1.213,1.548s.491,1.817.553,3.143c.062,1.326-.041,2.973-.308,4.94-.143,0-.317.004-.521.012-.205.008-.404.004-.599-.012-.195-.016-.363-.047-.507-.095s-.226-.135-.245-.262c.163-1.19.255-2.19.276-3,.02-.81-.011-1.477-.093-2-.082-.524-.194-.925-.338-1.203-.143-.277-.297-.48-.46-.607-.164-.127-.322-.194-.476-.203-.154-.008-.272-.003-.354.012-.45.127-.875.437-1.274.928-.399.492-.742,1.064-1.028,1.714-.287.651-.497,1.337-.63,2.06-.133.723-.169,1.369-.107,1.94-.021.127-.041.254-.062.381-.021.127-.056.247-.107.357-.051.111-.133.202-.245.274-.113.071-.281.107-.507.107-.43,0-.772-.06-1.028-.179s-.45-.273-.583-.464c-.134-.19-.216-.413-.246-.667-.03-.253-.026-.516.016-.786l-.768-9.547Z" fill="#f5f5f5"/>
      <path d="M255.539,148.309l1.137-6.119c.04-.206.158-.357.353-.453s.415-.143.66-.143c.45,0,.809.099,1.075.297.266.199.491.44.675.727h.031c.245,0,.465-.036.66-.107.194-.071.435-.107.722-.107.654,0,1.213.159,1.673.476.461.318.834.702,1.121,1.155.286.452.496.94.629,1.464.133.523.2.984.2,1.381,0,.476-.159,1.008-.477,1.595-.317.587-.736,1.143-1.259,1.667-.521.524-1.11.96-1.766,1.31s-1.32.524-1.995.524c-.614,0-1.142-.111-1.581-.333-.44-.222-.799-.504-1.075-.845s-.476-.726-.599-1.155-.185-.849-.185-1.262v-.071ZM258.118,148.451c.041.159.082.341.123.548.041.206.103.393.185.559.081.167.199.294.353.381.154.087.374.091.66.012.267-.19.553-.405.86-.643.307-.238.599-.492.875-.762.276-.27.507-.555.69-.857.185-.301.276-.619.276-.953.082-.54.031-1.036-.153-1.488-.185-.453-.445-.778-.783-.977-.338-.198-.722-.222-1.151-.071-.43.151-.859.56-1.289,1.226-.246.413-.415.893-.507,1.44-.092.548-.139,1.052-.139,1.512v.071Z" fill="#f5f5f5"/>
      <path d="M278.659,150.285c0-.667.02-1.317.062-1.953.04-.635.061-1.286.061-1.952-.061-1.81-.082-3.583-.061-5.321.02-1.738-.082-3.52-.308-5.345,0-.301.092-.504.276-.607.185-.103.461-.155.829-.155.471,0,.875.107,1.213.322.338.214.517.512.537.893-.041,2.254-.005,4.488.107,6.703.112,2.214.169,4.456.169,6.726v1.833c-.123.127-.297.254-.521.381-.226.127-.451.175-.676.143-.594-.079-1.023-.266-1.29-.56-.266-.293-.398-.663-.398-1.107Z" fill="#f5f5f5"/>
      <path d="M282.834,133.689c0-.111.118-.21.354-.298.234-.087.414-.131.537-.131.307,0,.649.068,1.028.203s.568.337.568.607-.046.453-.139.548c-.092.095-.312.143-.66.143-.368,0-.742-.095-1.12-.286-.379-.19-.568-.452-.568-.786ZM284.553,151.046c-.205-1.587-.379-2.944-.522-4.071s-.266-2.071-.368-2.833c-.103-.762-.189-1.369-.261-1.821-.072-.452-.128-.793-.169-1.024-.041-.23-.072-.385-.092-.464-.021-.079-.031-.126-.031-.143v-.095c0-.175.097-.321.292-.44.194-.119.394-.179.599-.179.307,0,.64.04.998.119.357.08.599.246.722.5.184.778.312,1.563.384,2.357.071.794.133,1.583.184,2.369s.123,1.576.215,2.369c.093.794.262,1.58.507,2.357,0,.032.016.095.046.19.031.095.062.199.093.31.03.111.056.214.076.31s.031.159.031.19v.048c0,.016.01.032.03.047,0,.19-.112.381-.338.571s-.46.27-.706.238c-.062-.016-.21-.043-.445-.083-.235-.039-.395-.075-.476-.107-.062-.016-.144-.051-.246-.107-.103-.055-.199-.115-.291-.178-.093-.063-.169-.135-.23-.214-.062-.079-.062-.151,0-.214Z" fill="#f5f5f5"/>
      <path d="M293.059,151.046c0-.079.005-.151.015-.214.011-.063.057-.127.139-.19.245-.238.521-.488.829-.75.307-.262.604-.524.89-.786.287-.262.553-.536.799-.821.245-.286.45-.572.614-.857v-.143l-4.022.643h-.461c-.286,0-.64-.016-1.059-.047-.42-.032-.829-.099-1.229-.203-.399-.103-.736-.25-1.013-.44s-.415-.444-.415-.762c.021-.365.266-.77.737-1.214.471-.444,1.023-.881,1.658-1.31.634-.429,1.273-.825,1.919-1.19.645-.365,1.161-.65,1.55-.857.43-.19.941-.345,1.535-.464s1.137-.179,1.628-.179c.409,0,.768.06,1.074.179s.461.354.461.702c0,.143-.016.278-.047.405-.03.127-.158.214-.384.262-.655-.048-1.269-.012-1.842.107s-1.116.298-1.627.536c-.512.238-.993.52-1.443.845-.45.326-.891.663-1.32,1.012-.123.111-.276.266-.461.464-.184.199-.275.314-.275.345v.024c.531,0,1.059-.04,1.581-.119.521-.079,1.044-.163,1.565-.25.522-.087,1.044-.17,1.566-.25.521-.079,1.059-.119,1.611-.119.204,0,.43.012.676.036.245.024.476.075.69.155s.389.187.522.321c.133.135.199.306.199.512,0,.302-.098.592-.292.869-.194.278-.48.611-.859,1-.379.389-.859.861-1.443,1.417-.583.556-1.273,1.271-2.072,2.143-.041.047-.138.08-.291.095-.154.016-.282.024-.384.024-.287,0-.579-.095-.876-.286s-.444-.405-.444-.643Z" fill="#f5f5f5"/>
      <path d="M304.019,144.999c-.286,0-.542.056-.768.167-.226.111-.491.167-.798.167-.041,0-.148-.003-.322-.012-.175-.008-.282-.012-.322-.012-.082-.08-.175-.143-.276-.191-.103-.047-.205-.099-.308-.154s-.189-.123-.261-.203c-.072-.079-.107-.19-.107-.333,0-.238.123-.432.368-.583.246-.151.532-.282.86-.393.327-.111.66-.214.997-.31.338-.095.609-.206.814-.333v-1.048c0-1.174-.072-2.353-.215-3.536-.144-1.182-.216-2.353-.216-3.512,0-.317.103-.524.308-.619.204-.095.48-.143.829-.143.409,0,.711.092.905.274.194.183.333.405.415.667.081.262.122.54.122.833s.011.544.031.75c0,.207.021.571.062,1.095s.081,1.08.123,1.667c.04.587.081,1.143.122,1.667.041.523.071.889.093,1.095.081-.016.24-.06.476-.131.235-.072.486-.143.752-.214.266-.072.517-.139.753-.203.234-.063.403-.111.506-.143.532-.175,1.085-.369,1.658-.583s1.156-.321,1.75-.321c.409,0,.722.107.937.321s.322.464.322.75c0,.207-.103.357-.307.452-.205.095-.42.183-.645.262l-5.589,1.619c-.061.032-.122.059-.184.083s-.123.06-.185.107v.762c0,.556.016,1.131.046,1.726.031.595.098,1.171.2,1.726.102.477.215.945.338,1.405.122.461.184.929.184,1.405,0,.143-.062.333-.184.572-.123.238-.318.357-.584.357-.553,0-1.003-.127-1.351-.381-.349-.254-.543-.595-.584-1.024-.103-.825-.21-1.73-.322-2.714-.112-.984-.22-1.928-.322-2.833h-.123Z" fill="#f5f5f5"/>
      <path d="M327.446,145.189c-.041.286-.087.508-.138.667-.052.159-.139.302-.262.429-.122.127-.297.258-.521.393-.226.135-.532.326-.921.572-.39.246-.87.567-1.443.964-.573.397-1.27.913-2.088,1.548-.327.238-.665.484-1.013.738-.349.254-.712.48-1.091.678-.379.199-.772.361-1.182.488-.41.127-.84.19-1.289.19-.881,0-1.525-.23-1.935-.69-.41-.46-.614-.992-.614-1.595,0-.396.016-.73.046-1,.031-.27.107-.619.23-1.048-.226-.158-.42-.297-.583-.417-.164-.119-.246-.282-.246-.488,0-.19.057-.317.169-.381.112-.063.245-.107.399-.131.153-.024.302-.051.445-.083.143-.031.245-.095.307-.19.041-.095.117-.27.23-.523.112-.254.23-.52.353-.798.123-.277.24-.54.354-.786.112-.246.188-.417.23-.512.143-.27.302-.544.476-.822.174-.277.379-.527.614-.75.235-.222.512-.405.829-.547.316-.143.69-.214,1.12-.214.246,0,.548.087.906.262.357.175.701.385,1.028.631.327.247.604.504.829.774.225.27.338.5.338.69,0,.238-.072.457-.215.655-.144.199-.322.381-.538.548-.215.167-.444.321-.69.464-.245.143-.471.278-.676.405-.021,0-.061.016-.122.047-.062.032-.113.056-.154.071-.021.016-.066.052-.138.107-.072.056-.148.115-.23.179s-.158.127-.23.19c-.071.063-.118.103-.138.119-.062.048-.18.124-.354.227s-.363.214-.567.333c-.205.119-.395.23-.568.333-.174.104-.292.171-.354.202l-.122.191c-.042.063-.077.202-.107.417-.031.214-.067.457-.107.726-.042.27-.077.544-.107.821-.031.278-.047.504-.047.679,0,.016.011.032.031.048.041.032.071.047.092.047.164,0,.317-.055.461-.167.143-.111.296-.19.46-.238l4.913-3.524,1.259-1.5c.102-.111.302-.234.599-.369s.599-.206.905-.214c.308-.008.578.067.814.226.234.159.353.468.353.929ZM320.691,143.332c.103-.063.144-.158.123-.286-.021-.127-.077-.238-.169-.333s-.21-.155-.353-.179c-.144-.024-.276.036-.399.179-.062.063-.169.19-.322.381s-.308.385-.461.583c-.153.199-.281.369-.384.512-.103.143-.123.199-.062.167l2.026-1.024Z" fill="#f5f5f5"/>
      <path d="M337.026,151.142c-.287-.317-.527-.758-.722-1.321-.195-.563-.379-1.159-.553-1.786s-.333-1.238-.476-1.833c-.144-.595-.292-1.071-.445-1.429-.154-.357-.322-.559-.507-.607s-.399.167-.645.643l-2.672,6.381c-.103.222-.226.377-.368.464-.144.088-.379.131-.706.131-.164,0-.338-.02-.522-.06-.184-.04-.358-.099-.521-.179-.164-.079-.303-.174-.415-.286-.112-.111-.179-.238-.199-.381.062-.19.117-.54.169-1.048.051-.508.087-1.095.107-1.762s.035-1.369.046-2.107c.011-.738.011-1.429,0-2.072-.011-.643-.025-1.198-.046-1.667s-.041-.774-.062-.917c0-.159.005-.322.016-.488.01-.167.041-.321.092-.464.051-.143.144-.258.276-.345.133-.087.343-.131.63-.131.389,0,.752.127,1.09.381.338.254.507.524.507.81,0,.413-.026.821-.077,1.226-.052.405-.077.814-.077,1.226v.643c0,.175.041.389.123.643.062-.127.164-.349.308-.667.143-.317.302-.65.476-1,.174-.349.332-.678.476-.988s.246-.528.308-.655c.143-.317.357-.623.645-.917.286-.293.665-.456,1.136-.488.308-.016.588.047.845.19.256.143.476.33.66.56.184.23.338.468.46.714.123.246.215.456.276.631l1.658,5.928,1.29,2.714c.02.016.03.06.03.131v.155c0,.19-.057.377-.169.56-.112.183-.312.274-.599.274-.349,0-.706-.075-1.074-.226-.369-.151-.625-.345-.768-.583Z" fill="#f5f5f5"/>
    </g>
  </g>
</svg>