<?xml version="1.0" encoding="UTF-8"?>
<svg id="Layer_2" data-name="Layer 2" xmlns="http://www.w3.org/2000/svg" viewBox="0 0 412.184 160.337">
  <g id="Layer_1-2" data-name="Layer 1">
    <g>
      <g>
        <path d="M154.272,16.869c-1.504-1.612-3.251-3.005-5.197-4.142-4.292-2.504-9.822-3.722-16.907-3.722-7.173,0-13.07,1.395-17.527,4.144-3.565,2.199-6.345,5.129-8.311,8.726-.005-.228-.016-.456-.048-.682-.236-1.658-1.052-4.842-3.852-7.539-1.922-1.849-4.437-3.087-7.083-3.487-.279-.042-.562-.063-.846-.063h-30.231c-3.131,0-5.669,2.539-5.669,5.669v18.164c-.449-3.559-1.247-6.684-2.414-9.43-2.169-5.105-5.935-8.892-11.196-11.256-4.72-2.118-10.876-3.147-18.821-3.147H5.669c-3.131,0-5.669,2.539-5.669,5.669v81c0,3.131,2.538,5.669,5.669,5.669h20.7c7.903,0,14.028-1.054,18.725-3.222,5.215-2.406,8.951-6.246,11.106-11.413,1.16-2.778,1.953-5.931,2.4-9.518v15.731c0,2.212,1.286,4.222,3.295,5.148.759.35,1.568.521,2.373.521,1.324,0,2.635-.464,3.682-1.356l17.899-15.278c1.262-1.077,1.988-2.653,1.988-4.312v-12.6h8.431c3.131,0,5.669-2.538,5.669-5.669v-12.4c0-3.131-2.538-5.669-5.669-5.669h-8.431v-8.761h12.831c.756,0,1.476-.151,2.135-.419-.4,2.669-.606,5.522-.606,8.55v15.034c0,2.212,1.286,4.222,3.295,5.148.759.35,1.568.521,2.373.521,1.324,0,2.635-.464,3.682-1.356l18.101-15.45,11.591-9.893,12.569-10.729c1.177-1.004,1.892-2.446,1.979-3.991s-.46-3.058-1.516-4.189Z"/>
        <path d="M149.85,22.389c-1.867,0-3.25.5-4.15,1.5s-1.467,2.25-1.7,3.75c-.234,1.5-.35,3.084-.35,4.75v4.085l11.591-9.893c-.238-1.065-.664-1.983-1.291-2.741-.8-.966-2.167-1.45-4.1-1.45Z" fill="none"/>
        <g>
          <path d="M398.281,21.421h-20.7c-7.903,0-14.028,1.054-18.725,3.222-5.066,2.337-8.724,6.04-10.905,10.985v-2.317c0-.268-.019-.535-.057-.801-.236-1.658-1.051-4.842-3.852-7.538-1.921-1.85-4.437-3.089-7.083-3.488-.279-.042-.562-.063-.846-.063h-30.232c-3.131,0-5.669,2.539-5.669,5.669v18.158c-.449-3.557-1.246-6.679-2.413-9.424-2.169-5.105-5.935-8.892-11.196-11.255-4.72-2.118-10.876-3.147-18.821-3.147h-20.5c-3.131,0-5.669,2.539-5.669,5.669v22.895l-.135-1.282c-.656-6.245-2.131-11.624-4.385-15.99-2.524-4.89-6.306-8.51-11.24-10.76-3.473-1.581-7.654-2.383-12.43-2.383-1.678,0-3.465.099-5.312.293-7.133.75-12.625,2.625-16.79,5.731-4.076,3.042-6.894,7.077-8.417,11.978-.257-.844-.534-1.672-.851-2.471-1.022-2.581-2.491-4.908-4.365-6.917-1.113-1.194-2.626-1.802-4.146-1.802-1.304,0-2.613.448-3.679,1.357l-12.569,10.729c-1.598,1.363-2.311,3.498-1.853,5.548.023.102.047.205.059.306.143,1.266.215,2.601.215,3.967v8.1c0,1.234.399,2.373,1.068,3.304h-1.73v-7.019c0-2.212-1.286-4.222-3.295-5.148-.759-.35-1.568-.521-2.373-.521-1.324,0-2.635.464-3.682,1.357l-18.101,15.449c-1.262,1.077-1.988,2.653-1.988,4.312v14.166c0,2.953.205,5.748.602,8.376-.604-.219-1.252-.345-1.931-.345h-13.031v-.263c0-2.212-1.286-4.222-3.295-5.148-.759-.35-1.568-.521-2.373-.521-1.324,0-2.635.464-3.682,1.356l-17.899,15.278c-1.262,1.077-1.988,2.653-1.988,4.312v2.753c0,3.131,2.538,5.669,5.669,5.669h30.368c3.01-.031,5.982-1.229,8.155-3.288,3.009-2.851,3.625-6.31,3.726-8.134,1.948,3.436,4.654,6.256,8.089,8.407,4.466,2.797,10.374,4.215,17.56,4.215s12.825-1.312,17.149-4.009c4.433-2.765,7.598-6.604,9.407-11.416,1.601-4.259,2.412-9.085,2.412-14.345v-2.756l.262,2.49c.648,6.173,2.118,11.543,4.368,15.961,2.521,4.953,6.277,8.626,11.166,10.916,3.491,1.637,7.696,2.467,12.497,2.467,1.632,0,3.367-.096,5.157-.283,7.103-.746,12.804-2.7,16.947-5.808,2.833-2.125,5.053-4.734,6.663-7.775v7.689c0,3.131,2.538,5.669,5.669,5.669h20.7c7.903,0,14.028-1.054,18.725-3.222,5.215-2.406,8.951-6.246,11.106-11.413,1.16-2.776,1.952-5.927,2.399-9.511v18.477c0,3.131,2.538,5.669,5.669,5.669h30.369c3.01-.031,5.981-1.229,8.153-3.287,3.36-3.183,3.74-7.13,3.747-8.706v-1.6c2.215,4.69,5.834,8.212,10.809,10.447,4.72,2.117,10.876,3.146,18.821,3.146h20.5c3.131,0,5.669-2.538,5.669-5.669V27.091c0-3.131-2.538-5.669-5.669-5.669Z"/>
          <path d="M406.515,12.417h-20.7c-7.903,0-14.028,1.054-18.725,3.222-5.066,2.337-8.724,6.04-10.905,10.985v-2.317c0-.268-.019-.535-.057-.801-.236-1.658-1.051-4.842-3.852-7.538-1.921-1.85-4.437-3.089-7.083-3.488-.279-.042-.562-.063-.846-.063h-30.232c-3.131,0-5.669,2.539-5.669,5.669v18.158c-.449-3.557-1.246-6.679-2.413-9.424-2.169-5.105-5.935-8.892-11.196-11.255-4.72-2.118-10.876-3.147-18.821-3.147h-20.5c-3.131,0-5.669,2.539-5.669,5.669v22.895l-.135-1.282c-.656-6.245-2.131-11.624-4.385-15.99-2.524-4.89-6.306-8.51-11.24-10.76-3.473-1.581-7.654-2.383-12.43-2.383-1.678,0-3.465.099-5.312.293-7.133.75-12.625,2.625-16.79,5.731-4.076,3.042-6.894,7.077-8.417,11.978-.257-.844-.534-1.672-.851-2.471-1.022-2.581-2.491-4.908-4.365-6.917-1.113-1.194-2.626-1.802-4.146-1.802-1.304,0-2.613.448-3.679,1.357l-12.569,10.729c-1.598,1.363-2.311,3.498-1.853,5.548.023.102.047.205.059.306.143,1.266.215,2.601.215,3.967v8.1c0,1.234.399,2.373,1.068,3.304h-1.73v-7.019c0-2.212-1.286-4.222-3.295-5.148-.759-.35-1.568-.521-2.373-.521-1.324,0-2.635.464-3.682,1.357l-18.101,15.449c-1.262,1.077-1.988,2.653-1.988,4.312v14.166c0,2.953.205,5.748.602,8.376-.604-.219-1.252-.345-1.931-.345h-13.031v-.263c0-2.212-1.286-4.222-3.295-5.148-.759-.35-1.568-.521-2.373-.521-1.324,0-2.635.464-3.682,1.356l-17.899,15.278c-1.262,1.077-1.988,2.653-1.988,4.312v2.753c0,3.131,2.538,5.669,5.669,5.669h30.368c3.01-.031,5.982-1.229,8.155-3.288,3.009-2.851,3.625-6.31,3.726-8.134,1.948,3.436,4.654,6.256,8.089,8.407,4.466,2.797,10.374,4.215,17.56,4.215s12.825-1.312,17.149-4.009c4.433-2.765,7.598-6.604,9.407-11.416,1.601-4.259,2.412-9.085,2.412-14.345v-2.756l.262,2.49c.648,6.173,2.118,11.543,4.368,15.961,2.521,4.953,6.277,8.626,11.166,10.916,3.491,1.637,7.696,2.467,12.497,2.467,1.632,0,3.367-.096,5.157-.283,7.103-.746,12.804-2.7,16.947-5.808,2.833-2.125,5.053-4.734,6.663-7.775v7.689c0,3.131,2.538,5.669,5.669,5.669h20.7c7.903,0,14.028-1.054,18.725-3.222,5.215-2.406,8.951-6.246,11.106-11.413,1.16-2.776,1.952-5.927,2.399-9.511v18.477c0,3.131,2.538,5.669,5.669,5.669h30.369c3.01-.031,5.981-1.229,8.153-3.287,3.36-3.183,3.74-7.13,3.747-8.706v-1.6c2.215,4.69,5.834,8.212,10.809,10.447,4.72,2.117,10.876,3.146,18.821,3.146h20.5c3.131,0,5.669-2.538,5.669-5.669V18.086c0-3.131-2.538-5.669-5.669-5.669Z"/>
          <path d="M314.407,98.75V17.75h30.232c.64.097,2.424.452,3.996,1.966,1.722,1.658,2.084,3.639,2.172,4.255v5.979h-18.5v20.1h14.1v12.4h-14.1v24.2h18.7v5.775c-.002.41-.053,2.767-1.976,4.59-1.749,1.658-3.841,1.73-4.314,1.734-10.103,0-20.207,0-30.31,0Z" fill="#f5f5f5"/>
          <path d="M225.937,99.005c-6.034.634-10.919.074-14.656-1.677-3.738-1.752-6.578-4.537-8.52-8.355-1.945-3.818-3.204-8.477-3.783-13.981l-3.146-29.935c-.585-5.57-.322-10.389.793-14.463,1.113-4.071,3.317-7.336,6.612-9.795,3.294-2.457,7.958-4.003,13.992-4.637,6.099-.641,11.032-.104,14.799,1.611,3.765,1.716,6.617,4.45,8.553,8.201,1.936,3.753,3.198,8.412,3.783,13.982l3.146,29.935c.578,5.504.313,10.324-.793,14.462-1.108,4.138-3.323,7.456-6.646,9.949-3.325,2.494-8.036,4.062-14.136,4.704ZM224.609,86.374c1.855-.195,3.166-.801,3.931-1.821.763-1.018,1.202-2.271,1.315-3.758.111-1.486.087-2.991-.073-4.517l-4.077-38.786c-.167-1.591-.459-3.084-.873-4.483-.416-1.397-1.104-2.515-2.062-3.353-.96-.838-2.369-1.159-4.224-.964-1.725.181-2.97.781-3.733,1.8-.765,1.019-1.205,2.256-1.32,3.708-.115,1.455-.089,2.976.078,4.567l4.077,38.786c.16,1.526.432,3.006.818,4.439.384,1.434,1.04,2.572,1.967,3.413.926.842,2.318,1.164,4.175.969Z" fill="#f5f5f5"/>
          <path d="M255.808,98.75V17.75h20.5c7.065,0,12.565.885,16.5,2.65,3.933,1.767,6.7,4.534,8.3,8.3,1.601,3.767,2.4,8.649,2.4,14.649v29.4c0,6.067-.8,11.018-2.4,14.85-1.6,3.835-4.35,6.65-8.25,8.45-3.899,1.8-9.35,2.7-16.35,2.7h-20.7ZM273.708,86.349h2.8c2.732,0,4.7-.399,5.9-1.199,1.199-.801,1.949-2,2.25-3.601.3-1.6.449-3.6.449-6v-35.3c0-2.4-.184-4.333-.55-5.8-.367-1.466-1.149-2.533-2.35-3.2-1.2-.666-3.135-1-5.8-1h-2.7v56.1Z" fill="#f5f5f5"/>
          <path d="M406.807,17.75v81h-20.5c-7.065,0-12.565-.885-16.5-2.65-3.933-1.767-6.7-4.534-8.3-8.3-1.601-3.767-2.4-8.649-2.4-14.649v-29.4c0-6.067.8-11.018,2.4-14.85,1.6-3.835,4.35-6.65,8.25-8.45,3.899-1.8,9.35-2.7,16.35-2.7h20.7ZM388.906,30.15h-2.8c-2.732,0-4.7.399-5.9,1.199-1.199.801-1.949,2-2.25,3.601-.3,1.6-.449,3.6-.449,6v35.3c0,2.4.185,4.333.55,5.8.367,1.466,1.149,2.533,2.35,3.2,1.2.666,3.135,1,5.8,1h2.7V30.15Z" fill="#f5f5f5"/>
          <path d="M96.21,98.75h30.31c.473-.005,2.565-.077,4.314-1.734,1.923-1.823,1.974-4.18,1.976-4.59v-5.775h-18.7v-5.932l-17.9,15.278v2.753Z" fill="#f5f5f5"/>
          <path d="M139.809,72.95c0,5.467.733,10.217,2.2,14.25,1.466,4.034,3.983,7.167,7.55,9.399,3.566,2.233,8.416,3.351,14.551,3.351,6.065,0,10.782-1.05,14.149-3.15,3.366-2.1,5.733-4.966,7.101-8.6,1.365-3.633,2.05-7.75,2.05-12.351v-7h-17.5v8.5c0,1.601-.101,3.168-.3,4.7-.2,1.534-.7,2.784-1.5,3.75-.801.968-2.135,1.45-4,1.45-1.734,0-3.051-.45-3.95-1.35s-1.5-2.101-1.8-3.601c-.301-1.5-.45-3.149-.45-4.95v-34.015l-18.101,15.45v14.166Z" fill="#f5f5f5"/>
          <path d="M182.069,22.713l-12.57,10.729c.066.293.123.592.159.908.165,1.468.25,3,.25,4.601v8.1h17.5v-7c0-4.6-.7-8.665-2.101-12.2-.774-1.955-1.862-3.661-3.239-5.137Z" fill="#f5f5f5"/>
        </g>
        <path d="M162.507,7.864c-1.504-1.612-3.251-3.005-5.197-4.142-4.292-2.504-9.822-3.722-16.907-3.722-7.173,0-13.07,1.395-17.527,4.144-3.565,2.199-6.345,5.129-8.311,8.726-.005-.228-.016-.456-.048-.682-.236-1.658-1.052-4.842-3.852-7.539-1.922-1.849-4.437-3.087-7.083-3.487-.279-.042-.562-.063-.846-.063h-30.231c-3.131,0-5.669,2.539-5.669,5.669v18.164c-.449-3.559-1.247-6.684-2.414-9.43-2.169-5.105-5.935-8.892-11.196-11.256-4.72-2.118-10.876-3.147-18.821-3.147H13.903c-3.131,0-5.669,2.539-5.669,5.669v81c0,3.131,2.538,5.669,5.669,5.669h20.7c7.903,0,14.028-1.054,18.725-3.222,5.215-2.406,8.951-6.246,11.106-11.413,1.16-2.778,1.953-5.931,2.4-9.518v15.731c0,2.212,1.286,4.222,3.295,5.148.759.35,1.568.521,2.373.521,1.324,0,2.635-.464,3.682-1.356l17.899-15.278c1.262-1.077,1.988-2.653,1.988-4.312v-12.6h8.431c3.131,0,5.669-2.538,5.669-5.669v-12.4c0-3.131-2.538-5.669-5.669-5.669h-8.431v-8.761h12.831c.756,0,1.476-.151,2.135-.419-.4,2.669-.606,5.522-.606,8.55v15.034c0,2.212,1.286,4.222,3.295,5.148.759.35,1.568.521,2.373.521,1.324,0,2.635-.464,3.682-1.356l18.101-15.45,11.591-9.893,12.569-10.729c1.177-1.004,1.892-2.446,1.979-3.991s-.46-3.058-1.516-4.189Z"/>
        <path d="M14.195,87.433V6.433h20.5c7.065,0,12.565.885,16.5,2.65,3.933,1.767,6.7,4.534,8.3,8.3,1.6,3.767,2.4,8.649,2.4,14.649v29.4c0,6.067-.8,11.018-2.4,14.85-1.6,3.835-4.35,6.65-8.25,8.45-3.9,1.8-9.35,2.7-16.35,2.7H14.195ZM32.095,75.032h2.8c2.732,0,4.7-.399,5.9-1.199,1.2-.801,1.95-2,2.25-3.601.3-1.6.45-3.6.45-6V28.933c0-2.4-.184-4.333-.55-5.8-.367-1.466-1.15-2.533-2.35-3.2-1.2-.666-3.134-1-5.8-1h-2.7v56.1Z" fill="#f5f5f5"/>
        <path d="M104.795,51.133v-12.4h-14.1v-20.1h18.5v-5.979c-.088-.616-.45-2.597-2.172-4.255-1.573-1.514-3.356-1.869-3.996-1.966h-30.232v78.247l17.9-15.278v-18.269h14.1Z" fill="#f5f5f5"/>
        <path d="M154.744,8.282c-3.367-1.965-8.05-2.949-14.05-2.949-6.135,0-10.984,1.1-14.551,3.3s-6.084,5.317-7.55,9.35c-1.467,4.034-2.2,8.851-2.2,14.45v15.034l18.101-15.45v-4.085c0-1.666.115-3.25.35-4.75.233-1.5.8-2.75,1.7-3.75s2.283-1.5,4.15-1.5c1.933,0,3.3.484,4.1,1.45.627.758,1.053,1.676,1.291,2.741l12.57-10.729c-1.111-1.191-2.407-2.234-3.91-3.113Z" fill="#f5f5f5"/>
      </g>
      <g>
        <path d="M102.783,145.968c-.198-.119-.338-.27-.417-.453-.079-.182-.115-.365-.106-.547.008-.182.043-.298.106-.345.048-.016.155-.079.321-.19.167-.111.266-.183.298-.214.016,0,.036-.012.06-.036.024-.024.044-.043.06-.06v-.429c0-.889-.052-1.766-.154-2.631-.104-.865-.155-1.734-.155-2.607,0-.572.012-1.167.036-1.786.023-.619.127-1.191.31-1.714.182-.524.472-.953.869-1.286.396-.333.968-.5,1.714-.5h.452c.175,0,.337.02.488.06.15.04.281.111.393.214.111.104.167.25.167.44,0,.286-.067.473-.202.56-.136.087-.306.143-.512.167-.207.023-.421.056-.644.095s-.413.163-.571.369c-.032.032-.071.115-.119.25s-.071.226-.071.273c-.032.111-.063.262-.095.453-.032.19-.06.381-.084.571-.023.19-.048.361-.071.512-.023.151-.035.234-.035.25v.179c0,.104-.005.226-.013.369-.008.143-.012.29-.012.44v1.297c0,.286.008.568.024.846.016.278.039.559.071.845.031.286.071.603.119.952h.19l3.214-1.905c.222-.047.421-.127.596-.238.174-.111.372-.167.595-.167s.452.056.69.167c.238.111.357.286.357.524,0,.175-.04.302-.119.381-.08.08-.143.19-.19.333-.063.016-.183.063-.357.143s-.294.135-.357.167c-.127.08-.329.202-.606.369-.278.167-.568.341-.869.524-.302.183-.58.353-.833.512-.255.159-.421.262-.5.31-.111.08-.247.175-.405.286-.159.111-.313.226-.464.345-.151.119-.338.266-.56.44v.238l.619,2.023c-.017.048-.021.1-.013.155.008.056.044.1.107.131l1.119,3.404c.079.286.02.524-.179.714s-.425.286-.679.286c-.285,0-.563-.075-.833-.226-.271-.15-.444-.377-.523-.679l-1.31-4.309-.096-.19c-.35.063-.623.036-.821-.083Z" fill="#c31313"/>
        <path d="M109.629,147.552l.881-6.119c.031-.206.123-.357.273-.453.151-.095.322-.143.513-.143.349,0,.626.099.833.297.206.199.381.44.523.727h.024c.19,0,.36-.036.512-.107.15-.071.337-.107.56-.107.508,0,.94.159,1.298.476.356.318.646.702.868,1.155.223.452.385.94.488,1.464.104.523.155.984.155,1.381,0,.476-.123,1.008-.369,1.595-.246.587-.571,1.143-.977,1.667-.404.524-.861.96-1.369,1.31s-1.023.524-1.547.524c-.477,0-.886-.111-1.227-.333-.342-.222-.619-.504-.833-.845-.215-.341-.369-.726-.465-1.155-.095-.429-.143-.849-.143-1.262v-.071ZM111.629,147.695c.031.159.063.341.095.548.032.206.08.393.144.559.062.167.154.294.273.381s.289.091.512.012c.206-.19.429-.405.667-.643.238-.238.464-.492.679-.762.214-.27.393-.555.535-.857.144-.301.215-.619.215-.953.063-.54.023-1.036-.119-1.488-.143-.453-.346-.778-.607-.977-.262-.198-.56-.222-.893-.071-.333.151-.667.56-1,1.226-.19.413-.321.893-.393,1.44-.072.548-.107,1.052-.107,1.512v.071Z" fill="#c31313"/>
        <path d="M118.676,150.171c-.032-.571-.083-1.337-.155-2.297-.071-.96-.15-1.956-.237-2.988-.088-1.032-.179-2.008-.274-2.928-.095-.92-.175-1.635-.238-2.143,0-.206.096-.341.286-.405.19-.063.373-.095.548-.095.222,0,.456.063.702.19.246.127.4.302.464.524,0,.063.008.179.024.345.016.167.027.337.035.512.008.175.021.345.036.512.016.167.023.282.023.345v.345c0,.04.008.083.024.131.016.047.039.127.071.238.031-.032.067-.072.107-.119.039-.048.066-.08.083-.095.254-.365.5-.687.738-.964.237-.278.483-.54.737-.786s.536-.508.846-.786.67-.599,1.083-.964c.096-.08.167-.139.215-.179.048-.04.091-.071.131-.095.039-.024.083-.04.131-.048.048-.008.11-.012.19-.012.27,0,.544.092.821.274.277.183.417.433.417.75,0,.111-.04.226-.119.345-.08.119-.175.23-.286.333s-.226.194-.345.273c-.119.08-.227.135-.321.167-.413.365-.85.782-1.31,1.25-.461.468-.89.972-1.286,1.512s-.723,1.104-.976,1.69c-.255.587-.382,1.175-.382,1.762,0,.54.04,1.072.119,1.595.079.524.119,1.056.119,1.595v.833c-.127.127-.238.23-.333.31-.096.08-.23.119-.405.119-.27,0-.531-.115-.785-.345s-.421-.464-.5-.703Z" fill="#c31313"/>
        <path d="M136.056,149.528c0-.667.016-1.317.048-1.953.031-.635.047-1.286.047-1.952-.047-1.81-.063-3.583-.047-5.321.016-1.738-.064-3.52-.238-5.345,0-.301.071-.504.214-.607.143-.103.357-.155.643-.155.365,0,.679.107.941.322.262.214.4.512.416.893-.032,2.254-.004,4.488.083,6.703.088,2.214.132,4.456.132,6.726v1.833c-.096.127-.23.254-.405.381-.175.127-.35.175-.523.143-.461-.079-.794-.266-1-.56-.207-.293-.31-.663-.31-1.107Z" fill="#c31313"/>
        <path d="M139.294,132.933c0-.111.092-.21.274-.298.182-.087.321-.131.416-.131.238,0,.504.068.798.203s.44.337.44.607-.035.453-.107.548c-.071.095-.242.143-.512.143-.285,0-.575-.095-.869-.286s-.44-.452-.44-.786ZM140.628,150.29c-.159-1.587-.294-2.944-.405-4.071s-.206-2.071-.285-2.833c-.08-.762-.147-1.369-.203-1.821s-.099-.793-.131-1.024c-.031-.23-.056-.385-.071-.464-.016-.079-.023-.126-.023-.143v-.095c0-.175.075-.321.226-.44.151-.119.306-.179.465-.179.238,0,.496.04.773.119.277.08.465.246.56.5.143.778.242,1.563.298,2.357.056.794.103,1.583.143,2.369s.096,1.576.167,2.369c.071.794.202,1.58.393,2.357,0,.032.012.095.036.19.023.095.047.199.071.31.023.111.043.214.06.31.016.095.023.159.023.19v.048c0,.016.008.032.024.047,0,.19-.088.381-.263.571s-.356.27-.547.238c-.048-.016-.163-.043-.346-.083-.183-.039-.306-.075-.369-.107-.048-.016-.111-.051-.19-.107-.079-.055-.154-.115-.226-.178-.072-.063-.132-.135-.179-.214-.048-.079-.048-.151,0-.214Z" fill="#c31313"/>
        <path d="M147.222,150.29c0-.079.004-.151.012-.214.008-.063.044-.127.107-.19.19-.238.405-.488.643-.75.238-.262.469-.524.69-.786.223-.262.429-.536.619-.821s.35-.572.477-.857v-.143l-3.119.643h-.357c-.222,0-.496-.016-.821-.047s-.643-.099-.952-.203c-.31-.103-.571-.25-.786-.44-.214-.19-.321-.444-.321-.762.016-.365.206-.77.571-1.214.365-.444.794-.881,1.286-1.31s.988-.825,1.488-1.19c.5-.365.9-.65,1.202-.857.333-.19.729-.345,1.19-.464.46-.119.881-.179,1.262-.179.317,0,.596.06.834.179.237.119.356.354.356.702,0,.143-.012.278-.035.405-.024.127-.123.214-.298.262-.508-.048-.984-.012-1.429.107s-.865.298-1.262.536c-.397.238-.771.52-1.119.845-.35.326-.69.663-1.023,1.012-.096.111-.215.266-.357.464-.143.199-.214.314-.214.345v.024c.412,0,.821-.04,1.226-.119.405-.079.81-.163,1.215-.25.404-.087.81-.17,1.214-.25.404-.079.821-.119,1.25-.119.158,0,.333.012.523.036s.369.075.536.155.301.187.404.321c.104.135.155.306.155.512,0,.302-.075.592-.227.869-.15.278-.373.611-.666,1-.294.389-.667.861-1.119,1.417-.453.556-.988,1.271-1.607,2.143-.032.047-.107.08-.227.095s-.218.024-.297.024c-.223,0-.449-.095-.679-.286-.23-.19-.346-.405-.346-.643Z" fill="#c31313"/>
        <path d="M155.722,144.242c-.223,0-.421.056-.595.167-.175.111-.381.167-.619.167-.032,0-.115-.003-.25-.012-.135-.008-.219-.012-.25-.012-.063-.08-.135-.143-.215-.191-.079-.047-.158-.099-.237-.154-.08-.056-.147-.123-.203-.203-.056-.079-.083-.19-.083-.333,0-.238.096-.432.286-.583s.412-.282.666-.393c.254-.111.513-.214.774-.31s.472-.206.631-.333v-1.048c0-1.174-.056-2.353-.167-3.536-.111-1.182-.167-2.353-.167-3.512,0-.317.08-.524.238-.619.159-.095.373-.143.644-.143.316,0,.551.092.702.274.15.183.258.405.321.667.063.262.095.54.095.833s.008.544.024.75c0,.207.016.571.048,1.095.031.524.062,1.08.095,1.667.031.587.063,1.143.096,1.667.031.523.055.889.071,1.095.063-.016.187-.06.369-.131.182-.072.377-.143.583-.214.206-.072.4-.139.583-.203.183-.063.313-.111.394-.143.412-.175.841-.369,1.285-.583s.896-.321,1.357-.321c.317,0,.56.107.726.321.167.214.25.464.25.75,0,.207-.079.357-.237.452-.159.095-.326.183-.5.262l-4.334,1.619c-.047.032-.095.059-.143.083s-.095.06-.143.107v.762c0,.556.012,1.131.035,1.726.024.595.075,1.171.155,1.726.079.477.167.945.262,1.405.096.461.143.929.143,1.405,0,.143-.047.333-.143.572-.095.238-.246.357-.452.357-.429,0-.778-.127-1.048-.381-.271-.254-.421-.595-.452-1.024-.08-.825-.163-1.73-.25-2.714-.088-.984-.171-1.928-.25-2.833h-.096Z" fill="#c31313"/>
        <path d="M173.889,144.433c-.032.286-.067.508-.107.667-.04.159-.107.302-.202.429-.096.127-.23.258-.405.393-.175.135-.412.326-.714.572s-.675.567-1.119.964c-.444.397-.984.913-1.619,1.548-.254.238-.516.484-.785.738-.271.254-.552.48-.846.678-.294.199-.6.361-.916.488-.318.127-.651.19-1,.19-.683,0-1.183-.23-1.5-.69-.318-.46-.477-.992-.477-1.595,0-.396.012-.73.036-1,.023-.27.083-.619.178-1.048-.175-.158-.325-.297-.452-.417s-.19-.282-.19-.488c0-.19.044-.317.131-.381.087-.063.19-.107.31-.131s.234-.051.346-.083c.11-.031.19-.095.237-.19.032-.095.092-.27.179-.523s.179-.52.274-.798c.095-.277.187-.54.273-.786s.146-.417.179-.512c.11-.27.234-.544.369-.822.135-.277.293-.527.476-.75.183-.222.397-.405.644-.547.246-.143.535-.214.869-.214.19,0,.424.087.702.262.277.175.543.385.798.631.253.247.468.504.643.774.175.27.262.5.262.69,0,.238-.056.457-.167.655-.11.199-.25.381-.416.548-.167.167-.346.321-.536.464-.19.143-.365.278-.523.405-.017,0-.048.016-.096.047-.047.032-.087.056-.119.071-.016.016-.052.052-.106.107l-.179.179c-.063.063-.123.127-.179.19s-.092.103-.107.119c-.048.048-.139.124-.273.227s-.282.214-.44.333c-.159.119-.306.23-.44.333-.136.104-.227.171-.274.202l-.095.191c-.032.063-.06.202-.083.417-.024.214-.052.457-.084.726-.032.27-.06.544-.083.821-.024.278-.036.504-.036.679,0,.016.008.032.024.048.031.032.055.047.071.047.127,0,.246-.055.357-.167.11-.111.229-.19.356-.238l3.81-3.524.977-1.5c.079-.111.233-.234.464-.369s.465-.206.702-.214c.238-.008.448.067.632.226.182.159.273.468.273.929ZM168.651,142.575c.079-.063.111-.158.096-.286-.017-.127-.06-.238-.131-.333-.072-.095-.163-.155-.274-.179s-.214.036-.31.179c-.048.063-.131.19-.25.381s-.238.385-.356.583c-.119.199-.219.369-.298.512-.08.143-.096.199-.048.167l1.571-1.024Z" fill="#c31313"/>
        <path d="M181.317,150.385c-.223-.317-.408-.758-.56-1.321-.15-.563-.294-1.159-.429-1.786s-.258-1.238-.368-1.833c-.111-.595-.227-1.071-.346-1.429-.119-.357-.25-.559-.393-.607-.144-.048-.31.167-.5.643l-2.071,6.381c-.08.222-.175.377-.286.464-.111.088-.294.131-.548.131-.127,0-.262-.02-.404-.06s-.278-.099-.405-.179c-.127-.079-.234-.174-.321-.286-.087-.111-.139-.238-.154-.381.048-.19.091-.54.131-1.048.039-.508.067-1.095.083-1.762s.027-1.369.036-2.107c.008-.738.008-1.429,0-2.072-.009-.643-.021-1.198-.036-1.667s-.032-.774-.048-.917c0-.159.004-.322.013-.488.008-.167.031-.321.071-.464.039-.143.11-.258.214-.345.104-.087.266-.131.488-.131.302,0,.583.127.846.381.262.254.393.524.393.81,0,.413-.021.821-.06,1.226-.04.405-.06.814-.06,1.226v.643c0,.175.031.389.095.643.048-.127.127-.349.238-.667.111-.317.234-.65.369-1,.135-.349.258-.678.369-.988s.19-.528.238-.655c.11-.317.277-.623.5-.917.222-.293.516-.456.881-.488.238-.016.456.047.654.19.198.143.369.33.513.56.143.23.262.468.356.714.096.246.167.456.215.631l1.285,5.928,1,2.714c.016.016.024.06.024.131v.155c0,.19-.044.377-.131.56-.088.183-.242.274-.465.274-.27,0-.548-.075-.833-.226-.286-.151-.484-.345-.596-.583Z" fill="#c31313"/>
        <path d="M194.342,144.433c-.032.286-.067.508-.107.667-.04.159-.107.302-.202.429-.096.127-.23.258-.405.393-.175.135-.412.326-.714.572s-.675.567-1.119.964c-.444.397-.984.913-1.619,1.548-.254.238-.516.484-.785.738-.271.254-.552.48-.846.678-.294.199-.6.361-.916.488-.318.127-.651.19-1,.19-.683,0-1.183-.23-1.5-.69-.318-.46-.477-.992-.477-1.595,0-.396.012-.73.036-1,.023-.27.083-.619.178-1.048-.175-.158-.325-.297-.452-.417s-.19-.282-.19-.488c0-.19.044-.317.131-.381.087-.063.19-.107.31-.131s.234-.051.346-.083c.11-.031.19-.095.237-.19.032-.095.092-.27.179-.523s.179-.52.274-.798c.095-.277.187-.54.273-.786s.146-.417.179-.512c.11-.27.234-.544.369-.822.135-.277.293-.527.476-.75.183-.222.397-.405.644-.547.246-.143.535-.214.869-.214.19,0,.424.087.702.262.277.175.543.385.798.631.253.247.468.504.643.774.175.27.262.5.262.69,0,.238-.056.457-.167.655-.11.199-.25.381-.416.548-.167.167-.346.321-.536.464-.19.143-.365.278-.523.405-.017,0-.048.016-.096.047-.047.032-.087.056-.119.071-.016.016-.052.052-.106.107l-.179.179c-.063.063-.123.127-.179.19s-.092.103-.107.119c-.048.048-.139.124-.273.227s-.282.214-.44.333c-.159.119-.306.23-.44.333-.136.104-.227.171-.274.202l-.095.191c-.032.063-.06.202-.083.417-.024.214-.052.457-.084.726-.032.27-.06.544-.083.821-.024.278-.036.504-.036.679,0,.016.008.032.024.048.031.032.055.047.071.047.127,0,.246-.055.357-.167.11-.111.229-.19.356-.238l3.81-3.524.977-1.5c.079-.111.233-.234.464-.369s.465-.206.702-.214c.238-.008.448.067.632.226.182.159.273.468.273.929ZM189.103,142.575c.079-.063.111-.158.096-.286-.017-.127-.06-.238-.131-.333-.072-.095-.163-.155-.274-.179s-.214.036-.31.179c-.048.063-.131.19-.25.381s-.238.385-.356.583c-.119.199-.219.369-.298.512-.08.143-.096.199-.048.167l1.571-1.024Z" fill="#c31313"/>
        <path d="M196.055,150.171c-.032-.571-.083-1.337-.155-2.297-.071-.96-.15-1.956-.237-2.988-.088-1.032-.179-2.008-.274-2.928-.095-.92-.175-1.635-.238-2.143,0-.206.096-.341.286-.405.19-.063.373-.095.548-.095.222,0,.456.063.702.19.246.127.4.302.464.524,0,.063.008.179.024.345.016.167.027.337.035.512.008.175.021.345.036.512.016.167.023.282.023.345v.345c0,.04.008.083.024.131.016.047.039.127.071.238.031-.032.067-.072.107-.119.039-.048.066-.08.083-.095.254-.365.5-.687.738-.964.237-.278.483-.54.737-.786s.536-.508.846-.786.67-.599,1.083-.964c.096-.08.167-.139.215-.179.048-.04.091-.071.131-.095.039-.024.083-.04.131-.048.048-.008.11-.012.19-.012.27,0,.544.092.821.274.277.183.417.433.417.75,0,.111-.04.226-.119.345-.08.119-.175.23-.286.333s-.226.194-.345.273c-.119.08-.227.135-.321.167-.413.365-.85.782-1.31,1.25-.461.468-.89.972-1.286,1.512s-.723,1.104-.976,1.69c-.255.587-.382,1.175-.382,1.762,0,.54.04,1.072.119,1.595.079.524.119,1.056.119,1.595v.833c-.127.127-.238.23-.333.31-.096.08-.23.119-.405.119-.27,0-.531-.115-.785-.345s-.421-.464-.5-.703Z" fill="#c31313"/>
        <path d="M207.079,150.29c0-.079.004-.151.012-.214.008-.063.044-.127.107-.19.19-.238.405-.488.643-.75.238-.262.469-.524.69-.786.223-.262.429-.536.619-.821s.35-.572.477-.857v-.143l-3.119.643h-.357c-.222,0-.496-.016-.821-.047s-.643-.099-.952-.203c-.31-.103-.571-.25-.786-.44-.214-.19-.321-.444-.321-.762.016-.365.206-.77.571-1.214.365-.444.794-.881,1.286-1.31s.988-.825,1.488-1.19c.5-.365.9-.65,1.202-.857.333-.19.729-.345,1.19-.464.46-.119.881-.179,1.262-.179.317,0,.596.06.834.179.237.119.356.354.356.702,0,.143-.012.278-.035.405-.024.127-.123.214-.298.262-.508-.048-.984-.012-1.429.107s-.865.298-1.262.536c-.397.238-.771.52-1.119.845-.35.326-.69.663-1.023,1.012-.096.111-.215.266-.357.464-.143.199-.214.314-.214.345v.024c.412,0,.821-.04,1.226-.119.405-.079.81-.163,1.215-.25.404-.087.81-.17,1.214-.25.404-.079.821-.119,1.25-.119.158,0,.333.012.523.036s.369.075.536.155.301.187.404.321c.104.135.155.306.155.512,0,.302-.075.592-.227.869-.15.278-.373.611-.666,1-.294.389-.667.861-1.119,1.417-.453.556-.988,1.271-1.607,2.143-.032.047-.107.08-.227.095s-.218.024-.297.024c-.223,0-.449-.095-.679-.286-.23-.19-.346-.405-.346-.643Z" fill="#c31313"/>
        <path d="M225.865,150.051c-.096-.365-.373-1.297-.834-2.797-.46-1.5-1.104-3.67-1.928-6.512,0-.032-.013-.099-.036-.203-.023-.103-.036-.17-.036-.202.032-.19.175-.306.429-.345s.444-.051.571-.036c.35.047.607.159.774.333.166.175.305.429.416.762l1.381,4.547.096.119c.19-.317.302-.682.333-1.095.032-.413.075-.813.131-1.203.056-.389.163-.742.322-1.059.158-.317.46-.54.904-.667.096,0,.198.02.31.06.111.04.218.095.321.167.104.072.194.151.274.238.079.087.134.179.166.274l1.286,4.119.262.357c.063-.286.146-.746.25-1.381.103-.635.206-1.298.31-1.988.103-.69.194-1.333.273-1.928.079-.596.135-1.004.167-1.227,0-.031.004-.087.012-.167.008-.079.012-.135.012-.167.127-.143.302-.25.524-.322.222-.071.42-.091.595-.06.063.016.146.052.25.107s.202.127.298.214c.095.087.17.178.227.274.055.095.083.183.083.262l-1.357,9.762c-.016.095-.071.171-.166.226-.096.056-.203.104-.322.143s-.237.063-.356.071c-.119.008-.211.012-.274.012-.381-.143-.71-.377-.988-.703-.277-.325-.523-.687-.737-1.083-.215-.396-.405-.805-.571-1.226-.167-.42-.346-.797-.536-1.131l-.096-.024c-.11.111-.202.357-.273.738s-.131.786-.179,1.214c-.048.428-.087.813-.119,1.155-.031.341-.047.528-.047.56-.032.222-.179.396-.44.523-.263.127-.497.175-.703.143-.223-.032-.416-.139-.583-.321s-.298-.361-.393-.536Z" fill="#c31313"/>
        <path d="M235.483,139.552c.032-.953-.008-1.905-.118-2.857-.111-.952-.167-1.896-.167-2.833,0-.301.087-.488.262-.56s.373-.107.596-.107c.317,0,.579.087.785.262s.325.42.357.738c.143,1.73.226,3.44.25,5.131.023,1.69.139,3.401.345,5.131.477-.905.969-1.651,1.477-2.238.508-.587.996-.976,1.464-1.167.469-.19.896-.155,1.286.107.389.262.702.778.94,1.548s.381,1.817.429,3.143c.048,1.326-.032,2.973-.238,4.94-.111,0-.246.004-.404.012-.159.008-.314.004-.465-.012-.151-.016-.282-.047-.393-.095-.111-.048-.175-.135-.19-.262.127-1.19.198-2.19.214-3s-.008-1.477-.071-2c-.063-.524-.151-.925-.262-1.203-.111-.277-.23-.48-.357-.607s-.25-.194-.369-.203c-.119-.008-.21-.003-.273.012-.35.127-.679.437-.988.928-.31.492-.575,1.064-.798,1.714-.222.651-.385,1.337-.487,2.06-.104.723-.132,1.369-.084,1.94-.016.127-.032.254-.048.381-.016.127-.043.247-.083.357-.04.111-.104.202-.19.274-.087.071-.219.107-.393.107-.334,0-.6-.06-.798-.179s-.35-.273-.452-.464c-.104-.19-.167-.413-.19-.667-.024-.253-.021-.516.012-.786l-.596-9.547Z" fill="#c31313"/>
        <path d="M244.436,147.552l.881-6.119c.031-.206.123-.357.273-.453.151-.095.322-.143.513-.143.349,0,.626.099.833.297.206.199.381.44.523.727h.024c.19,0,.36-.036.512-.107.15-.071.337-.107.56-.107.508,0,.94.159,1.298.476.356.318.646.702.868,1.155.223.452.385.94.488,1.464.104.523.155.984.155,1.381,0,.476-.123,1.008-.369,1.595-.246.587-.571,1.143-.977,1.667-.404.524-.861.96-1.369,1.31s-1.023.524-1.547.524c-.477,0-.886-.111-1.227-.333-.342-.222-.619-.504-.833-.845-.215-.341-.369-.726-.465-1.155-.095-.429-.143-.849-.143-1.262v-.071ZM246.436,147.695c.031.159.063.341.095.548.032.206.08.393.144.559.062.167.154.294.273.381s.289.091.512.012c.206-.19.429-.405.667-.643.238-.238.464-.492.679-.762.214-.27.393-.555.535-.857.144-.301.215-.619.215-.953.063-.54.023-1.036-.119-1.488-.143-.453-.346-.778-.607-.977-.262-.198-.56-.222-.893-.071-.333.151-.667.56-1,1.226-.19.413-.321.893-.393,1.44-.072.548-.107,1.052-.107,1.512v.071Z" fill="#c31313"/>
        <path d="M262.365,149.528c0-.667.016-1.317.048-1.953.031-.635.047-1.286.047-1.952-.047-1.81-.063-3.583-.047-5.321.016-1.738-.064-3.52-.238-5.345,0-.301.071-.504.214-.607.143-.103.357-.155.643-.155.365,0,.679.107.941.322.262.214.4.512.416.893-.032,2.254-.004,4.488.083,6.703.088,2.214.132,4.456.132,6.726v1.833c-.096.127-.23.254-.405.381-.175.127-.35.175-.523.143-.461-.079-.794-.266-1-.56-.207-.293-.31-.663-.31-1.107Z" fill="#c31313"/>
        <path d="M265.602,132.933c0-.111.092-.21.274-.298.182-.087.321-.131.416-.131.238,0,.504.068.798.203s.44.337.44.607-.035.453-.107.548c-.071.095-.242.143-.512.143-.285,0-.575-.095-.869-.286s-.44-.452-.44-.786ZM266.936,150.29c-.159-1.587-.294-2.944-.405-4.071s-.206-2.071-.285-2.833c-.08-.762-.147-1.369-.203-1.821s-.099-.793-.131-1.024c-.031-.23-.056-.385-.071-.464-.016-.079-.023-.126-.023-.143v-.095c0-.175.075-.321.226-.44.151-.119.306-.179.465-.179.238,0,.496.04.773.119.277.08.465.246.56.5.143.778.242,1.563.298,2.357.056.794.103,1.583.143,2.369s.096,1.576.167,2.369c.071.794.202,1.58.393,2.357,0,.032.012.095.036.19.023.095.047.199.071.31.023.111.043.214.06.31.016.095.023.159.023.19v.048c0,.016.008.032.024.047,0,.19-.088.381-.263.571s-.356.27-.547.238c-.048-.016-.163-.043-.346-.083-.183-.039-.306-.075-.369-.107-.048-.016-.111-.051-.19-.107-.079-.055-.154-.115-.226-.178-.072-.063-.132-.135-.179-.214-.048-.079-.048-.151,0-.214Z" fill="#c31313"/>
        <path d="M273.531,150.29c0-.079.004-.151.012-.214.008-.063.044-.127.107-.19.19-.238.405-.488.643-.75.238-.262.469-.524.69-.786.223-.262.429-.536.619-.821s.35-.572.477-.857v-.143l-3.119.643h-.357c-.222,0-.496-.016-.821-.047s-.643-.099-.952-.203c-.31-.103-.571-.25-.786-.44-.214-.19-.321-.444-.321-.762.016-.365.206-.77.571-1.214.365-.444.794-.881,1.286-1.31s.988-.825,1.488-1.19c.5-.365.9-.65,1.202-.857.333-.19.729-.345,1.19-.464.46-.119.881-.179,1.262-.179.317,0,.596.06.834.179.237.119.356.354.356.702,0,.143-.012.278-.035.405-.024.127-.123.214-.298.262-.508-.048-.984-.012-1.429.107s-.865.298-1.262.536c-.397.238-.771.52-1.119.845-.35.326-.69.663-1.023,1.012-.096.111-.215.266-.357.464-.143.199-.214.314-.214.345v.024c.412,0,.821-.04,1.226-.119.405-.079.81-.163,1.215-.25.404-.087.81-.17,1.214-.25.404-.079.821-.119,1.25-.119.158,0,.333.012.523.036s.369.075.536.155.301.187.404.321c.104.135.155.306.155.512,0,.302-.075.592-.227.869-.15.278-.373.611-.666,1-.294.389-.667.861-1.119,1.417-.453.556-.988,1.271-1.607,2.143-.032.047-.107.08-.227.095s-.218.024-.297.024c-.223,0-.449-.095-.679-.286-.23-.19-.346-.405-.346-.643Z" fill="#c31313"/>
        <path d="M282.031,144.242c-.223,0-.421.056-.595.167-.175.111-.381.167-.619.167-.032,0-.115-.003-.25-.012-.135-.008-.219-.012-.25-.012-.063-.08-.135-.143-.215-.191-.079-.047-.158-.099-.237-.154-.08-.056-.147-.123-.203-.203-.056-.079-.083-.19-.083-.333,0-.238.096-.432.286-.583s.412-.282.666-.393c.254-.111.513-.214.774-.31s.472-.206.631-.333v-1.048c0-1.174-.056-2.353-.167-3.536-.111-1.182-.167-2.353-.167-3.512,0-.317.08-.524.238-.619.159-.095.373-.143.644-.143.316,0,.551.092.702.274.15.183.258.405.321.667.063.262.095.54.095.833s.008.544.024.75c0,.207.016.571.048,1.095.031.524.062,1.08.095,1.667.031.587.063,1.143.096,1.667.031.523.055.889.071,1.095.063-.016.187-.06.369-.131.182-.072.377-.143.583-.214.206-.072.4-.139.583-.203.183-.063.313-.111.394-.143.412-.175.841-.369,1.285-.583s.896-.321,1.357-.321c.317,0,.56.107.726.321.167.214.25.464.25.75,0,.207-.079.357-.237.452-.159.095-.326.183-.5.262l-4.334,1.619c-.047.032-.095.059-.143.083s-.095.06-.143.107v.762c0,.556.012,1.131.035,1.726.024.595.075,1.171.155,1.726.079.477.167.945.262,1.405.096.461.143.929.143,1.405,0,.143-.047.333-.143.572-.095.238-.246.357-.452.357-.429,0-.778-.127-1.048-.381-.271-.254-.421-.595-.452-1.024-.08-.825-.163-1.73-.25-2.714-.088-.984-.171-1.928-.25-2.833h-.096Z" fill="#c31313"/>
        <path d="M300.198,144.433c-.032.286-.067.508-.107.667-.04.159-.107.302-.202.429-.096.127-.23.258-.405.393-.175.135-.412.326-.714.572s-.675.567-1.119.964c-.444.397-.984.913-1.619,1.548-.254.238-.516.484-.785.738-.271.254-.552.48-.846.678-.294.199-.6.361-.916.488-.318.127-.651.19-1,.19-.683,0-1.183-.23-1.5-.69-.318-.46-.477-.992-.477-1.595,0-.396.012-.73.036-1,.023-.27.083-.619.178-1.048-.175-.158-.325-.297-.452-.417s-.19-.282-.19-.488c0-.19.044-.317.131-.381.087-.063.19-.107.31-.131s.234-.051.346-.083c.11-.031.19-.095.237-.19.032-.095.092-.27.179-.523s.179-.52.274-.798c.095-.277.187-.54.273-.786s.146-.417.179-.512c.11-.27.234-.544.369-.822.135-.277.293-.527.476-.75.183-.222.397-.405.644-.547.246-.143.535-.214.869-.214.19,0,.424.087.702.262.277.175.543.385.798.631.253.247.468.504.643.774.175.27.262.5.262.69,0,.238-.056.457-.167.655-.11.199-.25.381-.416.548-.167.167-.346.321-.536.464-.19.143-.365.278-.523.405-.017,0-.048.016-.096.047-.047.032-.087.056-.119.071-.016.016-.052.052-.106.107l-.179.179c-.063.063-.123.127-.179.19s-.092.103-.107.119c-.048.048-.139.124-.273.227s-.282.214-.44.333c-.159.119-.306.23-.44.333-.136.104-.227.171-.274.202l-.095.191c-.032.063-.06.202-.083.417-.024.214-.052.457-.084.726-.032.27-.06.544-.083.821-.024.278-.036.504-.036.679,0,.016.008.032.024.048.031.032.055.047.071.047.127,0,.246-.055.357-.167.11-.111.229-.19.356-.238l3.81-3.524.977-1.5c.079-.111.233-.234.464-.369s.465-.206.702-.214c.238-.008.448.067.632.226.182.159.273.468.273.929ZM294.96,142.575c.079-.063.111-.158.096-.286-.017-.127-.06-.238-.131-.333-.072-.095-.163-.155-.274-.179s-.214.036-.31.179c-.048.063-.131.19-.25.381s-.238.385-.356.583c-.119.199-.219.369-.298.512-.08.143-.096.199-.048.167l1.571-1.024Z" fill="#c31313"/>
        <path d="M307.626,150.385c-.223-.317-.408-.758-.56-1.321-.15-.563-.294-1.159-.429-1.786s-.258-1.238-.368-1.833c-.111-.595-.227-1.071-.346-1.429-.119-.357-.25-.559-.393-.607-.144-.048-.31.167-.5.643l-2.071,6.381c-.08.222-.175.377-.286.464-.111.088-.294.131-.548.131-.127,0-.262-.02-.404-.06s-.278-.099-.405-.179c-.127-.079-.234-.174-.321-.286-.087-.111-.139-.238-.154-.381.048-.19.091-.54.131-1.048.039-.508.067-1.095.083-1.762s.027-1.369.036-2.107c.008-.738.008-1.429,0-2.072-.009-.643-.021-1.198-.036-1.667s-.032-.774-.048-.917c0-.159.004-.322.013-.488.008-.167.031-.321.071-.464.039-.143.11-.258.214-.345.104-.087.266-.131.488-.131.302,0,.583.127.846.381.262.254.393.524.393.81,0,.413-.021.821-.06,1.226-.04.405-.06.814-.06,1.226v.643c0,.175.031.389.095.643.048-.127.127-.349.238-.667.111-.317.234-.65.369-1,.135-.349.258-.678.369-.988s.19-.528.238-.655c.11-.317.277-.623.5-.917.222-.293.516-.456.881-.488.238-.016.456.047.654.19.198.143.369.33.513.56.143.23.262.468.356.714.096.246.167.456.215.631l1.285,5.928,1,2.714c.016.016.024.06.024.131v.155c0,.19-.044.377-.131.56-.088.183-.242.274-.465.274-.27,0-.548-.075-.833-.226-.286-.151-.484-.345-.596-.583Z" fill="#c31313"/>
      </g>
    </g>
  </g>
</svg>