<?xml version="1.0" encoding="UTF-8"?>
<svg id="Layer_2" data-name="Layer 2" xmlns="http://www.w3.org/2000/svg" viewBox="0 0 26.269 110.112">
  <g id="Layer_2-2" data-name="Layer 2">
    <g>
      <path d="M21.549,84.386h-12.506c-1.194,0-2.244.583-2.908,1.471-.003.001-.005.002-.008.003-.922,1.053-1.844,2.106-2.766,3.16,0,0,.001,0,.002,0-.079.077-.141.169-.213.253-.686.784-1.372,1.568-2.059,2.352,0,0,.001,0,.002,0-.674.661-1.094,1.578-1.094,2.596v12.25c0,2.01,1.63,3.64,3.64,3.64h12.506c1.091,0,2.058-.49,2.725-1.25.011-.005.021-.01.032-.015l2.258-2.6s.008-.004.012-.005c.978-1.127,1.957-2.254,2.935-3.381.034-.034.062-.074.095-.109.074-.085.147-.17.221-.255-.003,0-.006-.002-.009-.003.478-.616.773-1.379.773-2.219v-12.25c0-2.01-1.63-3.64-3.64-3.64Z" fill="#252525"/>
      <path d="M7.108,83.216c.534.404,1.108.43,1.317.43h3.208c.164.001.885-.011,1.496-.57,1.044-1.197,2.089-2.394,3.133-3.592.119-.109.211-.224.293-.34.659-.755,1.318-1.51,1.976-2.265.692-.634.705-1.48.705-1.619.543-5.134,7.18-67.966,7.027-71.7-.069-1.676-.928-2.533-.929-2.533-.819-.817-1.976-.893-2.54-.922-1.081-.056-2.693-.093-4.705-.102h0s-.006,0-.009,0c-2.345-.011-5.238.016-8.571.102-.217-.004-1.459-.003-2.457.993,0,0-.037.04-.086.099-1.016,1.164-2.032,2.329-3.047,3.493,0,0-.058.059-.144.17-.708.812-1.417,1.624-2.125,2.436,0,0-.855.854-.996,2.449-.313,3.544,5.122,66.225,5.599,71.707.001.129.026,1.136.856,1.764Z" fill="#252525"/>
    </g>
    <g>
      <rect x="5.406" y="84.395" width="19.786" height="19.529" rx="3.64" ry="3.64" fill="#c31313"/>
      <path d="M18.535,76.887c-.61.56-1.332.572-1.496.57-1.069,0-2.139,0-3.208,0-.208,0-.783-.025-1.317-.43-.83-.628-.855-1.635-.856-1.764-.476-5.482-5.912-68.163-5.599-71.707.141-1.595.996-2.449.996-2.449C8.054.111,9.296.11,9.513.114,15.712-.046,20.457-.007,22.798.114c.564.029,1.721.104,2.54.922,0,0,.86.857.929,2.533.154,3.733-6.484,66.566-7.027,71.7,0,.138-.013.984-.705,1.619Z" fill="#c31313"/>
    </g>
  </g>
</svg>